<svg xmlns="http://www.w3.org/2000/svg" viewBox="0 0 28.346 28.346"><defs><style>.a,.b{fill:none;stroke:#dedede;stroke-miterlimit:10;stroke-width:0.15px;}.b{stroke-dasharray:0.511 0.511;}.c{fill:#dedede;}</style></defs><line class="a" x1="2.558" y1="25.176" x2="2.808" y2="25.176"/><line class="b" x1="3.319" y1="25.176" x2="25.545" y2="25.176"/><line class="a" x1="25.8" y1="25.176" x2="26.05" y2="25.176"/><line class="a" x1="25.195" y1="2.644" x2="25.195" y2="2.894"/><line class="b" x1="25.195" y1="3.405" x2="25.195" y2="25.631"/><line class="a" x1="25.195" y1="25.886" x2="25.195" y2="26.136"/><path class="c" d="M25.78,14.17a.99.99,0,0,1,.045-.17c-.235.217-.23.227-.266.227s-.036,0-.036-.012a3.5,3.5,0,0,1,.329-.338c.025-.025.036-.032.046-.032s.134.045.134.066a.773.773,0,0,1-.067.119c.155-.111.3-.209.3-.209a.144.144,0,0,1,.021.071.041.041,0,0,1,0,.022c-.036.042-.208.144-.385.27a.421.421,0,0,0-.012.1c0,.038.021.054.042.054.1,0,.223-.174.252-.174.013,0,.025.007.025.02a.441.441,0,0,1-.315.224.13.13,0,0,1-.123-.126,1.678,1.678,0,0,0-.168.148c-.008.008-.022.037-.035.037s-.016-.031-.016-.045a.165.165,0,0,1,.052-.108A2.058,2.058,0,0,1,25.78,14.17Z"/><path class="c" d="M16.944,21.667a.534.534,0,0,1,.385.374c0,.024-.028.033-.069.033-.182,0-.4,0-.622.019a2.1,2.1,0,0,0-.4.79c0,.034.019.048.051.048a3.179,3.179,0,0,0,1.016-.7.182.182,0,0,1,.079-.038c.058,0,.084.124.084.148a2.258,2.258,0,0,1-1.258.938c-.3,0-.45-.45-.45-.541a1.334,1.334,0,0,1,.167-.617c-.256.01-.521.019-.775.019a4.426,4.426,0,0,1-1.821,1.187A.26.26,0,0,1,13.2,23.3a1.076,1.076,0,0,1-.593-.962,1.35,1.35,0,0,1,.632-.99,2.816,2.816,0,0,1,.947-.436c.084,0,.084.077.084.139a.189.189,0,0,1-.084.177,3.225,3.225,0,0,0-1.124,1.029.8.8,0,0,0-.13.436c0,.114.041.2.168.2a.758.758,0,0,0,.3-.091,8.449,8.449,0,0,0,1.081-.684c-.435-.053-.459-.163-.459-.277,0-.039.014-.106.05-.106a1.838,1.838,0,0,0,.321.053c.191,0,.368,0,.531-.01a25.76,25.76,0,0,0,2.642-2.55c.05-.048.083-.1.138-.1.252,0,.907.349.907.474,0,.1-.8.809-1.5,1.838Zm-.754-.009c.247-.4.632-.952,1.233-1.752a.128.128,0,0,0,.024-.062c0-.014,0-.024-.024-.024s-.043.019-.1.086a24.274,24.274,0,0,1-1.714,1.814C15.82,21.7,16.006,21.672,16.19,21.658Z"/><path class="c" d="M8.744,23.975h0v-.006A3.442,3.442,0,0,1,9.4,22.682c.224-.335.322-.462.5-.693l.266-.362c1.142-1.682,2.446-2.84,2.446-3,0-.179-.978-.624-1.084-.681l-.888,1.022c.007,0,.029.014.037.014.032,0,.04.016.04.04a.184.184,0,0,1-.04.1c-.982,1.3-1.609,2.2-2.011,2.857-.109.2-.231.423-.427.754a2.177,2.177,0,0,0-.273,1,1.319,1.319,0,0,0,.34.7Z"/><path class="c" d="M20.266,9.3c0-.045.042-.088.073-.12.072-.077.135-.146.222-.235a.017.017,0,0,1,.014-.007c.023,0,.046.037.046.055s-.011.024-.02.037a.313.313,0,0,0-.042.054.69.69,0,0,1,.209-.123A.041.041,0,0,1,20.807,9h0c0,.057-.084.114-.093.114s-.027-.04-.051-.04h-.014a1.411,1.411,0,0,0-.286.254c-.009.01-.026.045-.047.045A.1.1,0,0,1,20.266,9.3Z"/><path class="c" d="M20.788,9.338a.1.1,0,0,1,0-.035c0-.019.048-.046.074-.06a1.7,1.7,0,0,0,.176-.1c.03-.02.081-.062.081-.08h0a.24.24,0,0,0-.091.047c0,.005.01.008.01.017s-.012.023-.041.037a.117.117,0,0,1-.044.013c-.016,0-.04-.041-.04-.062s.024-.035.052-.056a.3.3,0,0,1,.16-.073c.033,0,.049.035.061.06a.079.079,0,0,1,.01.034.246.246,0,0,1-.127.14c-.05.025-.1.048-.154.068h.042c.05,0,.1.014.1.046,0,.009-.017.029-.049.029-.1,0-.126.007-.161.007A.071.071,0,0,1,20.788,9.338Z"/><path class="c" d="M21.442,9.194c0-.055.046-.069.109-.069h.267c.033,0,.045.012.045.037s-.006.053-.026.053h-.374C21.451,9.214,21.442,9.212,21.442,9.194Zm.05-.17c0-.054.047-.068.11-.068h.267c.032,0,.044.012.044.036s0,.053-.026.053h-.373C21.5,9.044,21.492,9.042,21.492,9.024Z"/><path class="c" d="M22.418,8.9c0-.06.073-.1.1-.1s.018.007.018.014l-.006.009s-.023.015-.023.035.021.017.048.017.087-.022.087-.049-.017-.023-.066-.023c-.013,0-.027-.019-.027-.033a.052.052,0,0,1,.03-.039c.123-.032.188-.064.188-.084h-.019c-.031,0-.08.013-.079.02v.008c0,.015-.024.022-.041.027a.288.288,0,0,1-.042.014.057.057,0,0,1-.035-.042c0-.039.131-.1.185-.1a.079.079,0,0,1,.081.075.15.15,0,0,1,0,.03c0,.037-.051.076-.12.1a.074.074,0,0,1,.023.054c0,.07-.114.128-.183.128C22.448,8.97,22.418,8.938,22.418,8.9Z"/><path class="c" d="M22.886,8.844h-.043c-.014,0-.02-.012-.029-.022A.248.248,0,0,0,22.79,8.8a.032.032,0,0,1,.008-.021.982.982,0,0,1,.313-.189c.021,0,.035.042.035.056a.049.049,0,0,1-.013.036l-.084.1c.033.01.047.026.047.039s-.013.031-.024.031H23c-.026.032-.058.067-.1.12-.006.009-.012.016-.021.016a.057.057,0,0,1-.051-.046C22.827,8.911,22.843,8.891,22.886,8.844Zm.072-.078c.02-.021.044-.05.078-.09a.6.6,0,0,0-.126.092Z"/><path class="c" d="M23.443,8.681c.015,0,.029.021.029.034a.029.029,0,0,1-.012.023,4.005,4.005,0,0,0-.608.585c-.041.048-.042.064-.051.064H22.8a.043.043,0,0,1-.013-.034c0-.053.062-.115.114-.176A3.574,3.574,0,0,1,23.443,8.681Z"/><path class="c" d="M23.105,9.306a.106.106,0,0,1,.088-.092.016.016,0,0,1,.018.014v0a.013.013,0,0,1-.013.013h0a.029.029,0,0,0-.022.028.021.021,0,0,0,.023.019h0a.156.156,0,0,0,.13-.1c0-.008-.007-.011-.016-.011a.1.1,0,0,0-.05.017.043.043,0,0,1-.024.01c-.022,0-.033-.034-.033-.042a.682.682,0,0,1,.109-.144c0-.016.006-.034.036-.035h.128c.021,0,.029.018.029.038v.015c0,.022-.035.024-.051.024h-.068a.727.727,0,0,0-.056.055.066.066,0,0,1,.046.032.083.083,0,0,1,.019.056.1.1,0,0,1-.03.074.261.261,0,0,1-.17.1A.085.085,0,0,1,23.105,9.306Z"/><path class="c" d="M23.427,9.332a.034.034,0,0,1,.014-.021c.03-.026.061-.053.091-.084-.04,0-.07-.06-.07-.082a.215.215,0,0,1,.093-.136.184.184,0,0,1,.1-.04c.031,0,.044.02.062.049a.091.091,0,0,1,.017.05.173.173,0,0,1-.038.094,1.167,1.167,0,0,1-.177.188.064.064,0,0,1-.042.018C23.466,9.368,23.427,9.357,23.427,9.332Zm.113-.171a.127.127,0,0,0,.087-.051c.036-.042.042-.058.042-.068h0c-.036,0-.131.084-.131.119Z"/><path class="c" d="M24.062,9.21a1.173,1.173,0,0,1,.042-.165c.036-.1.059-.134.076-.134s.106.038.106.056a1,1,0,0,1-.07.129c.138-.1.273-.192.279-.192s.019.028.019.062a.031.031,0,0,1,0,.019c-.033.037-.186.127-.342.239a.308.308,0,0,0-.007.068c0,.035.02.049.037.049.091,0,.2-.153.222-.153s.021.006.021.017a.385.385,0,0,1-.276.2.11.11,0,0,1-.105-.1,1.288,1.288,0,0,0-.13.115c-.007.007-.02.033-.031.033s-.013-.028-.013-.04a.144.144,0,0,1,.045-.1A1.644,1.644,0,0,1,24.062,9.21Z"/><path class="c" d="M13.469,6.139a.173.173,0,0,1-.029-.085.087.087,0,0,1,.005-.028.722.722,0,0,1,.35-.293c.044,0,.08.046.113.079A.213.213,0,0,1,14,5.873v.006a.766.766,0,0,0-.224.233.009.009,0,0,0,.009.009h0A.656.656,0,0,0,14,5.967h.009c.013,0,.021.024.021.031a.5.5,0,0,1-.253.2.084.084,0,0,1-.075-.092V6.1c-.075.067-.117.1-.153.1S13.488,6.174,13.469,6.139Zm.074-.007h.011a1.785,1.785,0,0,0,.289-.267V5.858c0-.007-.006-.013-.016-.013a.265.265,0,0,0-.078.041.8.8,0,0,0-.149.129c-.033.035-.073.079-.073.1A.02.02,0,0,0,13.543,6.132Z"/><path class="c" d="M14.062,5.982c0-.055.046-.069.108-.069h.268c.033,0,.044.012.044.037s0,.053-.025.053h-.374C14.071,6,14.062,6,14.062,5.982Zm.05-.17c0-.054.046-.068.109-.068h.268c.032,0,.044.012.044.036s0,.053-.026.053h-.374C14.121,5.833,14.112,5.831,14.112,5.812Z"/><path class="c" d="M14.528,6.1a.2.2,0,0,1,.044-.1,3.288,3.288,0,0,1,.31-.367.2.2,0,0,1-.008-.059c0-.044.236-.2.261-.2a.061.061,0,0,1,.034.021c.01.009.013.016.013.053a.075.075,0,0,1-.018.054c-.069.091-.313.36-.539.646-.02.024-.028.028-.038.028A.147.147,0,0,1,14.528,6.1Z"/><path class="c" d="M14.9,6.113a.242.242,0,0,1-.008-.071c0-.03.1-.084.153-.115.139-.076.267-.145.394-.229.071-.047.191-.151.191-.2,0-.02-.013-.027-.029-.027a.293.293,0,0,0-.117.048c-.015.009-.11.065-.11.083s.026.02.026.036-.026.03-.077.058a.292.292,0,0,1-.091.033c-.029,0-.066-.078-.066-.118,0-.024.064-.074.1-.109a.64.64,0,0,1,.345-.157c.062,0,.1.066.11.1a.41.41,0,0,1,.029.082c0,.047-.077.186-.274.293-.158.085-.3.128-.424.2h.183c.1,0,.208.024.208.079,0,.015-.03.042-.085.042-.215,0-.318.017-.361.017S14.915,6.154,14.9,6.113Z"/><path class="c" d="M16.254,5.393a.109.109,0,0,1,.039-.015.166.166,0,0,1,.067.136.283.283,0,0,1-.015.082,1.145,1.145,0,0,1-.411.56.165.165,0,0,1-.1.034.087.087,0,0,1-.045-.01.362.362,0,0,1-.145-.121.192.192,0,0,1-.021-.1.592.592,0,0,1,.146-.315,1.168,1.168,0,0,1,.242-.234.245.245,0,0,1,.13-.058A.271.271,0,0,1,16.254,5.393Zm-.046.066a.872.872,0,0,0-.428.443.311.311,0,0,0-.033.119.043.043,0,0,0,.025.046h.022c.108,0,.42-.4.42-.56A.263.263,0,0,0,16.208,5.459Z"/><path class="c" d="M16.369,5.882A.107.107,0,0,1,16.4,5.83a.286.286,0,0,1,.112-.017h.117c.032,0,.044.013.044.037s0,.053-.025.053H16.4C16.378,5.9,16.369,5.9,16.369,5.882Zm.278-.458a.125.125,0,0,1,.054-.012c.024,0,.031.009.052.031a.091.091,0,0,1,.023.046c0,.009-.006.011-.017.011a.069.069,0,0,1,.015.05.151.151,0,0,1-.005.042.294.294,0,0,1-.2.155.076.076,0,0,1-.039-.01.2.2,0,0,1-.075-.12C16.453,5.539,16.566,5.461,16.647,5.424Zm.041.094c-.078.033-.162.1-.163.145a.017.017,0,0,0,.014.015.252.252,0,0,0,.093-.049.141.141,0,0,0,.053-.058.073.073,0,0,1-.007-.029A.043.043,0,0,1,16.688,5.518Z"/><path class="c" d="M7.068,4.625a1.064,1.064,0,0,1,.04-.147c-.208.191-.2.2-.235.2s-.032,0-.032-.011a3.284,3.284,0,0,1,.29-.3c.022-.022.033-.028.042-.028s.117.039.117.058a.559.559,0,0,1-.059.1c.137-.1.265-.184.27-.184a.088.088,0,0,1,.018.062.034.034,0,0,1,0,.02c-.031.036-.183.126-.339.238a.356.356,0,0,0-.011.086c0,.034.019.048.037.048.091,0,.2-.154.223-.154a.019.019,0,0,1,.021.017h0a.387.387,0,0,1-.277.2.117.117,0,0,1-.109-.111,1.524,1.524,0,0,0-.149.13c-.007.007-.019.033-.03.033s-.014-.027-.014-.04a.149.149,0,0,1,.045-.095C6.944,4.723,7,4.676,7.068,4.625Z"/><path class="c" d="M7.13,5.186a.136.136,0,0,1-.057-.11.055.055,0,0,1,.015-.019,8.4,8.4,0,0,1,.766-.574c.006,0,.01-.006.015,0a.2.2,0,0,1,.012.1.116.116,0,0,1-.064.063,4.9,4.9,0,0,0-.639.5C7.17,5.156,7.141,5.189,7.13,5.186Z"/><path class="c" d="M7.892,5.033c.09-.089.122-.127.122-.154V4.87a.032.032,0,0,0,.006-.021.056.056,0,0,0-.055-.057h0a1.383,1.383,0,0,0-.192.017c-.035.006-.081.015-.081.05a.059.059,0,0,0,.043.056h.036c.013,0,.116-.02.135-.02a2.022,2.022,0,0,1-.155.137,1.9,1.9,0,0,0-.2.009c-.007,0-.038,0-.038.014s-.024.07,0,.07A.94.94,0,0,1,7.672,5.1c-.034.032-.068.067-.1.1a.051.051,0,0,0-.016.039c0,.02.027.061.055.061a.032.032,0,0,0,.026-.012l.17-.169L7.832,5.1a.743.743,0,0,1,.133.008c.019,0,.084.012.072-.014S7.963,5.042,7.892,5.033Z"/></svg>