<svg xmlns="http://www.w3.org/2000/svg" viewBox="0 0 28.346 28.346"><defs><style>.a{fill:#dedede;}.b,.c,.d,.e{fill:none;stroke:#dedede;stroke-miterlimit:10;stroke-width:0.25px;}.c{stroke-dasharray:0.545 0.545;}.d{stroke-dasharray:0.462 0.462;}.e{stroke-dasharray:0.545 0.545;}</style></defs><path class="a" d="M21.614,21.528a.331.331,0,0,1,.24.233c0,.015-.018.021-.043.021-.114,0-.247,0-.389.012a1.315,1.315,0,0,0-.25.493c0,.021.012.03.032.03a1.99,1.99,0,0,0,.635-.436.1.1,0,0,1,.05-.024c.036,0,.052.077.052.092a1.413,1.413,0,0,1-.787.587c-.188,0-.281-.281-.281-.338a.83.83,0,0,1,.105-.386c-.16.006-.326.012-.485.012a2.762,2.762,0,0,1-1.138.742.166.166,0,0,1-.082-.018.673.673,0,0,1-.371-.6.848.848,0,0,1,.395-.619,1.758,1.758,0,0,1,.592-.272c.053,0,.053.048.053.087a.118.118,0,0,1-.053.111,2,2,0,0,0-.7.643.5.5,0,0,0-.08.272c0,.072.025.128.1.128a.479.479,0,0,0,.186-.056,5.584,5.584,0,0,0,.676-.428c-.273-.033-.288-.1-.288-.174,0-.024.009-.065.032-.065a1.2,1.2,0,0,0,.2.032c.12,0,.231,0,.332-.006A15.91,15.91,0,0,0,22,20.005c.032-.03.053-.063.087-.063.157,0,.567.219.567.3,0,.059-.5.5-.938,1.148Zm-.472-.006c.154-.252.395-.595.771-1.095a.08.08,0,0,0,.015-.039c0-.009,0-.015-.015-.015s-.027.012-.062.054a14.971,14.971,0,0,1-1.07,1.134C20.911,21.546,21.027,21.531,21.142,21.522Z"/><path class="a" d="M10.6,22.819a.278.278,0,0,0-.129.065,5.2,5.2,0,0,1-1.659,1.134.07.07,0,0,1-.077-.063.049.049,0,0,1,0-.012l-.441.462a.549.549,0,0,0,.391.184,3.68,3.68,0,0,0,2.052-1.528C10.733,23.02,10.692,22.819,10.6,22.819Z"/><path class="a" d="M22.116,6.919c-.02.026-.043.049-.064.073l1.059,1.06.069-.069Z"/><path class="a" d="M22.219,6.755a.95.95,0,0,1-.05.088l1.142,1.142.069-.069Z"/><path class="a" d="M20.551,4.807,19.077,3.333l-.069.069,1.436,1.436C20.479,4.826,20.515,4.816,20.551,4.807Z"/><path class="a" d="M22.307,6.563c-.012.034-.021.07-.036.1l1.246,1.247.177.036-.107-.105Z"/><path class="a" d="M22.367,6.35c-.007.038-.016.075-.026.112l1.37,1.37.069-.069Z"/><path class="a" d="M20.783,4.766,19.27,3.253l-.069.069,1.456,1.456C20.7,4.77,20.741,4.77,20.783,4.766Z"/><path class="a" d="M23.8,7.233h0L22.337,5.77a1.233,1.233,0,0,1,.035.173L23.8,7.37Z"/><path class="a" d="M23.82,7.672V7.549h.016L22.389,6.1l0,.02c0,.037-.008.072-.011.109Z"/><path class="a" d="M21.242,7.923,20.8,7.478a1.279,1.279,0,0,1-.153-.015l.459.46Z"/><path class="a" d="M21.545,7.939l-.462-.461c-.042,0-.083.012-.126.012l.449.449Z"/><path class="a" d="M21.7,7.915h.093l-.476-.476c-.037.009-.072.021-.111.027l.494.494Z"/><path class="a" d="M21.926,7.93h.135l-.549-.55c-.034.014-.071.021-.106.033l.52.52Z"/><path class="a" d="M22.328,7.937l-.644-.645c-.03.017-.061.032-.092.047l.6.6Z"/><path class="a" d="M22.6,7.934l-.752-.751c-.026.02-.05.042-.078.06l.692.691Z"/><path class="a" d="M22.858,7.927l-.866-.866c-.023.023-.048.044-.073.066l.8.8Z"/><path class="a" d="M19,3.539v.043h-.095l1.34,1.341c.031-.016.06-.034.092-.047Z"/><path class="a" d="M18.963,3.766v.088h-.049L20.08,5.021c.028-.019.055-.038.084-.055Z"/><path class="a" d="M19.081,4.149V4.27h-.018l.867.868c.025-.022.052-.04.078-.061Z"/><path class="a" d="M19.113,4.448v.073h-.066l.756.756c.021-.025.042-.051.064-.074Z"/><path class="a" d="M19.117,4.726v.068h-.07l.641.641c.018-.029.032-.059.052-.086Z"/><path class="a" d="M19.1,4.969v.1h-.04L19.6,5.6c.014-.031.033-.06.049-.09Z"/><path class="a" d="M19.1,5.22v.1H19.06l.473.474c.009-.036.022-.07.034-.1Z"/><path class="a" d="M19.111,5.505v.1h-.042l.427.427c0-.042.006-.084.013-.125Z"/><path class="a" d="M19.084,5.887h-.017l.441.441a1.336,1.336,0,0,1-.017-.155l-.407-.407Z"/><path class="a" d="M19.465,3.178V3.2h-.083V3.174l-.03.03L20.9,4.755c.012,0,.023,0,.036,0,.037,0,.073.008.109.011Z"/><path class="a" d="M19.777,3.21h-.138l1.567,1.567a1.334,1.334,0,0,1,.188.05Z"/><polygon class="a" points="23.467 6.12 23.506 6.12 20.911 3.524 20.911 3.53 20.778 3.53 23.467 6.218 23.467 6.12"/><polygon class="a" points="23.649 6.515 20.514 3.381 20.514 3.41 20.405 3.41 23.649 6.653 23.649 6.515"/><polygon class="a" points="23.741 6.911 23.758 6.911 20.101 3.254 20.101 3.27 19.979 3.27 23.741 7.032 23.741 6.911"/><polygon class="a" points="19.069 6.017 19.069 6.148 19.062 6.148 20.898 7.984 20.898 7.96 21.012 7.96 19.069 6.017"/><polygon class="a" points="19.915 7.649 19.915 7.671 19.798 7.671 20.204 8.076 20.342 8.076 19.915 7.649"/><polygon class="a" points="19.336 7.15 19.416 7.15 18.947 6.681 18.947 6.79 18.918 6.79 19.336 7.208 19.336 7.15"/><polygon class="a" points="19.486 7.026 19.592 7.026 18.923 6.357 18.923 6.495 19.486 7.059 19.486 7.026"/><polygon class="a" points="20.012 7.446 20.012 7.535 19.963 7.535 20.523 8.096 20.662 8.096 20.012 7.446"/><polygon class="a" points="19.717 7.034 19.847 7.034 19.061 6.249 19.061 6.342 19.016 6.342 19.717 7.043 19.717 7.034"/><polygon class="a" points="20.01 7.197 20.01 7.336 20.653 7.979 20.653 7.967 20.78 7.967 20.01 7.197"/><path class="b" d="M19.166,6.355a.12.12,0,0,1-.119.121c-.006,0-.01-.006-.015-.007V8h1.537l0,0a.119.119,0,0,1,.119-.12H22.93a.119.119,0,0,1,.121.119l0,.005h.724v0a4.725,4.725,0,0,0-4.725-4.725l-.016,0V4s.008-.006.013-.006a.12.12,0,0,1,.121.12h0Zm1.8-1.65a1.362,1.362,0,1,1-.731,2.51.593.593,0,0,0-.414-.413,1.361,1.361,0,0,1,1.145-2.1Zm-1.3,2.22a.449.449,0,1,1-.448.448A.448.448,0,0,1,19.669,6.925Z"/><polyline class="b" points="12.895 7.909 12.678 8.034 12.462 7.909"/><line class="c" x1="11.99" y1="7.636" x2="10.338" y2="6.683"/><polyline class="b" points="10.102 6.547 9.885 6.422 10.135 6.422"/><line class="d" x1="10.598" y1="6.422" x2="14.99" y2="6.422"/><polyline class="b" points="15.221 6.422 15.471 6.422 15.255 6.547"/><line class="e" x1="14.783" y1="6.819" x2="13.131" y2="7.772"/></svg>