<svg xmlns="http://www.w3.org/2000/svg" viewBox="0 0 28.346 28.346"><defs><style>.a{fill:#dedede;}</style></defs><path class="a" d="M7.751,22.065A39.635,39.635,0,0,0,10.543,19.1c.074-.087.107-.117.14-.127l.848-1.027a1.157,1.157,0,0,0-.373-.109c-.089,0-.146.088-.226.168a42.414,42.414,0,0,1-4.305,4.152c-.289.224-.424.316-.724.553a13.728,13.728,0,0,1-1.759,1.119,1.229,1.229,0,0,1-.483.144.245.245,0,0,1-.208-.089l-.248.215a3.334,3.334,0,0,0,.616.534.437.437,0,0,0,.218.048c.531,0,1.665-.78,2.969-1.939C7.264,22.505,7.477,22.307,7.751,22.065Z"/><path class="a" d="M8.546,10.37l-.1.2H8.39l.347-.711H8.79l.1.711H8.833l-.026-.2Zm.254-.053-.049-.371-.18.371Z"/><path class="a" d="M9.086,9.857H9.14l-.012.509,0,.067.023-.069.172-.507h.05l.014.517v.061l.019-.063.148-.515h.054l-.208.711H9.34l-.011-.534V9.98l-.017.053-.18.535H9.073Z"/><path class="a" d="M9.633,10.373l.009-.053h.423l-.008.053Zm.035-.2.009-.052H10.1l-.009.052Z"/><path class="a" d="M10.549,10.529a.26.26,0,0,1,.005-.039.267.267,0,0,1-.036.032.2.2,0,0,1-.04.026.225.225,0,0,1-.058.022.207.207,0,0,1-.062.008.212.212,0,0,1-.061-.011.154.154,0,0,1-.048-.029.122.122,0,0,1-.033-.047.132.132,0,0,1-.007-.061.151.151,0,0,1,.017-.058.145.145,0,0,1,.033-.044.189.189,0,0,1,.046-.032.418.418,0,0,1,.053-.021.515.515,0,0,1,.059-.011l.057,0h.115l.01-.06a.127.127,0,0,0,0-.052.1.1,0,0,0-.024-.038.1.1,0,0,0-.039-.023.146.146,0,0,0-.052-.008.149.149,0,0,0-.051.006.178.178,0,0,0-.047.019.205.205,0,0,0-.038.034.114.114,0,0,0-.022.047h-.058a.167.167,0,0,1,.028-.067.247.247,0,0,1,.053-.049.223.223,0,0,1,.067-.029.257.257,0,0,1,.073-.01.209.209,0,0,1,.072.012.161.161,0,0,1,.057.033.148.148,0,0,1,.035.055.154.154,0,0,1,.006.072l-.043.256a.3.3,0,0,0,0,.052.467.467,0,0,0,0,.052v.006h-.06A.254.254,0,0,1,10.549,10.529Zm-.125-.009a.321.321,0,0,0,.054-.022.273.273,0,0,0,.045-.033.316.316,0,0,0,.038-.043l.02-.116h-.1l-.053,0a.335.335,0,0,0-.055.011.235.235,0,0,0-.037.014.127.127,0,0,0-.031.02.121.121,0,0,0-.025.03.126.126,0,0,0-.014.04.1.1,0,0,0,0,.043.085.085,0,0,0,.021.032.113.113,0,0,0,.034.02.184.184,0,0,0,.042.007A.262.262,0,0,0,10.424,10.52Z"/><path class="a" d="M10.827,10.236a.285.285,0,0,1,.025-.063.415.415,0,0,1,.035-.057.245.245,0,0,1,.046-.045.194.194,0,0,1,.057-.03.187.187,0,0,1,.068-.011.149.149,0,0,1,.047.007.133.133,0,0,1,.042.019.127.127,0,0,1,.028.024.124.124,0,0,1,.023.032l.053-.294h.058l-.13.75h-.054l.013-.067a.281.281,0,0,1-.031.029.25.25,0,0,1-.036.024.207.207,0,0,1-.047.018.224.224,0,0,1-.052.006.135.135,0,0,1-.062-.013.125.125,0,0,1-.046-.031.154.154,0,0,1-.031-.047.206.206,0,0,1-.019-.056.291.291,0,0,1-.006-.06.3.3,0,0,1,0-.06V10.3A.381.381,0,0,1,10.827,10.236Zm.037.122a.391.391,0,0,0,0,.049.3.3,0,0,0,.011.045.157.157,0,0,0,.022.038.1.1,0,0,0,.035.026.127.127,0,0,0,.05.01.167.167,0,0,0,.05-.006.185.185,0,0,0,.045-.021.209.209,0,0,0,.064-.064l.044-.254a.118.118,0,0,0-.017-.04.114.114,0,0,0-.026-.032.133.133,0,0,0-.035-.02.127.127,0,0,0-.044-.007.135.135,0,0,0-.078.019.177.177,0,0,0-.058.051.287.287,0,0,0-.039.071.376.376,0,0,0-.021.078l0,.01C10.866,10.326,10.865,10.342,10.864,10.358Z"/><path class="a" d="M11.417,10.04h.057l.1.431.005.029.014-.029.237-.431H11.9l-.3.528h-.047Z"/><path class="a" d="M12.021,9.857h.054l-.013.509,0,.067.023-.069.171-.507h.051l.014.517v.061l.019-.063.148-.515h.055l-.208.711h-.057l-.012-.534V9.98l-.017.053-.18.535h-.058Z"/><path class="a" d="M12.886,10.04l-.082.476h.174l-.009.052h-.413l.009-.052h.181l.074-.424h-.181l.008-.052Zm-.035-.176a.042.042,0,0,1,.032-.013.034.034,0,0,1,.031.012.043.043,0,0,1,.01.032.047.047,0,0,1-.014.031.04.04,0,0,1-.032.012.037.037,0,0,1-.03-.011.041.041,0,0,1-.011-.031A.05.05,0,0,1,12.851,9.864Z"/><path class="a" d="M13.174,10.236a.435.435,0,0,1,.025-.063.341.341,0,0,1,.036-.057.245.245,0,0,1,.046-.045.189.189,0,0,1,.056-.03.192.192,0,0,1,.069-.011.149.149,0,0,1,.047.007.143.143,0,0,1,.042.019.127.127,0,0,1,.028.024.124.124,0,0,1,.023.032l.053-.294h.057l-.13.75h-.053l.012-.067a.272.272,0,0,1-.03.029.25.25,0,0,1-.036.024.207.207,0,0,1-.047.018.224.224,0,0,1-.052.006.139.139,0,0,1-.063-.013.133.133,0,0,1-.046-.031.174.174,0,0,1-.031-.047.245.245,0,0,1-.018-.056.379.379,0,0,1-.007-.06q0-.03,0-.06l0-.01A.5.5,0,0,1,13.174,10.236Zm.038.122a.2.2,0,0,0,0,.049.212.212,0,0,0,.011.045.13.13,0,0,0,.022.038.092.092,0,0,0,.035.026.124.124,0,0,0,.05.01.167.167,0,0,0,.05-.006.185.185,0,0,0,.045-.021.307.307,0,0,0,.035-.028.326.326,0,0,0,.029-.036l.044-.254a.142.142,0,0,0-.017-.04.135.135,0,0,0-.026-.032.175.175,0,0,0-.035-.02.127.127,0,0,0-.044-.007.139.139,0,0,0-.079.019.177.177,0,0,0-.058.051.284.284,0,0,0-.038.071.376.376,0,0,0-.021.078l0,.01A.242.242,0,0,0,13.212,10.358Z"/><path class="a" d="M14,10.04h.19l-.008.048h-.19l-.057.331a.133.133,0,0,0,0,.045.073.073,0,0,0,.016.033.074.074,0,0,0,.03.021.132.132,0,0,0,.043.008.232.232,0,0,0,.046,0l.046-.006.006.045a.237.237,0,0,1-.054.013.357.357,0,0,1-.056,0,.172.172,0,0,1-.063-.013.121.121,0,0,1-.045-.031.138.138,0,0,1-.025-.05.227.227,0,0,1,0-.065l.057-.331h-.143l.008-.048h.142l.024-.135h.058Z"/><path class="a" d="M14.469,10.1a.267.267,0,0,1,.046-.037.2.2,0,0,1,.051-.023.185.185,0,0,1,.058-.009.162.162,0,0,1,.074.017.146.146,0,0,1,.048.044.187.187,0,0,1,.022.064.322.322,0,0,1,0,.076l-.057.337h-.058l.058-.338a.263.263,0,0,0,0-.056.113.113,0,0,0-.015-.048.1.1,0,0,0-.033-.032.116.116,0,0,0-.056-.012.177.177,0,0,0-.056.009.286.286,0,0,0-.052.027.273.273,0,0,0-.044.039.207.207,0,0,0-.031.048l-.063.363H14.3l.13-.75h.057l-.059.325A.319.319,0,0,1,14.469,10.1Z"/><path class="a" d="M15.079,10.492a.044.044,0,0,1,.035-.015.043.043,0,0,1,.035.013.046.046,0,0,1,.012.035.051.051,0,0,1-.015.036.057.057,0,0,1-.037.014.05.05,0,0,1-.033-.014.048.048,0,0,1-.013-.034A.054.054,0,0,1,15.079,10.492Z"/><path class="a" d="M15.523,10.236a.345.345,0,0,1,.025-.063.336.336,0,0,1,.035-.057.223.223,0,0,1,.046-.046.257.257,0,0,1,.057-.03.184.184,0,0,1,.068-.01.161.161,0,0,1,.049.007.147.147,0,0,1,.042.02.168.168,0,0,1,.029.025.151.151,0,0,1,.022.032l.016-.074h.055l-.089.519a.354.354,0,0,1-.028.087.257.257,0,0,1-.051.07.217.217,0,0,1-.161.063.2.2,0,0,1-.1-.025.207.207,0,0,1-.072-.066l.035-.036a.2.2,0,0,0,.056.056.13.13,0,0,0,.075.021.168.168,0,0,0,.123-.048.217.217,0,0,0,.038-.054.239.239,0,0,0,.023-.065l.012-.059a.384.384,0,0,1-.03.028.233.233,0,0,1-.035.023.207.207,0,0,1-.047.018.224.224,0,0,1-.052.006.145.145,0,0,1-.063-.013.129.129,0,0,1-.045-.031.156.156,0,0,1-.032-.047.306.306,0,0,1-.017-.056.235.235,0,0,1-.007-.06.4.4,0,0,1,0-.06l0-.01A.5.5,0,0,1,15.523,10.236Zm.038.122a.264.264,0,0,0,0,.049.228.228,0,0,0,.011.045.133.133,0,0,0,.023.038.079.079,0,0,0,.035.026.141.141,0,0,0,.049.011.252.252,0,0,0,.048-.006.148.148,0,0,0,.042-.02.219.219,0,0,0,.039-.029.379.379,0,0,0,.031-.039l.043-.249a.128.128,0,0,0-.015-.04.191.191,0,0,0-.024-.032.134.134,0,0,0-.036-.022.121.121,0,0,0-.046-.008.135.135,0,0,0-.079.019.177.177,0,0,0-.058.051.258.258,0,0,0-.039.071.376.376,0,0,0-.021.078l0,.01A.359.359,0,0,0,15.561,10.358Z"/><path class="a" d="M16.192,10.554a.193.193,0,0,1-.066-.061.212.212,0,0,1-.033-.08.263.263,0,0,1,0-.093l0-.022a.528.528,0,0,1,.016-.066.4.4,0,0,1,.072-.119.358.358,0,0,1,.051-.044.316.316,0,0,1,.062-.029.23.23,0,0,1,.069-.01.175.175,0,0,1,.087.022.144.144,0,0,1,.058.054.242.242,0,0,1,.029.078.259.259,0,0,1,0,.088l-.005.036h-.383a.259.259,0,0,0,0,.083.156.156,0,0,0,.025.071.144.144,0,0,0,.048.047.151.151,0,0,0,.072.019.206.206,0,0,0,.089-.019.289.289,0,0,0,.075-.052l.033.028a.229.229,0,0,1-.09.07.249.249,0,0,1-.111.023A.184.184,0,0,1,16.192,10.554Zm.1-.459a.256.256,0,0,0-.059.04.3.3,0,0,0-.043.057.392.392,0,0,0-.031.066h.324v-.007a.185.185,0,0,0,0-.062.142.142,0,0,0-.021-.054.127.127,0,0,0-.041-.039.12.12,0,0,0-.061-.015A.151.151,0,0,0,16.289,10.1Z"/><path class="a" d="M16.934,10.04h.189l-.008.048h-.19l-.057.331a.133.133,0,0,0,0,.045.073.073,0,0,0,.016.033.074.074,0,0,0,.03.021.132.132,0,0,0,.043.008.232.232,0,0,0,.046,0l.047-.006.005.045a.237.237,0,0,1-.054.013.351.351,0,0,1-.056,0,.172.172,0,0,1-.063-.013.121.121,0,0,1-.045-.031.124.124,0,0,1-.025-.05.2.2,0,0,1,0-.065l.056-.331h-.142l.007-.048h.143L16.9,9.9h.059Z"/><path class="a" d="M17.4,10.186a.872.872,0,0,1,.031-.1.716.716,0,0,1,.041-.095.63.63,0,0,1,.053-.087.479.479,0,0,1,.067-.075.391.391,0,0,1,.081-.059l.01.041a.428.428,0,0,0-.1.093.609.609,0,0,0-.07.115.82.82,0,0,0-.048.128.777.777,0,0,0-.028.132l0,.01c0,.024-.007.051-.01.078s0,.056,0,.085a.636.636,0,0,0,.006.087.584.584,0,0,0,.018.083.363.363,0,0,0,.033.075.242.242,0,0,0,.053.062l-.017.037a.264.264,0,0,1-.065-.064.438.438,0,0,1-.043-.08.485.485,0,0,1-.026-.089.716.716,0,0,1-.012-.093.725.725,0,0,1,0-.093c0-.031.005-.061.009-.088v-.008C17.383,10.25,17.39,10.218,17.4,10.186Z"/><path class="a" d="M18.1,10.52a.18.18,0,0,0,.05-.025.176.176,0,0,0,.038-.039.2.2,0,0,0,.024-.051h.055a.206.206,0,0,1-.029.072.222.222,0,0,1-.052.054.244.244,0,0,1-.068.035.225.225,0,0,1-.077.012.174.174,0,0,1-.067-.012.158.158,0,0,1-.052-.032.168.168,0,0,1-.036-.047.27.27,0,0,1-.023-.058.331.331,0,0,1-.006-.056.375.375,0,0,1,0-.058l0-.021a.392.392,0,0,1,.031-.1.341.341,0,0,1,.054-.085.256.256,0,0,1,.079-.059.236.236,0,0,1,.1-.021.212.212,0,0,1,.074.015.18.18,0,0,1,.057.039.164.164,0,0,1,.035.06.2.2,0,0,1,.01.074h-.055a.16.16,0,0,0-.006-.054.116.116,0,0,0-.023-.044.124.124,0,0,0-.094-.04.21.21,0,0,0-.056.008.2.2,0,0,0-.046.024.255.255,0,0,0-.038.035.352.352,0,0,0-.03.045.372.372,0,0,0-.02.05.247.247,0,0,0-.013.052l0,.021a.389.389,0,0,0,0,.049.261.261,0,0,0,0,.048.215.215,0,0,0,.014.045.113.113,0,0,0,.024.036.118.118,0,0,0,.037.026.136.136,0,0,0,.051.009A.154.154,0,0,0,18.1,10.52Z"/><path class="a" d="M18.518,10.559a.118.118,0,0,1-.046-.048.17.17,0,0,1-.022-.069.331.331,0,0,1,0-.077l.056-.325h.056l-.054.326a.269.269,0,0,0,0,.057.165.165,0,0,0,.011.051.087.087,0,0,0,.031.038.1.1,0,0,0,.055.014.172.172,0,0,0,.056-.007.194.194,0,0,0,.053-.023.2.2,0,0,0,.041-.036.205.205,0,0,0,.029-.047l.065-.373h.058l-.092.528H18.76l.014-.083a.234.234,0,0,1-.078.069.209.209,0,0,1-.1.024A.144.144,0,0,1,18.518,10.559Z"/><path class="a" d="M19.469,10.032l.039.009-.014.056-.039-.007a.254.254,0,0,0-.106.006.252.252,0,0,0-.061.025.213.213,0,0,0-.054.046.223.223,0,0,0-.039.063l-.057.338h-.06l.092-.528h.055l-.013.08,0,.025a.3.3,0,0,1,.044-.049.346.346,0,0,1,.052-.036.267.267,0,0,1,.059-.023.29.29,0,0,1,.066-.007Z"/><path class="a" d="M20.056,10.032l.039.009-.014.056-.039-.007a.256.256,0,0,0-.039,0,.262.262,0,0,0-.128.034.2.2,0,0,0-.054.046.223.223,0,0,0-.039.063l-.057.338h-.06l.092-.528h.055l-.013.08,0,.025a.277.277,0,0,1,.1-.085.267.267,0,0,1,.059-.023.29.29,0,0,1,.066-.007Z"/><path class="a" d="M20.3,10.554a.188.188,0,0,1-.067-.061.25.25,0,0,1-.033-.08.263.263,0,0,1,0-.093l0-.022a.4.4,0,0,1,.018-.066.36.36,0,0,1,.029-.063.365.365,0,0,1,.041-.056.326.326,0,0,1,.053-.044.256.256,0,0,1,.06-.029.234.234,0,0,1,.071-.01.18.18,0,0,1,.086.022.148.148,0,0,1,.057.054.2.2,0,0,1,.03.078.369.369,0,0,1,0,.088l-.006.036h-.382a.235.235,0,0,0,0,.083.2.2,0,0,0,.025.071.142.142,0,0,0,.12.066.2.2,0,0,0,.089-.019.242.242,0,0,0,.074-.052l.036.028a.256.256,0,0,1-.091.07.249.249,0,0,1-.111.023A.181.181,0,0,1,20.3,10.554Zm.1-.459a.2.2,0,0,0-.056.04.276.276,0,0,0-.045.057.322.322,0,0,0-.03.066h.323l0-.007a.162.162,0,0,0,0-.062.127.127,0,0,0-.021-.054.113.113,0,0,0-.042-.039.109.109,0,0,0-.058-.015A.159.159,0,0,0,20.4,10.1Z"/><path class="a" d="M20.852,10.04H20.9l-.017.1a.274.274,0,0,1,.038-.045.2.2,0,0,1,.045-.036.238.238,0,0,1,.051-.024.232.232,0,0,1,.058-.008.162.162,0,0,1,.074.017.133.133,0,0,1,.047.044.164.164,0,0,1,.024.064.284.284,0,0,1,0,.077l-.057.336h-.058l.058-.338a.212.212,0,0,0,0-.056.117.117,0,0,0-.014-.048.081.081,0,0,0-.034-.032.106.106,0,0,0-.056-.012.154.154,0,0,0-.056.01.172.172,0,0,0-.052.027.21.21,0,0,0-.044.04.207.207,0,0,0-.031.048l-.063.361h-.056Z"/><path class="a" d="M21.629,10.04h.189l-.007.048H21.62l-.057.331a.218.218,0,0,0,0,.045.073.073,0,0,0,.016.033.081.081,0,0,0,.03.021.137.137,0,0,0,.043.008.227.227,0,0,0,.046,0l.047-.006.005.045a.237.237,0,0,1-.054.013.338.338,0,0,1-.055,0,.178.178,0,0,1-.064-.013.129.129,0,0,1-.045-.031.123.123,0,0,1-.024-.05.173.173,0,0,1,0-.065l.056-.331H21.42l.008-.048h.142l.024-.135h.058Z"/><path class="a" d="M22.364,10.44a.261.261,0,0,1-.054.072.283.283,0,0,1-.077.05.233.233,0,0,1-.093.016.186.186,0,0,1-.073-.015.152.152,0,0,1-.052-.038.155.155,0,0,1-.036-.054.254.254,0,0,1-.021-.066.336.336,0,0,1-.008-.071.536.536,0,0,1,0-.07l.017-.1a.68.68,0,0,1,.018-.075.382.382,0,0,1,.031-.072.323.323,0,0,1,.04-.066.266.266,0,0,1,.053-.053.257.257,0,0,1,.065-.036.22.22,0,0,1,.078-.012.172.172,0,0,1,.146.068.2.2,0,0,1,.035.072.31.31,0,0,1,.012.087h-.056a.284.284,0,0,0-.008-.066.19.19,0,0,0-.024-.056.127.127,0,0,0-.043-.04.117.117,0,0,0-.064-.016.187.187,0,0,0-.064.011.2.2,0,0,0-.051.031.222.222,0,0,0-.041.046.386.386,0,0,0-.032.056c-.008.02-.016.04-.023.06a.513.513,0,0,0-.014.06l-.017.1a.446.446,0,0,0-.006.054.375.375,0,0,0,0,.058.266.266,0,0,0,.012.056.123.123,0,0,0,.025.048.117.117,0,0,0,.039.034.127.127,0,0,0,.058.013.171.171,0,0,0,.072-.013.2.2,0,0,0,.056-.039.214.214,0,0,0,.043-.056.357.357,0,0,0,.029-.067H22.4A.317.317,0,0,1,22.364,10.44Z"/><path class="a" d="M22.687,10.1a.227.227,0,0,1,.045-.037.2.2,0,0,1,.051-.023.192.192,0,0,1,.059-.009.165.165,0,0,1,.074.017.142.142,0,0,1,.047.044.168.168,0,0,1,.022.064.322.322,0,0,1,0,.076l-.057.337h-.057l.057-.338a.212.212,0,0,0,0-.056.114.114,0,0,0-.016-.048.092.092,0,0,0-.033-.032.115.115,0,0,0-.055-.012.177.177,0,0,0-.056.009.213.213,0,0,0-.052.027.236.236,0,0,0-.044.039.157.157,0,0,0-.031.048l-.064.363h-.058l.13-.75h.058l-.06.325A.267.267,0,0,1,22.687,10.1Z"/><path class="a" d="M23.462,10.529c0-.013,0-.026,0-.039a.26.26,0,0,1-.035.032.227.227,0,0,1-.04.026.239.239,0,0,1-.058.022.215.215,0,0,1-.062.008.2.2,0,0,1-.061-.011.159.159,0,0,1-.049-.029.131.131,0,0,1-.032-.047.12.12,0,0,1-.007-.061.171.171,0,0,1,.016-.058.148.148,0,0,1,.034-.044.189.189,0,0,1,.046-.032.366.366,0,0,1,.053-.021c.019-.005.039-.008.058-.011l.058,0H23.5l.01-.06a.112.112,0,0,0,0-.052.087.087,0,0,0-.025-.038.088.088,0,0,0-.039-.023.138.138,0,0,0-.05-.008.157.157,0,0,0-.053.006.171.171,0,0,0-.046.019.178.178,0,0,0-.038.034.115.115,0,0,0-.023.047h-.057a.154.154,0,0,1,.028-.067.226.226,0,0,1,.053-.049.218.218,0,0,1,.066-.029.267.267,0,0,1,.073-.01.219.219,0,0,1,.073.012.157.157,0,0,1,.056.033.139.139,0,0,1,.036.055.154.154,0,0,1,0,.072l-.043.256a.3.3,0,0,0,0,.052.461.461,0,0,0,0,.052v.006h-.059A.17.17,0,0,1,23.462,10.529Zm-.125-.009a.311.311,0,0,0,.053-.022.279.279,0,0,0,.046-.033.4.4,0,0,0,.038-.043l.019-.116h-.1l-.054,0a.335.335,0,0,0-.055.011.267.267,0,0,0-.036.014.127.127,0,0,0-.031.02.1.1,0,0,0-.039.07.076.076,0,0,0,0,.043.085.085,0,0,0,.021.032.121.121,0,0,0,.033.02.194.194,0,0,0,.042.007A.278.278,0,0,0,23.337,10.52Z"/><path class="a" d="M24.164,10.032a.246.246,0,0,1,.039.009l-.014.056-.039-.007a.247.247,0,0,0-.039,0,.257.257,0,0,0-.067.009.252.252,0,0,0-.061.025.193.193,0,0,0-.053.046.186.186,0,0,0-.039.063l-.058.338h-.06l.092-.528h.055l-.013.08,0,.025a.354.354,0,0,1,.044-.049A.346.346,0,0,1,24,10.06a.275.275,0,0,1,.06-.023.281.281,0,0,1,.065-.007Z"/><path class="a" d="M24.6,10.433a.853.853,0,0,1-.057.143.617.617,0,0,1-.086.127.424.424,0,0,1-.116.1l-.011-.039a.455.455,0,0,0,.1-.093.625.625,0,0,0,.07-.117.82.82,0,0,0,.048-.128.915.915,0,0,0,.028-.132l0-.01c0-.025.007-.05.009-.078a.6.6,0,0,0,0-.085.636.636,0,0,0-.006-.087.734.734,0,0,0-.017-.084.391.391,0,0,0-.034-.075.251.251,0,0,0-.052-.061l.017-.038a.3.3,0,0,1,.064.065.433.433,0,0,1,.044.079.612.612,0,0,1,.025.089.734.734,0,0,1,.014.094q0,.048,0,.093c0,.032,0,.061-.009.089v.007A1.212,1.212,0,0,1,24.6,10.433Z"/><path class="a" d="M3.28,11.554a.188.188,0,0,1-.067-.061.25.25,0,0,1-.033-.08.263.263,0,0,1,0-.093l0-.022a.4.4,0,0,1,.016-.066.364.364,0,0,1,.03-.063.372.372,0,0,1,.042-.056.31.31,0,0,1,.051-.044.284.284,0,0,1,.061-.029.237.237,0,0,1,.07-.01.181.181,0,0,1,.087.022.148.148,0,0,1,.057.054.244.244,0,0,1,.03.078.323.323,0,0,1,0,.088l-.006.036H3.236a.235.235,0,0,0,0,.083.183.183,0,0,0,.025.071.157.157,0,0,0,.049.047.147.147,0,0,0,.071.019.2.2,0,0,0,.089-.019.259.259,0,0,0,.075-.052l.034.028a.244.244,0,0,1-.09.07.249.249,0,0,1-.111.023A.181.181,0,0,1,3.28,11.554Zm.1-.459a.214.214,0,0,0-.058.04.309.309,0,0,0-.044.057.386.386,0,0,0-.03.066h.323l0-.007a.162.162,0,0,0,0-.062.127.127,0,0,0-.021-.054.118.118,0,0,0-.041-.039.116.116,0,0,0-.06-.015A.151.151,0,0,0,3.376,11.1Z"/><path class="a" d="M4.122,10.818l-.121.7h.173l-.008.052H3.752l.01-.052h.181l.113-.645H3.874l.008-.053Z"/><path class="a" d="M4.454,11.554a.188.188,0,0,1-.067-.061.229.229,0,0,1-.033-.08.263.263,0,0,1,0-.093l0-.022a.317.317,0,0,1,.016-.066.364.364,0,0,1,.03-.063.446.446,0,0,1,.041-.056.367.367,0,0,1,.052-.044.284.284,0,0,1,.061-.029.237.237,0,0,1,.07-.01.174.174,0,0,1,.086.022.144.144,0,0,1,.058.054.221.221,0,0,1,.029.078.259.259,0,0,1,0,.088l0,.036H4.41a.235.235,0,0,0,0,.083.183.183,0,0,0,.025.071.144.144,0,0,0,.048.047.148.148,0,0,0,.072.019.2.2,0,0,0,.089-.019.289.289,0,0,0,.075-.052l.034.028a.244.244,0,0,1-.09.07.253.253,0,0,1-.112.023A.178.178,0,0,1,4.454,11.554Zm.1-.459a.214.214,0,0,0-.058.04.271.271,0,0,0-.044.057.49.49,0,0,0-.031.066h.324l0-.007a.162.162,0,0,0,0-.062.142.142,0,0,0-.021-.054.127.127,0,0,0-.041-.039.116.116,0,0,0-.06-.015A.151.151,0,0,0,4.55,11.1Z"/><path class="a" d="M5,11.1a.194.194,0,0,1,.052-.051.133.133,0,0,1,.07-.019.122.122,0,0,1,.034,0,.084.084,0,0,1,.028.015.077.077,0,0,1,.019.021.083.083,0,0,1,.01.029.213.213,0,0,1,.054-.05.142.142,0,0,1,.071-.019.091.091,0,0,1,.052.013.078.078,0,0,1,.032.033.112.112,0,0,1,.013.046.244.244,0,0,1,0,.054l-.067.392H5.309l.066-.393a.206.206,0,0,0,0-.034.1.1,0,0,0-.006-.031.066.066,0,0,0-.02-.021.056.056,0,0,0-.034-.007.093.093,0,0,0-.037.006.111.111,0,0,0-.03.017.127.127,0,0,0-.025.027c-.006.011-.011.02-.015.029l-.07.407H5.086l.068-.4a.185.185,0,0,0,0-.033.088.088,0,0,0-.007-.029.046.046,0,0,0-.02-.019.058.058,0,0,0-.032-.007.11.11,0,0,0-.037.006.192.192,0,0,0-.031.018.2.2,0,0,0-.023.027.341.341,0,0,0-.017.033l-.07.4H4.864l.092-.528h.051Z"/><path class="a" d="M5.627,11.554a.193.193,0,0,1-.066-.061.212.212,0,0,1-.033-.08.288.288,0,0,1,0-.093l0-.022a.4.4,0,0,1,.017-.066.364.364,0,0,1,.03-.063.446.446,0,0,1,.041-.056.367.367,0,0,1,.052-.044.284.284,0,0,1,.061-.029.232.232,0,0,1,.07-.01.174.174,0,0,1,.086.022.144.144,0,0,1,.058.054.221.221,0,0,1,.029.078.259.259,0,0,1,0,.088l0,.036H5.583a.259.259,0,0,0,0,.083.183.183,0,0,0,.025.071.144.144,0,0,0,.048.047.148.148,0,0,0,.072.019.2.2,0,0,0,.089-.019.289.289,0,0,0,.075-.052l.034.028a.24.24,0,0,1-.091.07.249.249,0,0,1-.111.023A.184.184,0,0,1,5.627,11.554Zm.1-.459a.214.214,0,0,0-.058.04.271.271,0,0,0-.044.057.392.392,0,0,0-.031.066h.324l0-.007a.215.215,0,0,0,0-.062.142.142,0,0,0-.021-.054.121.121,0,0,0-.042-.039.113.113,0,0,0-.059-.015A.151.151,0,0,0,5.724,11.1Z"/><path class="a" d="M6.178,11.04h.053l-.018.1a.334.334,0,0,1,.038-.045.254.254,0,0,1,.045-.036.245.245,0,0,1,.052-.024.22.22,0,0,1,.058-.008.162.162,0,0,1,.074.017.125.125,0,0,1,.047.044.163.163,0,0,1,.023.064.284.284,0,0,1,0,.077l-.056.336H6.435l.058-.338a.265.265,0,0,0,0-.056.118.118,0,0,0-.015-.048.085.085,0,0,0-.033-.032.106.106,0,0,0-.056-.012.163.163,0,0,0-.057.01.179.179,0,0,0-.051.027.238.238,0,0,0-.044.04.207.207,0,0,0-.031.048l-.062.361H6.087Z"/><path class="a" d="M6.955,11.04h.19l-.008.048h-.19l-.057.331a.133.133,0,0,0,0,.045.073.073,0,0,0,.016.033.074.074,0,0,0,.03.021.132.132,0,0,0,.043.008.232.232,0,0,0,.046,0l.046-.006.006.045a.237.237,0,0,1-.054.013.357.357,0,0,1-.056,0,.172.172,0,0,1-.063-.013.121.121,0,0,1-.045-.031.138.138,0,0,1-.025-.05.227.227,0,0,1,0-.065l.057-.331H6.746l.008-.048H6.9l.024-.135h.059Z"/><path class="a" d="M7.286,11.373l.008-.053h.424l-.009.053Zm.034-.2.01-.052h.422l-.008.052Z"/><path class="a" d="M7.892,11.236a.365.365,0,0,1,.061-.12A.218.218,0,0,1,8,11.071a.189.189,0,0,1,.056-.03.192.192,0,0,1,.069-.011.143.143,0,0,1,.046.007.123.123,0,0,1,.042.019.132.132,0,0,1,.029.024.154.154,0,0,1,.023.032l.052-.294h.058l-.13.75H8.191L8.2,11.5a.213.213,0,0,1-.031.029.2.2,0,0,1-.035.024.215.215,0,0,1-.048.018.21.21,0,0,1-.051.006.139.139,0,0,1-.063-.013.133.133,0,0,1-.046-.031.174.174,0,0,1-.031-.047.245.245,0,0,1-.018-.056.29.29,0,0,1-.007-.06q0-.03,0-.06V11.3C7.881,11.279,7.886,11.258,7.892,11.236Zm.038.122a.2.2,0,0,0,0,.049.165.165,0,0,0,.011.045.13.13,0,0,0,.022.038A.088.088,0,0,0,8,11.516a.131.131,0,0,0,.05.01A.174.174,0,0,0,8.1,11.52a.2.2,0,0,0,.045-.021.307.307,0,0,0,.035-.028.317.317,0,0,0,.028-.036l.045-.254a.142.142,0,0,0-.017-.04.118.118,0,0,0-.027-.032.133.133,0,0,0-.035-.02.121.121,0,0,0-.043-.007.139.139,0,0,0-.079.019A.177.177,0,0,0,8,11.152a.255.255,0,0,0-.038.071.283.283,0,0,0-.021.078l0,.01A.242.242,0,0,0,7.93,11.358Z"/><path class="a" d="M8.483,11.2a.351.351,0,0,1,.059-.087.269.269,0,0,1,.079-.058.237.237,0,0,1,.1-.021.249.249,0,0,1,.069.012.179.179,0,0,1,.052.031.2.2,0,0,1,.034.042.2.2,0,0,1,.023.051.227.227,0,0,1,.012.063.3.3,0,0,1,0,.067l0,.016a.353.353,0,0,1-.03.1.339.339,0,0,1-.057.086.3.3,0,0,1-.08.06.233.233,0,0,1-.1.021.2.2,0,0,1-.071-.013.161.161,0,0,1-.053-.034.157.157,0,0,1-.032-.04.184.184,0,0,1-.022-.047.26.26,0,0,1-.012-.063.3.3,0,0,1,0-.067l0-.016A.373.373,0,0,1,8.483,11.2Zm.023.194a.227.227,0,0,0,.022.071.124.124,0,0,0,.043.048.128.128,0,0,0,.07.019.155.155,0,0,0,.08-.018.231.231,0,0,0,.062-.05.289.289,0,0,0,.044-.072.33.33,0,0,0,.024-.076l0-.016a.366.366,0,0,0,0-.081.176.176,0,0,0-.025-.073.129.129,0,0,0-.043-.044.128.128,0,0,0-.065-.018.163.163,0,0,0-.08.019.2.2,0,0,0-.062.05.273.273,0,0,0-.044.071.388.388,0,0,0-.024.078l0,.016A.321.321,0,0,0,8.506,11.39Z"/><path class="a" d="M9.292,11.52a.174.174,0,0,0,.049-.025.141.141,0,0,0,.038-.039.173.173,0,0,0,.025-.051h.054a.187.187,0,0,1-.028.072.209.209,0,0,1-.053.054.238.238,0,0,1-.067.035.225.225,0,0,1-.077.012.179.179,0,0,1-.12-.044.165.165,0,0,1-.035-.047.225.225,0,0,1-.022-.058.252.252,0,0,1-.008-.056.376.376,0,0,1,0-.058l0-.021a.387.387,0,0,1,.029-.1.376.376,0,0,1,.055-.085.256.256,0,0,1,.079-.059.236.236,0,0,1,.1-.021.217.217,0,0,1,.075.015.176.176,0,0,1,.056.039.179.179,0,0,1,.035.06.2.2,0,0,1,.01.074H9.438a.16.16,0,0,0-.006-.054.108.108,0,0,0-.063-.073.153.153,0,0,0-.054-.011.2.2,0,0,0-.056.008.232.232,0,0,0-.047.024.247.247,0,0,0-.037.035.266.266,0,0,0-.029.045.221.221,0,0,0-.021.05.334.334,0,0,0-.014.052l0,.021a.263.263,0,0,0,0,.1.169.169,0,0,0,.014.045.113.113,0,0,0,.024.036.108.108,0,0,0,.037.026.136.136,0,0,0,.051.009A.154.154,0,0,0,9.292,11.52Z"/><path class="a" d="M9.713,11.559a.132.132,0,0,1-.046-.048.186.186,0,0,1-.021-.069.4.4,0,0,1,0-.077L9.7,11.04H9.76l-.055.326a.269.269,0,0,0,0,.057.123.123,0,0,0,.011.051.085.085,0,0,0,.03.038.1.1,0,0,0,.055.014.178.178,0,0,0,.057-.007.187.187,0,0,0,.052-.023.2.2,0,0,0,.042-.036.205.205,0,0,0,.029-.047l.064-.373H10.1l-.092.528H9.956l.015-.083a.259.259,0,0,1-.079.069.209.209,0,0,1-.1.024A.15.15,0,0,1,9.713,11.559Z"/><path class="a" d="M10.277,11.1a.184.184,0,0,1,.053-.051.129.129,0,0,1,.069-.019.122.122,0,0,1,.034,0,.084.084,0,0,1,.028.015.064.064,0,0,1,.019.021.11.11,0,0,1,.011.029.194.194,0,0,1,.053-.05.142.142,0,0,1,.071-.019.091.091,0,0,1,.052.013.078.078,0,0,1,.032.033.1.1,0,0,1,.013.046.244.244,0,0,1,0,.054l-.067.392h-.054l.067-.393c0-.012,0-.024,0-.034a.094.094,0,0,0-.007-.031.066.066,0,0,0-.02-.021.054.054,0,0,0-.033-.007.1.1,0,0,0-.038.006.111.111,0,0,0-.03.017.127.127,0,0,0-.025.027.188.188,0,0,0-.014.029l-.071.407h-.054l.068-.4a.123.123,0,0,0,0-.033.069.069,0,0,0-.007-.029.05.05,0,0,0-.019-.019.062.062,0,0,0-.033-.007.115.115,0,0,0-.037.006.149.149,0,0,0-.03.018.118.118,0,0,0-.023.027.148.148,0,0,0-.017.033l-.071.4h-.054l.092-.528h.051Z"/><path class="a" d="M10.91,11.554a.188.188,0,0,1-.067-.061.229.229,0,0,1-.033-.08.263.263,0,0,1,0-.093l0-.022a.317.317,0,0,1,.016-.066.364.364,0,0,1,.03-.063.446.446,0,0,1,.041-.056.367.367,0,0,1,.052-.044.284.284,0,0,1,.061-.029.237.237,0,0,1,.07-.01.181.181,0,0,1,.087.022.148.148,0,0,1,.057.054.221.221,0,0,1,.029.078.259.259,0,0,1,0,.088l-.005.036h-.382a.235.235,0,0,0,0,.083.183.183,0,0,0,.025.071.147.147,0,0,0,.049.047.144.144,0,0,0,.071.019.2.2,0,0,0,.089-.019.273.273,0,0,0,.075-.052l.034.028a.244.244,0,0,1-.09.07.253.253,0,0,1-.112.023A.18.18,0,0,1,10.91,11.554Zm.1-.459a.214.214,0,0,0-.058.04.309.309,0,0,0-.044.057.386.386,0,0,0-.03.066H11.2l0-.007a.162.162,0,0,0,0-.062.142.142,0,0,0-.021-.054.127.127,0,0,0-.041-.039.116.116,0,0,0-.06-.015A.151.151,0,0,0,11.006,11.1Z"/><path class="a" d="M11.46,11.04h.053l-.017.1a.274.274,0,0,1,.038-.045.2.2,0,0,1,.045-.036.238.238,0,0,1,.051-.024.22.22,0,0,1,.058-.008.162.162,0,0,1,.074.017.136.136,0,0,1,.048.044.162.162,0,0,1,.022.064.331.331,0,0,1,0,.077l-.057.336h-.058l.058-.338a.265.265,0,0,0,0-.056.117.117,0,0,0-.014-.048.088.088,0,0,0-.034-.032.106.106,0,0,0-.056-.012.154.154,0,0,0-.056.01.172.172,0,0,0-.052.027.238.238,0,0,0-.044.04.207.207,0,0,0-.031.048l-.062.361h-.058Z"/><path class="a" d="M12.237,11.04h.19l-.008.048h-.19l-.057.331a.133.133,0,0,0,0,.045.085.085,0,0,0,.016.033.081.081,0,0,0,.03.021.137.137,0,0,0,.043.008.248.248,0,0,0,.047,0l.045-.006.006.045a.237.237,0,0,1-.054.013.351.351,0,0,1-.056,0,.181.181,0,0,1-.063-.013.11.11,0,0,1-.044-.031.124.124,0,0,1-.025-.05.2.2,0,0,1,0-.065l.057-.331h-.143l.008-.048h.143l.024-.135h.058Z"/><path class="a" d="M12.731,11.492a.043.043,0,0,1,.036-.015.042.042,0,0,1,.034.013.046.046,0,0,1,.012.035.045.045,0,0,1-.016.036.052.052,0,0,1-.035.014.05.05,0,0,1-.034-.014.044.044,0,0,1-.012-.034A.049.049,0,0,1,12.731,11.492Z"/><path class="a" d="M13.175,11.235a.435.435,0,0,1,.025-.063.352.352,0,0,1,.035-.056.25.25,0,0,1,.046-.046.219.219,0,0,1,.057-.029.192.192,0,0,1,.069-.011.176.176,0,0,1,.046.006.189.189,0,0,1,.041.018.176.176,0,0,1,.03.024.157.157,0,0,1,.024.032l.016-.07h.054l-.126.731h-.058l.049-.265a.289.289,0,0,1-.032.029l-.037.022a.218.218,0,0,1-.045.016.252.252,0,0,1-.048,0,.139.139,0,0,1-.063-.013.133.133,0,0,1-.046-.031.165.165,0,0,1-.032-.046.262.262,0,0,1-.018-.056.308.308,0,0,1-.006-.061.3.3,0,0,1,0-.06V11.3Q13.166,11.268,13.175,11.235Zm.037.123a.391.391,0,0,0,0,.049.239.239,0,0,0,.012.046.122.122,0,0,0,.022.038.106.106,0,0,0,.035.027.137.137,0,0,0,.049.01.145.145,0,0,0,.047-.007.127.127,0,0,0,.043-.018.168.168,0,0,0,.037-.027.264.264,0,0,0,.031-.037l.047-.262a.148.148,0,0,0-.018-.038.13.13,0,0,0-.026-.031.158.158,0,0,0-.036-.02.142.142,0,0,0-.042-.008.169.169,0,0,0-.056.009.186.186,0,0,0-.046.025.242.242,0,0,0-.038.04.3.3,0,0,0-.028.049.343.343,0,0,0-.019.048c0,.017-.008.034-.011.05l0,.01C13.214,11.326,13.213,11.342,13.212,11.358Z"/><path class="a" d="M13.822,11.559a.125.125,0,0,1-.046-.048.187.187,0,0,1-.022-.069.4.4,0,0,1,0-.077l.056-.325h.057l-.055.326a.269.269,0,0,0,0,.057.141.141,0,0,0,.011.051.1.1,0,0,0,.031.038.1.1,0,0,0,.055.014.186.186,0,0,0,.057-.007.2.2,0,0,0,.052-.023.2.2,0,0,0,.041-.036.175.175,0,0,0,.029-.047l.065-.373h.058l-.091.528h-.054l.015-.083a.248.248,0,0,1-.079.069.209.209,0,0,1-.1.024A.144.144,0,0,1,13.822,11.559Z"/><path class="a" d="M14.431,11.554a.193.193,0,0,1-.066-.061.212.212,0,0,1-.033-.08.263.263,0,0,1-.005-.093l0-.022a.321.321,0,0,1,.017-.066.3.3,0,0,1,.029-.063.454.454,0,0,1,.042-.056.367.367,0,0,1,.052-.044.263.263,0,0,1,.061-.029.228.228,0,0,1,.07-.01.177.177,0,0,1,.086.022.158.158,0,0,1,.058.054.221.221,0,0,1,.029.078.288.288,0,0,1,0,.088l-.005.036h-.383a.294.294,0,0,0,0,.083.185.185,0,0,0,.026.071.144.144,0,0,0,.048.047.148.148,0,0,0,.072.019.206.206,0,0,0,.089-.019.268.268,0,0,0,.074-.052l.035.028a.24.24,0,0,1-.091.07.249.249,0,0,1-.111.023A.184.184,0,0,1,14.431,11.554Zm.1-.459a.226.226,0,0,0-.057.04.314.314,0,0,0-.045.057.482.482,0,0,0-.03.066h.324v-.007a.185.185,0,0,0,0-.062.16.16,0,0,0-.021-.054.131.131,0,0,0-.042-.039.113.113,0,0,0-.059-.015A.157.157,0,0,0,14.527,11.1Z"/><path class="a" d="M15.36,11.032a.246.246,0,0,1,.039.009l-.013.056-.039-.007-.039,0a.259.259,0,0,0-.068.009.245.245,0,0,0-.06.025.217.217,0,0,0-.055.046.221.221,0,0,0-.038.063l-.058.338H14.97l.092-.528h.054l-.012.08,0,.025a.23.23,0,0,1,.044-.049.3.3,0,0,1,.051-.036.257.257,0,0,1,.06-.023.281.281,0,0,1,.065-.007Z"/><path class="a" d="M15.7,11.48l.259-.44h.068l-.37.613a.525.525,0,0,1-.033.049.318.318,0,0,1-.041.041.2.2,0,0,1-.049.028.14.14,0,0,1-.058.011.106.106,0,0,1-.025,0l-.025,0,.011-.05.02,0h.02a.116.116,0,0,0,.042-.008.192.192,0,0,0,.035-.023c.011-.01.02-.02.03-.031a.364.364,0,0,0,.024-.035l.051-.082-.141-.511h.062l.111.418Z"/><path class="a" d="M16.469,11.334a.1.1,0,0,0-.03-.042.181.181,0,0,0-.05-.033l-.059-.025a.676.676,0,0,1-.069-.029.261.261,0,0,1-.061-.041.176.176,0,0,1-.042-.056.149.149,0,0,1-.011-.075.174.174,0,0,1,.028-.078.225.225,0,0,1,.056-.059.282.282,0,0,1,.076-.037.254.254,0,0,1,.082-.011.226.226,0,0,1,.082.016.2.2,0,0,1,.062.043.2.2,0,0,1,.039.066.217.217,0,0,1,.011.082h-.058a.237.237,0,0,0-.008-.061.147.147,0,0,0-.027-.049.11.11,0,0,0-.043-.033.156.156,0,0,0-.06-.013.22.22,0,0,0-.061.009.227.227,0,0,0-.055.025.153.153,0,0,0-.042.042.128.128,0,0,0-.022.057.08.08,0,0,0,.006.054.1.1,0,0,0,.03.04.2.2,0,0,0,.05.032.523.523,0,0,0,.057.023.6.6,0,0,1,.076.033.207.207,0,0,1,.06.044.156.156,0,0,1,.039.059.143.143,0,0,1,.009.073.186.186,0,0,1-.028.082.21.21,0,0,1-.057.058.259.259,0,0,1-.077.036.278.278,0,0,1-.171,0,.2.2,0,0,1-.068-.042.173.173,0,0,1-.045-.065.186.186,0,0,1-.014-.086h.057a.167.167,0,0,0,.012.065.134.134,0,0,0,.032.049.133.133,0,0,0,.05.031.183.183,0,0,0,.064.011.222.222,0,0,0,.063-.007.192.192,0,0,0,.056-.026.163.163,0,0,0,.044-.043.135.135,0,0,0,.023-.059A.091.091,0,0,0,16.469,11.334Z"/><path class="a" d="M16.779,11.554a.185.185,0,0,1-.066-.061.229.229,0,0,1-.033-.08.263.263,0,0,1,0-.093l0-.022a.533.533,0,0,1,.017-.066.364.364,0,0,1,.03-.063.309.309,0,0,1,.041-.056.318.318,0,0,1,.052-.044.263.263,0,0,1,.061-.029.228.228,0,0,1,.07-.01.177.177,0,0,1,.086.022.151.151,0,0,1,.058.054.221.221,0,0,1,.029.078.288.288,0,0,1,0,.088l-.006.036h-.382a.261.261,0,0,0,0,.083.185.185,0,0,0,.026.071.138.138,0,0,0,.049.047.144.144,0,0,0,.071.019.206.206,0,0,0,.089-.019.254.254,0,0,0,.074-.052l.035.028a.24.24,0,0,1-.091.07.249.249,0,0,1-.111.023A.186.186,0,0,1,16.779,11.554Zm.1-.459a.226.226,0,0,0-.057.04.314.314,0,0,0-.045.057.482.482,0,0,0-.03.066h.323l0-.007a.162.162,0,0,0,0-.062.126.126,0,0,0-.02-.054.131.131,0,0,0-.042-.039.113.113,0,0,0-.059-.015A.155.155,0,0,0,16.875,11.1Z"/><path class="a" d="M17.622,10.818l-.121.7h.173l-.009.052h-.413l.009-.052h.181l.114-.645h-.183l.009-.053Z"/><path class="a" d="M17.953,11.554a.185.185,0,0,1-.066-.061.212.212,0,0,1-.033-.08.263.263,0,0,1,0-.093l0-.022a.321.321,0,0,1,.017-.066.346.346,0,0,1,.07-.119.375.375,0,0,1,.053-.044.263.263,0,0,1,.061-.029.228.228,0,0,1,.07-.01.177.177,0,0,1,.086.022.158.158,0,0,1,.058.054.221.221,0,0,1,.029.078.288.288,0,0,1,0,.088l-.006.036h-.382a.235.235,0,0,0,0,.083.185.185,0,0,0,.026.071.135.135,0,0,0,.048.047.148.148,0,0,0,.072.019.206.206,0,0,0,.089-.019.268.268,0,0,0,.074-.052l.035.028a.255.255,0,0,1-.2.093A.184.184,0,0,1,17.953,11.554Zm.1-.459a.209.209,0,0,0-.057.04.314.314,0,0,0-.045.057.482.482,0,0,0-.03.066h.323l0-.007a.162.162,0,0,0,0-.062.14.14,0,0,0-.02-.054.131.131,0,0,0-.042-.039.113.113,0,0,0-.059-.015A.155.155,0,0,0,18.049,11.1Z"/><path class="a" d="M18.683,11.52a.176.176,0,0,0,.088-.064.2.2,0,0,0,.024-.051h.055a.206.206,0,0,1-.029.072.222.222,0,0,1-.052.054.244.244,0,0,1-.068.035.225.225,0,0,1-.077.012.174.174,0,0,1-.067-.012.158.158,0,0,1-.052-.032.168.168,0,0,1-.036-.047.27.27,0,0,1-.023-.058.33.33,0,0,1-.007-.056.282.282,0,0,1,0-.058l0-.021a.392.392,0,0,1,.031-.1.341.341,0,0,1,.054-.085.256.256,0,0,1,.079-.059.236.236,0,0,1,.1-.021.212.212,0,0,1,.074.015.158.158,0,0,1,.092.1.2.2,0,0,1,.01.074h-.055a.16.16,0,0,0-.006-.054.116.116,0,0,0-.023-.044.124.124,0,0,0-.094-.04.21.21,0,0,0-.056.008.2.2,0,0,0-.046.024.325.325,0,0,0-.039.035.5.5,0,0,0-.029.045.275.275,0,0,0-.02.05.247.247,0,0,0-.013.052l0,.021a.389.389,0,0,0,0,.049.261.261,0,0,0,0,.048.215.215,0,0,0,.014.045.113.113,0,0,0,.024.036.118.118,0,0,0,.037.026.133.133,0,0,0,.051.009A.154.154,0,0,0,18.683,11.52Z"/><path class="a" d="M19.281,11.04h.19l-.008.048h-.191l-.056.331a.133.133,0,0,0,0,.045.084.084,0,0,0,.015.033.077.077,0,0,0,.031.021.127.127,0,0,0,.043.008.237.237,0,0,0,.046,0l.046-.006,0,.045a.228.228,0,0,1-.053.013.357.357,0,0,1-.056,0,.182.182,0,0,1-.064-.013.117.117,0,0,1-.044-.031.124.124,0,0,1-.025-.05.173.173,0,0,1,0-.065l.057-.331h-.143l.008-.048h.143l.023-.135h.059Z"/><path class="a" d="M19.635,11.2a.348.348,0,0,1,.058-.087.3.3,0,0,1,.079-.058.248.248,0,0,1,.1-.021.235.235,0,0,1,.068.012.185.185,0,0,1,.053.031.17.17,0,0,1,.033.042.238.238,0,0,1,.024.051.225.225,0,0,1,.011.063.3.3,0,0,1,0,.067l0,.016a.353.353,0,0,1-.03.1.336.336,0,0,1-.056.086.316.316,0,0,1-.081.06.238.238,0,0,1-.1.021.194.194,0,0,1-.07-.013.161.161,0,0,1-.053-.034.157.157,0,0,1-.032-.04.228.228,0,0,1-.023-.047.319.319,0,0,1-.011-.063.251.251,0,0,1,0-.067V11.3A.375.375,0,0,1,19.635,11.2Zm.023.194a.2.2,0,0,0,.022.071.116.116,0,0,0,.043.048.125.125,0,0,0,.069.019.15.15,0,0,0,.08-.018.236.236,0,0,0,.063-.05.289.289,0,0,0,.044-.072A.33.33,0,0,0,20,11.312l0-.016a.275.275,0,0,0,0-.081.177.177,0,0,0-.026-.073.126.126,0,0,0-.042-.044.134.134,0,0,0-.065-.018.163.163,0,0,0-.08.019.218.218,0,0,0-.063.05.3.3,0,0,0-.043.071.388.388,0,0,0-.024.078l0,.016A.276.276,0,0,0,19.658,11.39Z"/><path class="a" d="M20.643,11.032l.039.009-.014.056-.039-.007a.256.256,0,0,0-.039,0,.265.265,0,0,0-.068.009.245.245,0,0,0-.06.025.2.2,0,0,0-.054.046.223.223,0,0,0-.039.063l-.057.338h-.06l.092-.528H20.4l-.012.08,0,.025a.277.277,0,0,1,.1-.085.267.267,0,0,1,.059-.023.29.29,0,0,1,.066-.007Z"/><path class="a" d="M20.919,11.186c.008-.034.019-.066.03-.1s.026-.064.041-.095a.636.636,0,0,1,.054-.087.473.473,0,0,1,.066-.075.419.419,0,0,1,.081-.059l.01.041a.45.45,0,0,0-.1.093.666.666,0,0,0-.07.115.935.935,0,0,0-.048.128,1.035,1.035,0,0,0-.028.132l0,.01c0,.024-.007.051-.01.078s0,.056,0,.085a.636.636,0,0,0,.006.087.475.475,0,0,0,.019.083A.316.316,0,0,0,21,11.7a.224.224,0,0,0,.053.062l-.018.037a.259.259,0,0,1-.064-.064.343.343,0,0,1-.043-.08.419.419,0,0,1-.027-.089.716.716,0,0,1-.011-.093.725.725,0,0,1,0-.093c0-.031,0-.061.008-.088v-.008C20.9,11.25,20.911,11.218,20.919,11.186Z"/><path class="a" d="M4.654,11.967l-.084-.131h.065l.065.131Z"/><path class="a" d="M5.1,12.492a.044.044,0,0,1,.036-.015.042.042,0,0,1,.034.013.051.051,0,0,1,.013.035.049.049,0,0,1-.017.036.05.05,0,0,1-.069,0,.044.044,0,0,1-.012-.034A.049.049,0,0,1,5.1,12.492Z"/><path class="a" d="M5.892,12.335a.147.147,0,0,0-.028-.042.194.194,0,0,0-.043-.03.382.382,0,0,0-.051-.023.69.69,0,0,1-.067-.032.258.258,0,0,1-.055-.042.171.171,0,0,1-.035-.056.16.16,0,0,1-.007-.074.193.193,0,0,1,.066-.131.241.241,0,0,1,.137-.056l.017-.1h.049l-.018.1a.141.141,0,0,1,.117.076A.264.264,0,0,1,6,12.066H5.943a.208.208,0,0,0-.021-.113.1.1,0,0,0-.095-.054.162.162,0,0,0-.108.038.145.145,0,0,0-.055.1.1.1,0,0,0,0,.047.1.1,0,0,0,.018.037.139.139,0,0,0,.046.04c.02.011.04.02.061.029a.667.667,0,0,1,.066.031.258.258,0,0,1,.055.042.168.168,0,0,1,.034.056.16.16,0,0,1,.008.074.183.183,0,0,1-.069.132.271.271,0,0,1-.139.055l-.016.093H5.681l.016-.093a.173.173,0,0,1-.131-.067.214.214,0,0,1-.037-.146h.058a.162.162,0,0,0,.028.115.123.123,0,0,0,.108.047.18.18,0,0,0,.112-.035.142.142,0,0,0,.061-.1A.115.115,0,0,0,5.892,12.335Z"/><path class="a" d="M6.366,12.735a.179.179,0,0,1-.047-.052.238.238,0,0,1-.024-.068.321.321,0,0,1,0-.076l.015-.1a.165.165,0,0,0,0-.055.094.094,0,0,0-.018-.042.092.092,0,0,0-.037-.026A.181.181,0,0,0,6.2,12.3l.006-.051a.171.171,0,0,0,.1-.036.159.159,0,0,0,.05-.1l.015-.1a.3.3,0,0,1,.023-.082.238.238,0,0,1,.043-.068.247.247,0,0,1,.061-.05.259.259,0,0,1,.081-.028l0,.04a.172.172,0,0,0-.062.025.167.167,0,0,0-.046.042.212.212,0,0,0-.029.056.283.283,0,0,0-.017.065l-.015.1a.2.2,0,0,1-.044.1.223.223,0,0,1-.095.059.141.141,0,0,1,.043.026.128.128,0,0,1,.029.037.159.159,0,0,1,.015.045.217.217,0,0,1,0,.051l-.014.1a.3.3,0,0,0,0,.06.153.153,0,0,0,.014.054A.114.114,0,0,0,6.4,12.7a.122.122,0,0,0,.053.028l-.012.039A.186.186,0,0,1,6.366,12.735Z"/><path class="a" d="M6.944,12.52a.18.18,0,0,0,.05-.025.176.176,0,0,0,.038-.039.171.171,0,0,0,.024-.051h.055a.206.206,0,0,1-.029.072.222.222,0,0,1-.052.054.231.231,0,0,1-.068.035.22.22,0,0,1-.076.012.176.176,0,0,1-.068-.012.158.158,0,0,1-.052-.032.151.151,0,0,1-.036-.047.225.225,0,0,1-.022-.058.252.252,0,0,1-.007-.056.375.375,0,0,1,0-.058l0-.021a.353.353,0,0,1,.03-.1.344.344,0,0,1,.055-.085.24.24,0,0,1,.078-.059.237.237,0,0,1,.1-.021.217.217,0,0,1,.074.015.192.192,0,0,1,.057.039.177.177,0,0,1,.034.06.2.2,0,0,1,.01.074H7.09a.16.16,0,0,0-.006-.054.108.108,0,0,0-.063-.073.147.147,0,0,0-.053-.011.2.2,0,0,0-.056.008.189.189,0,0,0-.047.024.255.255,0,0,0-.038.035.266.266,0,0,0-.029.045.278.278,0,0,0-.021.05.33.33,0,0,0-.013.052l0,.021a.391.391,0,0,0,0,.049.259.259,0,0,0,0,.048.215.215,0,0,0,.014.045.113.113,0,0,0,.024.036.118.118,0,0,0,.037.026.138.138,0,0,0,.052.009A.152.152,0,0,0,6.944,12.52Z"/><path class="a" d="M7.426,12.1a.267.267,0,0,1,.046-.037.2.2,0,0,1,.051-.023.19.19,0,0,1,.058-.009.162.162,0,0,1,.074.017.146.146,0,0,1,.048.044.187.187,0,0,1,.022.064.276.276,0,0,1,0,.076l-.057.337H7.61l.058-.338a.263.263,0,0,0,0-.056.113.113,0,0,0-.015-.048.1.1,0,0,0-.033-.032.116.116,0,0,0-.056-.012.177.177,0,0,0-.056.009.249.249,0,0,0-.051.027.243.243,0,0,0-.045.039.207.207,0,0,0-.031.048l-.063.363H7.261l.13-.75h.057l-.059.325A.319.319,0,0,1,7.426,12.1Z"/><path class="a" d="M8.191,12.04l-.083.476h.175l-.009.052H7.861l.009-.052h.181l.074-.424H7.944l.008-.052Zm-.035-.176a.042.042,0,0,1,.032-.013.035.035,0,0,1,.031.012.047.047,0,0,1,0,.063.04.04,0,0,1-.032.012.041.041,0,0,1-.031-.011.045.045,0,0,1-.01-.031A.05.05,0,0,1,8.156,11.864Z"/><path class="a" d="M8.817,11.818l-.121.7H8.87l-.009.052H8.448l.009-.052h.182l.112-.645H8.569l.009-.053Z"/><path class="a" d="M9.066,12.236a.345.345,0,0,1,.025-.063.415.415,0,0,1,.035-.057.279.279,0,0,1,.046-.045.194.194,0,0,1,.057-.03A.187.187,0,0,1,9.3,12.03a.149.149,0,0,1,.047.007.133.133,0,0,1,.042.019.161.161,0,0,1,.029.024.2.2,0,0,1,.023.032l.052-.294h.058l-.13.75H9.365l.012-.067a.213.213,0,0,1-.031.029.243.243,0,0,1-.035.024.234.234,0,0,1-.048.018.218.218,0,0,1-.052.006.138.138,0,0,1-.062-.013.133.133,0,0,1-.046-.031.154.154,0,0,1-.031-.047.2.2,0,0,1-.018-.056.235.235,0,0,1-.007-.06.3.3,0,0,1,0-.06V12.3C9.055,12.279,9.06,12.258,9.066,12.236Zm.038.122a.264.264,0,0,0,0,.049.212.212,0,0,0,.012.045.111.111,0,0,0,.022.038.088.088,0,0,0,.034.026.127.127,0,0,0,.05.01.163.163,0,0,0,.05-.006.169.169,0,0,0,.045-.021.2.2,0,0,0,.035-.028.241.241,0,0,0,.029-.036l.045-.254a.178.178,0,0,0-.017-.04.118.118,0,0,0-.027-.032.133.133,0,0,0-.035-.02.125.125,0,0,0-.043-.007.139.139,0,0,0-.079.019.177.177,0,0,0-.058.051.287.287,0,0,0-.039.071.376.376,0,0,0-.021.078l0,.01A.359.359,0,0,0,9.1,12.358Z"/><path class="a" d="M9.8,12.492a.052.052,0,0,1,.071,0,.055.055,0,0,1,.012.035.051.051,0,0,1-.052.05.05.05,0,0,1-.034-.014.052.052,0,0,1-.012-.034A.058.058,0,0,1,9.8,12.492Z"/><path class="a" d="M10.465,12.52a.167.167,0,0,0,.05-.025.157.157,0,0,0,.038-.039.173.173,0,0,0,.025-.051h.054a.2.2,0,0,1-.028.072.226.226,0,0,1-.053.054.238.238,0,0,1-.067.035.229.229,0,0,1-.077.012.174.174,0,0,1-.12-.044.189.189,0,0,1-.036-.047.268.268,0,0,1-.022-.058.33.33,0,0,1-.007-.056.376.376,0,0,1,0-.058l0-.021a.387.387,0,0,1,.029-.1.344.344,0,0,1,.055-.085.244.244,0,0,1,.079-.059.236.236,0,0,1,.1-.021.212.212,0,0,1,.074.015.192.192,0,0,1,.057.039.179.179,0,0,1,.035.06.2.2,0,0,1,.01.074h-.055a.16.16,0,0,0-.006-.054.132.132,0,0,0-.023-.044.126.126,0,0,0-.041-.029.143.143,0,0,0-.053-.011.2.2,0,0,0-.056.008.208.208,0,0,0-.047.024.247.247,0,0,0-.037.035.271.271,0,0,0-.03.045.375.375,0,0,0-.021.05.33.33,0,0,0-.013.052l0,.021a.263.263,0,0,0,0,.1.213.213,0,0,0,.013.045.136.136,0,0,0,.025.036.108.108,0,0,0,.037.026.136.136,0,0,0,.051.009A.146.146,0,0,0,10.465,12.52Z"/><path class="a" d="M10.948,12.1a.26.26,0,0,1,.045-.037.213.213,0,0,1,.11-.032.165.165,0,0,1,.074.017.142.142,0,0,1,.047.044.188.188,0,0,1,.023.064.322.322,0,0,1,0,.076l-.058.337h-.057l.057-.338a.265.265,0,0,0,0-.056.129.129,0,0,0-.015-.048.1.1,0,0,0-.034-.032.112.112,0,0,0-.055-.012.177.177,0,0,0-.056.009.233.233,0,0,0-.052.027.236.236,0,0,0-.044.039.183.183,0,0,0-.032.048l-.063.363h-.057l.13-.75h.057l-.059.325A.261.261,0,0,1,10.948,12.1Z"/><path class="a" d="M11.712,12.04l-.082.476H11.8l-.009.052h-.413l.01-.052h.18l.074-.424h-.181l.009-.052Zm-.035-.176a.042.042,0,0,1,.032-.013.033.033,0,0,1,.031.012.039.039,0,0,1,.01.032.04.04,0,0,1-.014.031.04.04,0,0,1-.032.012.037.037,0,0,1-.03-.011.04.04,0,0,1-.01-.031A.049.049,0,0,1,11.677,11.864Z"/><path class="a" d="M12.339,11.818l-.121.7h.173l-.009.052h-.413l.01-.052h.181l.112-.645H12.09l.009-.053Z"/><path class="a" d="M12.587,12.236a.435.435,0,0,1,.025-.063.421.421,0,0,1,.036-.057.245.245,0,0,1,.046-.045.189.189,0,0,1,.056-.03.192.192,0,0,1,.069-.011.149.149,0,0,1,.047.007.133.133,0,0,1,.042.019.127.127,0,0,1,.028.024.124.124,0,0,1,.023.032l.053-.294h.057l-.13.75h-.053L12.9,12.5a.272.272,0,0,1-.03.029.25.25,0,0,1-.036.024.207.207,0,0,1-.047.018.224.224,0,0,1-.052.006.139.139,0,0,1-.063-.013.121.121,0,0,1-.045-.031.177.177,0,0,1-.032-.047.245.245,0,0,1-.018-.056.379.379,0,0,1-.007-.06q0-.03,0-.06l0-.01A.5.5,0,0,1,12.587,12.236Zm.038.122a.263.263,0,0,0,0,.049.212.212,0,0,0,.011.045.157.157,0,0,0,.022.038.092.092,0,0,0,.035.026.127.127,0,0,0,.05.01.167.167,0,0,0,.05-.006.185.185,0,0,0,.045-.021.239.239,0,0,0,.035-.028.326.326,0,0,0,.029-.036l.044-.254a.142.142,0,0,0-.017-.04.135.135,0,0,0-.026-.032.151.151,0,0,0-.035-.02.127.127,0,0,0-.044-.007.133.133,0,0,0-.078.019.191.191,0,0,0-.059.051.284.284,0,0,0-.038.071.376.376,0,0,0-.021.078l0,.01A.242.242,0,0,0,12.625,12.358Z"/><path class="a" d="M13.6,12.032l.04.009-.014.056-.04-.007a.247.247,0,0,0-.039,0,.252.252,0,0,0-.067.009.27.27,0,0,0-.061.025.213.213,0,0,0-.054.046.2.2,0,0,0-.038.063l-.058.338h-.059l.091-.528h.055l-.013.08-.005.025a.354.354,0,0,1,.044-.049.31.31,0,0,1,.053-.036.234.234,0,0,1,.059-.023.284.284,0,0,1,.066-.007Z"/><path class="a" d="M13.844,12.554a.193.193,0,0,1-.066-.061.212.212,0,0,1-.033-.08.263.263,0,0,1,0-.093l0-.022a.4.4,0,0,1,.017-.066.3.3,0,0,1,.03-.063.291.291,0,0,1,.093-.1.263.263,0,0,1,.061-.029.228.228,0,0,1,.07-.01.177.177,0,0,1,.086.022.144.144,0,0,1,.058.054.221.221,0,0,1,.029.078.288.288,0,0,1,0,.088l-.005.036H13.8a.294.294,0,0,0,0,.083.2.2,0,0,0,.026.071.144.144,0,0,0,.048.047.148.148,0,0,0,.072.019.206.206,0,0,0,.089-.019.268.268,0,0,0,.074-.052l.035.028a.24.24,0,0,1-.091.07.249.249,0,0,1-.111.023A.184.184,0,0,1,13.844,12.554Zm.1-.459a.226.226,0,0,0-.057.04.314.314,0,0,0-.045.057.482.482,0,0,0-.03.066h.324v-.007a.185.185,0,0,0,0-.062.16.16,0,0,0-.021-.054.131.131,0,0,0-.042-.039.113.113,0,0,0-.059-.015A.157.157,0,0,0,13.94,12.1Z"/><path class="a" d="M14.4,12.04h.053l-.018.1a.274.274,0,0,1,.038-.045.254.254,0,0,1,.045-.036.245.245,0,0,1,.052-.024.22.22,0,0,1,.058-.008.165.165,0,0,1,.074.017.133.133,0,0,1,.047.044.18.18,0,0,1,.023.064.284.284,0,0,1,0,.077l-.057.336h-.057l.057-.338a.212.212,0,0,0,0-.056.1.1,0,0,0-.014-.048.092.092,0,0,0-.033-.032.108.108,0,0,0-.056-.012.163.163,0,0,0-.057.01.179.179,0,0,0-.051.027.21.21,0,0,0-.044.04.207.207,0,0,0-.031.048l-.063.361H14.3Z"/><path class="a" d="M15.192,11.806l-.134.864h.109l-.008.051h-.165l.152-.965h.164l-.008.05Z"/><path class="a" d="M15.821,12.04l-.083.476h.175l-.009.052h-.413l.009-.052h.181l.074-.424h-.181l.008-.052Zm-.035-.176a.042.042,0,0,1,.032-.013.034.034,0,0,1,.031.012.042.042,0,0,1,.009.032.039.039,0,0,1-.013.031.041.041,0,0,1-.033.012.037.037,0,0,1-.04-.042A.05.05,0,0,1,15.786,11.864Z"/><path class="a" d="M16.474,11.756l-.152.965h-.164l.008-.051h.109l.135-.864H16.3l.008-.05Z"/><path class="a" d="M16.84,12.492a.044.044,0,0,1,.035-.015.043.043,0,0,1,.035.013.046.046,0,0,1,.012.035.048.048,0,0,1-.016.036.05.05,0,0,1-.069,0,.048.048,0,0,1-.013-.034A.054.054,0,0,1,16.84,12.492Z"/><path class="a" d="M17.509,12.52a.18.18,0,0,0,.05-.025.176.176,0,0,0,.038-.039.2.2,0,0,0,.024-.051h.055a.206.206,0,0,1-.029.072.222.222,0,0,1-.052.054.244.244,0,0,1-.068.035.222.222,0,0,1-.077.012.174.174,0,0,1-.067-.012.158.158,0,0,1-.052-.032.168.168,0,0,1-.036-.047.27.27,0,0,1-.023-.058.48.48,0,0,1-.006-.056.282.282,0,0,1,0-.058l0-.021a.353.353,0,0,1,.03-.1.341.341,0,0,1,.054-.085.248.248,0,0,1,.08-.059.228.228,0,0,1,.1-.021.207.207,0,0,1,.074.015.18.18,0,0,1,.057.039.164.164,0,0,1,.035.06.2.2,0,0,1,.01.074h-.055a.16.16,0,0,0-.006-.054.1.1,0,0,0-.023-.044.133.133,0,0,0-.04-.029.148.148,0,0,0-.054-.011.2.2,0,0,0-.055.008.189.189,0,0,0-.047.024.255.255,0,0,0-.038.035.352.352,0,0,0-.03.045.372.372,0,0,0-.02.05.247.247,0,0,0-.013.052l0,.021a.389.389,0,0,0,0,.049.261.261,0,0,0,0,.048.215.215,0,0,0,.014.045.113.113,0,0,0,.024.036.118.118,0,0,0,.037.026.136.136,0,0,0,.051.009A.154.154,0,0,0,17.509,12.52Z"/><path class="a" d="M18.209,11.818l-.121.7h.173l-.009.052h-.413l.009-.052h.181l.114-.645H17.96l.009-.053Z"/><path class="a" d="M18.767,12.529c0-.013,0-.026,0-.039a.217.217,0,0,1-.036.032.172.172,0,0,1-.04.026.232.232,0,0,1-.057.022.218.218,0,0,1-.063.008.2.2,0,0,1-.06-.011.148.148,0,0,1-.049-.029.123.123,0,0,1-.039-.108.2.2,0,0,1,.015-.058.17.17,0,0,1,.035-.044.183.183,0,0,1,.045-.032.487.487,0,0,1,.053-.021c.02-.005.039-.008.059-.011l.057,0h.115l.009-.06a.112.112,0,0,0,0-.052.077.077,0,0,0-.024-.038.094.094,0,0,0-.039-.023.144.144,0,0,0-.051-.008.154.154,0,0,0-.052.006.159.159,0,0,0-.046.019.157.157,0,0,0-.038.034.115.115,0,0,0-.023.047h-.058a.156.156,0,0,1,.029-.067.221.221,0,0,1,.052-.049.223.223,0,0,1,.067-.029.262.262,0,0,1,.073-.01.209.209,0,0,1,.072.012.161.161,0,0,1,.057.033.137.137,0,0,1,.035.055.142.142,0,0,1,.006.072l-.043.256a.3.3,0,0,0,0,.052.467.467,0,0,0,0,.052v.006h-.059A.17.17,0,0,1,18.767,12.529Zm-.125-.009a.271.271,0,0,0,.052-.022.215.215,0,0,0,.046-.033.26.26,0,0,0,.038-.043l.02-.116h-.1l-.053,0a.315.315,0,0,0-.055.011.224.224,0,0,0-.036.014.132.132,0,0,0-.032.02.148.148,0,0,0-.025.03.106.106,0,0,0-.014.04.076.076,0,0,0,0,.043.087.087,0,0,0,.022.032.108.108,0,0,0,.033.02.184.184,0,0,0,.042.007A.278.278,0,0,0,18.642,12.52Z"/><path class="a" d="M19.379,12.392a.086.086,0,0,0-.025-.029.137.137,0,0,0-.036-.019.242.242,0,0,0-.035-.012l-.039-.011-.037-.011a.245.245,0,0,1-.045-.017.2.2,0,0,1-.041-.025.124.124,0,0,1-.029-.039.092.092,0,0,1-.009-.053.13.13,0,0,1,.026-.07.189.189,0,0,1,.057-.045.228.228,0,0,1,.063-.024.285.285,0,0,1,.064-.007.269.269,0,0,1,.07.011.163.163,0,0,1,.059.029.137.137,0,0,1,.055.118H19.42a.1.1,0,0,0-.01-.047.093.093,0,0,0-.028-.034.148.148,0,0,0-.042-.02.191.191,0,0,0-.048-.006.267.267,0,0,0-.048,0,.26.26,0,0,0-.047.016.143.143,0,0,0-.037.029.085.085,0,0,0-.02.044.064.064,0,0,0,0,.037.063.063,0,0,0,.021.025.117.117,0,0,0,.031.017l.034.012.04.011.039.012a.422.422,0,0,1,.045.018.167.167,0,0,1,.043.025.119.119,0,0,1,.036.042.1.1,0,0,1,.007.056.117.117,0,0,1-.025.068.149.149,0,0,1-.054.046.194.194,0,0,1-.068.027.261.261,0,0,1-.072.008.257.257,0,0,1-.073-.01.186.186,0,0,1-.062-.029.151.151,0,0,1-.045-.049.133.133,0,0,1-.016-.071h.057a.112.112,0,0,0,.013.05.09.09,0,0,0,.031.033.134.134,0,0,0,.044.019.231.231,0,0,0,.052.006.291.291,0,0,0,.049-.005.2.2,0,0,0,.05-.016.111.111,0,0,0,.04-.03.08.08,0,0,0,.022-.045A.054.054,0,0,0,19.379,12.392Z"/><path class="a" d="M19.966,12.392a.079.079,0,0,0-.026-.029.117.117,0,0,0-.035-.019.242.242,0,0,0-.035-.012l-.039-.011-.037-.011a.245.245,0,0,1-.045-.017.2.2,0,0,1-.041-.025.124.124,0,0,1-.029-.039.092.092,0,0,1-.009-.053.13.13,0,0,1,.026-.07.178.178,0,0,1,.057-.045.222.222,0,0,1,.062-.024.3.3,0,0,1,.065-.007.269.269,0,0,1,.07.011.163.163,0,0,1,.059.029.133.133,0,0,1,.054.118h-.056a.1.1,0,0,0-.01-.047.1.1,0,0,0-.028-.034.148.148,0,0,0-.042-.02.191.191,0,0,0-.048-.006.267.267,0,0,0-.048,0,.236.236,0,0,0-.047.016.143.143,0,0,0-.037.029.078.078,0,0,0-.02.044.074.074,0,0,0,0,.037.075.075,0,0,0,.022.025.1.1,0,0,0,.031.017l.034.012.039.011.04.012a.422.422,0,0,1,.045.018.167.167,0,0,1,.043.025.119.119,0,0,1,.036.042.1.1,0,0,1,.007.056A.124.124,0,0,1,20,12.5a.149.149,0,0,1-.054.046.194.194,0,0,1-.068.027.265.265,0,0,1-.072.008.257.257,0,0,1-.073-.01.186.186,0,0,1-.062-.029.151.151,0,0,1-.045-.049.133.133,0,0,1-.016-.071h.057a.112.112,0,0,0,.013.05.082.082,0,0,0,.031.033.134.134,0,0,0,.044.019.224.224,0,0,0,.052.006.291.291,0,0,0,.049-.005.2.2,0,0,0,.05-.016.111.111,0,0,0,.04-.03.08.08,0,0,0,.022-.045A.054.054,0,0,0,19.966,12.392Z"/><path class="a" d="M20.6,12.517l-.009.051h-.409l.123-.711h.058l-.114.66Z"/><path class="a" d="M21.1,12.04l-.083.476H21.2l-.008.052h-.414l.009-.052h.182l.073-.424h-.181l.008-.052Zm-.036-.176a.044.044,0,0,1,.033-.013.036.036,0,0,1,.031.012.047.047,0,0,1,0,.063.044.044,0,0,1-.033.012.039.039,0,0,1-.03-.011.04.04,0,0,1-.01-.031A.055.055,0,0,1,21.068,11.864Z"/><path class="a" d="M21.727,12.392a.079.079,0,0,0-.026-.029.131.131,0,0,0-.035-.019l-.035-.012-.039-.011-.037-.011a.22.22,0,0,1-.045-.017.179.179,0,0,1-.041-.025.127.127,0,0,1-.03-.039.1.1,0,0,1-.008-.053.122.122,0,0,1,.026-.07.178.178,0,0,1,.057-.045.222.222,0,0,1,.062-.024.3.3,0,0,1,.065-.007.276.276,0,0,1,.07.011.171.171,0,0,1,.059.029.14.14,0,0,1,.041.049.152.152,0,0,1,.013.069h-.056a.1.1,0,0,0-.01-.047.1.1,0,0,0-.029-.034.131.131,0,0,0-.041-.02.2.2,0,0,0-.048-.006.259.259,0,0,0-.048,0,.236.236,0,0,0-.047.016.128.128,0,0,0-.037.029.086.086,0,0,0-.021.044.064.064,0,0,0,0,.037.075.075,0,0,0,.022.025.092.092,0,0,0,.031.017l.034.012.039.011.039.012a.366.366,0,0,1,.046.018.186.186,0,0,1,.043.025.116.116,0,0,1,.035.042.1.1,0,0,1,.008.056.133.133,0,0,1-.025.068.158.158,0,0,1-.054.046.2.2,0,0,1-.068.027.268.268,0,0,1-.073.008.255.255,0,0,1-.072-.01.186.186,0,0,1-.062-.029.141.141,0,0,1-.045-.049.133.133,0,0,1-.016-.071h.057a.127.127,0,0,0,.012.05.092.092,0,0,0,.032.033.125.125,0,0,0,.044.019.222.222,0,0,0,.051.006.292.292,0,0,0,.05-.005.209.209,0,0,0,.05-.016.12.12,0,0,0,.04-.03.073.073,0,0,0,.021-.045A.059.059,0,0,0,21.727,12.392Z"/><path class="a" d="M22.216,12.04h.189l-.008.048h-.19l-.057.331a.133.133,0,0,0,0,.045.073.073,0,0,0,.016.033.081.081,0,0,0,.03.021.137.137,0,0,0,.043.008.232.232,0,0,0,.046,0l.047-.006.005.045a.237.237,0,0,1-.054.013.338.338,0,0,1-.055,0,.178.178,0,0,1-.064-.013.121.121,0,0,1-.045-.031.123.123,0,0,1-.024-.05.173.173,0,0,1,0-.065l.056-.331h-.142l.008-.048h.142l.024-.135h.058Z"/><path class="a" d="M22.822,11.806l-.134.864H22.8l-.008.051h-.164l.15-.965h.164l-.007.05Z"/><path class="a" d="M23.312,12.568l.109-.634-.2.083.01-.058.254-.1h.01l-.121.711Z"/><path class="a" d="M24.1,11.756l-.151.965h-.164l.007-.051h.109l.135-.864h-.108l.007-.05Z"/><path class="a" d="M24.388,12.7a.263.263,0,0,0,.045-.043.229.229,0,0,0,.031-.055.245.245,0,0,0,.018-.064l.015-.1a.2.2,0,0,1,.045-.1.215.215,0,0,1,.094-.06.115.115,0,0,1-.043-.026.117.117,0,0,1-.03-.037.183.183,0,0,1-.014-.045.215.215,0,0,1,0-.051l.015-.1a.332.332,0,0,0,0-.063.149.149,0,0,0-.013-.057.1.1,0,0,0-.031-.041.1.1,0,0,0-.051-.026l.011-.039a.172.172,0,0,1,.069.029.2.2,0,0,1,.045.05.188.188,0,0,1,.024.069.26.26,0,0,1,0,.079l-.014.1a.123.123,0,0,0,.019.095.117.117,0,0,0,.09.038l0,.052a.174.174,0,0,0-.106.037.156.156,0,0,0-.049.1l-.015.1a.411.411,0,0,1-.023.082.274.274,0,0,1-.043.067.231.231,0,0,1-.062.05.247.247,0,0,1-.079.028l-.006-.04A.174.174,0,0,0,24.388,12.7Z"/><path class="a" d="M25.2,11.967l-.084-.131h.065l.064.131Z"/><path class="a" d="M25.771,12.433a.853.853,0,0,1-.057.143.659.659,0,0,1-.086.127.424.424,0,0,1-.116.1l-.011-.039a.455.455,0,0,0,.1-.093.684.684,0,0,0,.07-.117.935.935,0,0,0,.048-.128,1.073,1.073,0,0,0,.028-.132l0-.01c0-.025.007-.05.009-.078a.6.6,0,0,0,0-.085.636.636,0,0,0-.006-.087.569.569,0,0,0-.018-.084.335.335,0,0,0-.033-.075.235.235,0,0,0-.053-.061l.018-.038a.3.3,0,0,1,.063.065.34.34,0,0,1,.044.079A.509.509,0,0,1,25.8,12a.591.591,0,0,1,.013.094q0,.048,0,.093a.8.8,0,0,1-.008.089v.007A1.212,1.212,0,0,1,25.771,12.433Z"/><path class="a" d="M14.658,18.529a.272.272,0,0,1,0-.039.217.217,0,0,1-.036.032.233.233,0,0,1-.04.027.278.278,0,0,1-.057.021.257.257,0,0,1-.062.008.174.174,0,0,1-.061-.012.107.107,0,0,1-.049-.029.119.119,0,0,1-.032-.046.131.131,0,0,1-.008-.061.171.171,0,0,1,.017-.058.148.148,0,0,1,.034-.044.183.183,0,0,1,.045-.032.252.252,0,0,1,.054-.021l.058-.011.058,0H14.7l.01-.06a.146.146,0,0,0,0-.052.136.136,0,0,0-.024-.038.105.105,0,0,0-.04-.023.14.14,0,0,0-.051-.008.151.151,0,0,0-.052.006.171.171,0,0,0-.046.019.138.138,0,0,0-.038.034.122.122,0,0,0-.023.047h-.057a.158.158,0,0,1,.028-.068.206.206,0,0,1,.053-.049.281.281,0,0,1,.066-.029.264.264,0,0,1,.073-.011.236.236,0,0,1,.072.013.178.178,0,0,1,.057.033.127.127,0,0,1,.035.055.153.153,0,0,1,.007.072l-.044.255a.473.473,0,0,0,0,.053.453.453,0,0,0,0,.052v.006h-.06A.17.17,0,0,1,14.658,18.529Zm-.125-.009a.247.247,0,0,0,.053-.022.236.236,0,0,0,.045-.033.26.26,0,0,0,.038-.043l.02-.115h-.1l-.053,0a.255.255,0,0,0-.055.011.267.267,0,0,0-.036.014.127.127,0,0,0-.031.02.094.094,0,0,0-.026.03.126.126,0,0,0-.014.04.1.1,0,0,0,0,.043.085.085,0,0,0,.021.031.092.092,0,0,0,.034.021.142.142,0,0,0,.042.006A.224.224,0,0,0,14.533,18.52Z"/><path class="a" d="M14.921,18.04h.052l.009.36v.083l.036-.09.146-.353h.041l.025.36,0,.088.033-.092.131-.356h.055l-.205.528H15.2l-.029-.364v-.077l-.03.084-.151.357h-.047Z"/><path class="a" d="M15.832,18.529a.272.272,0,0,1,0-.039.26.26,0,0,1-.035.032.468.468,0,0,1-.04.027.286.286,0,0,1-.058.021.251.251,0,0,1-.062.008.179.179,0,0,1-.061-.012.112.112,0,0,1-.049-.029.119.119,0,0,1-.032-.046.131.131,0,0,1-.008-.061.171.171,0,0,1,.017-.058.148.148,0,0,1,.034-.044.183.183,0,0,1,.045-.032.252.252,0,0,1,.054-.021l.058-.011.058,0h.114l.01-.06a.111.111,0,0,0,0-.052.136.136,0,0,0-.024-.038.105.105,0,0,0-.04-.023.14.14,0,0,0-.051-.008.154.154,0,0,0-.052.006.171.171,0,0,0-.046.019.154.154,0,0,0-.038.034.109.109,0,0,0-.023.047h-.057a.158.158,0,0,1,.028-.068.206.206,0,0,1,.053-.049.264.264,0,0,1,.066-.029.271.271,0,0,1,.074-.011.235.235,0,0,1,.071.013.178.178,0,0,1,.057.033.139.139,0,0,1,.036.055.185.185,0,0,1,.006.072l-.043.255a.315.315,0,0,0,0,.053.453.453,0,0,0,0,.052v.006h-.06A.17.17,0,0,1,15.832,18.529Zm-.125-.009a.247.247,0,0,0,.053-.022.279.279,0,0,0,.046-.033.309.309,0,0,0,.037-.043l.02-.115h-.1l-.054,0a.255.255,0,0,0-.055.011.267.267,0,0,0-.036.014.11.11,0,0,0-.031.02.094.094,0,0,0-.026.03.125.125,0,0,0-.013.04.077.077,0,0,0,0,.043.072.072,0,0,0,.02.031.092.092,0,0,0,.034.021.142.142,0,0,0,.042.006A.224.224,0,0,0,15.707,18.52Z"/><path class="a" d="M16.408,18.04l-.082.476H16.5l-.009.052h-.413l.009-.052h.181l.074-.424h-.181l.008-.052Zm-.035-.177a.047.047,0,0,1,.032-.012.037.037,0,0,1,.031.012.039.039,0,0,1,.009.032.042.042,0,0,1-.013.031.04.04,0,0,1-.032.012.041.041,0,0,1-.031-.011.046.046,0,0,1-.01-.031A.055.055,0,0,1,16.373,17.863Z"/><path class="a" d="M16.934,18.04h.189l-.008.048h-.19l-.057.332a.128.128,0,0,0,0,.044.073.073,0,0,0,.016.033.065.065,0,0,0,.03.021.111.111,0,0,0,.043.007.233.233,0,0,0,.046,0l.047-.006.005.045a.237.237,0,0,1-.054.013.525.525,0,0,1-.056,0,.172.172,0,0,1-.063-.013.112.112,0,0,1-.045-.032.109.109,0,0,1-.025-.049.193.193,0,0,1,0-.064l.056-.332h-.142l.007-.048h.143L16.9,17.9h.059Z"/><path class="a" d="M18.18,18.529c0-.012,0-.026,0-.039a.217.217,0,0,1-.036.032.227.227,0,0,1-.1.048.259.259,0,0,1-.063.008.173.173,0,0,1-.06-.012.107.107,0,0,1-.049-.029.109.109,0,0,1-.032-.046.12.12,0,0,1-.007-.061.2.2,0,0,1,.015-.058.194.194,0,0,1,.081-.076.236.236,0,0,1,.052-.021l.059-.011.057,0h.115l.01-.06a.146.146,0,0,0,0-.052.1.1,0,0,0-.064-.061.144.144,0,0,0-.051-.008.154.154,0,0,0-.052.006.159.159,0,0,0-.046.019.138.138,0,0,0-.038.034.122.122,0,0,0-.023.047H17.9a.147.147,0,0,1,.028-.068.206.206,0,0,1,.053-.049.281.281,0,0,1,.066-.029.264.264,0,0,1,.073-.011.248.248,0,0,1,.073.013.173.173,0,0,1,.056.033.137.137,0,0,1,.035.055.142.142,0,0,1,.006.072l-.043.255a.315.315,0,0,0,0,.053.453.453,0,0,0,0,.052v.006h-.059A.17.17,0,0,1,18.18,18.529Zm-.125-.009a.22.22,0,0,0,.052-.022.215.215,0,0,0,.046-.033.26.26,0,0,0,.038-.043l.02-.115h-.1l-.053,0A.244.244,0,0,0,18,18.32a.224.224,0,0,0-.036.014.11.11,0,0,0-.031.02.108.108,0,0,0-.026.03.106.106,0,0,0-.014.04.1.1,0,0,0,0,.043.077.077,0,0,0,.022.031.081.081,0,0,0,.033.021.142.142,0,0,0,.042.006A.224.224,0,0,0,18.055,18.52Z"/><path class="a" d="M18.5,18.04h.053l-.018.1a.334.334,0,0,1,.038-.045.222.222,0,0,1,.045-.036.245.245,0,0,1,.052-.024.183.183,0,0,1,.057-.008.154.154,0,0,1,.075.017.132.132,0,0,1,.047.044.18.18,0,0,1,.023.064.284.284,0,0,1,0,.077l-.057.336h-.057l.057-.338a.211.211,0,0,0,0-.056.135.135,0,0,0-.013-.048.084.084,0,0,0-.035-.032.112.112,0,0,0-.055-.012.159.159,0,0,0-.057.01.215.215,0,0,0-.052.027.273.273,0,0,0-.044.039.287.287,0,0,0-.031.049l-.062.361h-.057Z"/><path class="a" d="M19.343,18.04l-.083.476h.175l-.009.052h-.413l.008-.052H19.2l.073-.424H19.1l.008-.052Zm-.035-.177a.044.044,0,0,1,.032-.012.038.038,0,0,1,.031.012.047.047,0,0,1,0,.063.042.042,0,0,1-.033.012.036.036,0,0,1-.029-.011.039.039,0,0,1-.011-.031A.055.055,0,0,1,19.308,17.863Z"/><path class="a" d="M19.669,18.1a.158.158,0,0,1,.052-.051.138.138,0,0,1,.1-.015.073.073,0,0,1,.029.015.124.124,0,0,1,.018.021.082.082,0,0,1,.011.03.164.164,0,0,1,.054-.051.134.134,0,0,1,.071-.019.1.1,0,0,1,.052.013.092.092,0,0,1,.032.033.13.13,0,0,1,.013.046.327.327,0,0,1,0,.054l-.067.392h-.055l.068-.393a.206.206,0,0,0,0-.034.094.094,0,0,0-.007-.031.057.057,0,0,0-.02-.021.054.054,0,0,0-.033-.007.121.121,0,0,0-.038.006.111.111,0,0,0-.055.045.146.146,0,0,0-.014.028l-.071.407h-.054l.068-.4a.124.124,0,0,0,0-.033.088.088,0,0,0-.007-.029.057.057,0,0,0-.019-.019.061.061,0,0,0-.032-.007.116.116,0,0,0-.038.006.149.149,0,0,0-.03.018.118.118,0,0,0-.023.027.211.211,0,0,0-.018.033l-.07.4h-.053l.091-.528h.052Z"/><path class="a" d="M20.289,17.857h.163a.26.26,0,0,1,.082.015.236.236,0,0,1,.064.038.214.214,0,0,1,.046.053.3.3,0,0,1,.029.066.293.293,0,0,1,.012.073.325.325,0,0,1,0,.076l-.012.07a.4.4,0,0,1-.022.082.44.44,0,0,1-.086.14.367.367,0,0,1-.062.05.292.292,0,0,1-.076.035.316.316,0,0,1-.087.013h-.171Zm-.057.661h.106a.285.285,0,0,0,.072-.012.26.26,0,0,0,.063-.03.292.292,0,0,0,.05-.043.3.3,0,0,0,.041-.055.378.378,0,0,0,.031-.064.509.509,0,0,0,.018-.067l.012-.071a.478.478,0,0,0,0-.066.259.259,0,0,0-.01-.062A.239.239,0,0,0,20.6,18a.185.185,0,0,0-.034-.044.152.152,0,0,0-.049-.031.169.169,0,0,0-.066-.013h-.113Z"/><path class="a" d="M20.888,18.555a.19.19,0,0,1-.067-.062.25.25,0,0,1-.033-.08.263.263,0,0,1,0-.093l0-.021a.39.39,0,0,1,.018-.067.36.36,0,0,1,.029-.063.365.365,0,0,1,.041-.056.392.392,0,0,1,.053-.045.3.3,0,0,1,.06-.028.234.234,0,0,1,.071-.01.169.169,0,0,1,.086.022.156.156,0,0,1,.057.054.183.183,0,0,1,.029.078.288.288,0,0,1,0,.088l-.005.037h-.382a.229.229,0,0,0,0,.082.208.208,0,0,0,.025.071.147.147,0,0,0,.049.047.136.136,0,0,0,.071.018.2.2,0,0,0,.089-.017.263.263,0,0,0,.074-.053l.036.028a.256.256,0,0,1-.091.07.284.284,0,0,1-.112.023A.19.19,0,0,1,20.888,18.555Zm.095-.46a.2.2,0,0,0-.056.04.276.276,0,0,0-.045.057.3.3,0,0,0-.03.066h.323l0-.007a.162.162,0,0,0,0-.062.122.122,0,0,0-.021-.054.106.106,0,0,0-.042-.039.119.119,0,0,0-.058-.016A.173.173,0,0,0,20.983,18.1Z"/><path class="a" d="M21.73,17.818l-.121.7h.173l-.009.052H21.36l.009-.052h.182l.113-.645h-.183l.009-.053Z"/><path class="a" d="M22.288,18.529c0-.012,0-.026,0-.039a.211.211,0,0,1-.035.032.468.468,0,0,1-.04.027.286.286,0,0,1-.058.021.251.251,0,0,1-.062.008.179.179,0,0,1-.061-.012.112.112,0,0,1-.049-.029.131.131,0,0,1-.032-.046.12.12,0,0,1-.007-.061.171.171,0,0,1,.016-.058A.167.167,0,0,1,22,18.328a.189.189,0,0,1,.046-.032.244.244,0,0,1,.053-.021l.058-.011.058,0h.114l.01-.06a.111.111,0,0,0,0-.052.1.1,0,0,0-.024-.038.1.1,0,0,0-.039-.023.147.147,0,0,0-.051-.008.16.16,0,0,0-.053.006.171.171,0,0,0-.046.019.154.154,0,0,0-.038.034.108.108,0,0,0-.022.047H22a.172.172,0,0,1,.028-.068.206.206,0,0,1,.053-.049.281.281,0,0,1,.066-.029.271.271,0,0,1,.074-.011.248.248,0,0,1,.072.013.189.189,0,0,1,.057.033.148.148,0,0,1,.035.055.154.154,0,0,1,.006.072l-.043.255a.315.315,0,0,0,0,.053.453.453,0,0,0,0,.052v.006h-.06A.17.17,0,0,1,22.288,18.529Zm-.125-.009a.227.227,0,0,0,.053-.022.279.279,0,0,0,.046-.033.4.4,0,0,0,.038-.043l.019-.115h-.1l-.054,0a.255.255,0,0,0-.055.011.331.331,0,0,0-.036.014.127.127,0,0,0-.031.02.091.091,0,0,0-.025.03.106.106,0,0,0-.014.04.077.077,0,0,0,0,.043.085.085,0,0,0,.021.031.089.089,0,0,0,.033.021.147.147,0,0,0,.042.006A.22.22,0,0,0,22.163,18.52Z"/><path class="a" d="M22.74,18.48l.26-.44h.067l-.37.613a.314.314,0,0,1-.033.048.265.265,0,0,1-.041.041.144.144,0,0,1-.049.029.154.154,0,0,1-.058.011l-.025,0-.025-.005.011-.048.02,0h.021a.1.1,0,0,0,.041-.008.163.163,0,0,0,.035-.023.22.22,0,0,0,.03-.031.364.364,0,0,0,.024-.035l.051-.082-.14-.512h.061l.11.42Z"/><path class="a" d="M23.267,18.186a.666.666,0,0,1,.03-.1.878.878,0,0,1,.041-.095.715.715,0,0,1,.054-.088.514.514,0,0,1,.066-.074.391.391,0,0,1,.081-.059l.01.041a.447.447,0,0,0-.1.092.65.65,0,0,0-.07.116.82.82,0,0,0-.048.128.9.9,0,0,0-.028.131l0,.01c0,.025-.007.052-.01.079s0,.057,0,.085a.636.636,0,0,0,.006.087.556.556,0,0,0,.018.083.338.338,0,0,0,.034.075.22.22,0,0,0,.052.062l-.017.037a.264.264,0,0,1-.065-.064.407.407,0,0,1-.043-.08.485.485,0,0,1-.026-.089.74.74,0,0,1-.012-.093.725.725,0,0,1,0-.093c0-.031.005-.061.009-.089v-.008C23.252,18.25,23.259,18.219,23.267,18.186Z"/><path class="a" d="M24.01,18.433a.836.836,0,0,1-.057.143.645.645,0,0,1-.086.127.424.424,0,0,1-.116.095l-.011-.039a.456.456,0,0,0,.1-.093.625.625,0,0,0,.07-.117.908.908,0,0,0,.076-.26l0-.01c0-.025.007-.05.009-.078a.607.607,0,0,0,0-.086.633.633,0,0,0-.006-.086.734.734,0,0,0-.017-.084.421.421,0,0,0-.034-.075.234.234,0,0,0-.052-.061l.017-.038a.3.3,0,0,1,.064.065.433.433,0,0,1,.044.079.612.612,0,0,1,.025.089.734.734,0,0,1,.014.094q0,.048,0,.093c0,.032-.005.061-.009.088v.008A1.212,1.212,0,0,1,24.01,18.433Z"/><path class="a" d="M19.452,2.468a.259.259,0,0,1,.04.009l-.014.056-.04-.007a.238.238,0,0,0-.039,0,.257.257,0,0,0-.067.009.27.27,0,0,0-.061.025.209.209,0,0,0-.053.046.169.169,0,0,0-.038.063L19.121,3h-.059l.091-.528h.055l-.013.08,0,.025a.269.269,0,0,1,.1-.085.3.3,0,0,1,.059-.023.284.284,0,0,1,.066-.007Z"/><path class="a" d="M19.6,2.809l.009-.053h.423l-.008.053Zm.035-.2.009-.052h.423l-.009.052Z"/><path class="a" d="M20.315,2.622c.009-.034.019-.066.031-.1a.716.716,0,0,1,.041-.1.746.746,0,0,1,.053-.087.535.535,0,0,1,.067-.075.391.391,0,0,1,.081-.059l.01.041a.428.428,0,0,0-.1.093.609.609,0,0,0-.07.115.82.82,0,0,0-.048.128,1.248,1.248,0,0,0-.029.132v.01c0,.024-.007.051-.01.078s0,.056,0,.085,0,.058.006.087a.473.473,0,0,0,.018.083.363.363,0,0,0,.033.075.264.264,0,0,0,.053.062l-.017.037a.259.259,0,0,1-.064-.064.41.41,0,0,1-.044-.08A.547.547,0,0,1,20.3,3a.716.716,0,0,1-.012-.093c0-.032,0-.063,0-.093s0-.061.009-.088V2.718C20.3,2.687,20.308,2.654,20.315,2.622Z"/><path class="a" d="M20.965,2.617a.193.193,0,0,0,.063-.01.218.218,0,0,0,.058-.026.18.18,0,0,0,.043-.044.122.122,0,0,0,.023-.06.141.141,0,0,0,0-.058.1.1,0,0,0-.02-.044.117.117,0,0,0-.04-.03.144.144,0,0,0-.056-.012.164.164,0,0,0-.063.011.158.158,0,0,0-.052.03.173.173,0,0,0-.039.046.2.2,0,0,0-.024.059H20.8a.22.22,0,0,1,.028-.079.247.247,0,0,1,.053-.063.26.26,0,0,1,.071-.04.255.255,0,0,1,.084-.014.223.223,0,0,1,.076.015.169.169,0,0,1,.059.041.157.157,0,0,1,.033.061.187.187,0,0,1,.005.079.137.137,0,0,1-.018.056.162.162,0,0,1-.033.046.225.225,0,0,1-.045.035.316.316,0,0,1-.052.026.168.168,0,0,1,.048.025.166.166,0,0,1,.036.039.147.147,0,0,1,.017.047.174.174,0,0,1,0,.056.231.231,0,0,1-.027.084.24.24,0,0,1-.053.065A.248.248,0,0,1,21.011,3a.239.239,0,0,1-.088.014A.212.212,0,0,1,20.842,3a.183.183,0,0,1-.063-.042.2.2,0,0,1-.039-.063.22.22,0,0,1-.009-.082h.057a.155.155,0,0,0,.006.061.114.114,0,0,0,.026.047.131.131,0,0,0,.044.033.17.17,0,0,0,.061.011.2.2,0,0,0,.066-.01.177.177,0,0,0,.055-.032.181.181,0,0,0,.04-.047.179.179,0,0,0,.021-.064.144.144,0,0,0,0-.063.108.108,0,0,0-.03-.044.129.129,0,0,0-.049-.027.244.244,0,0,0-.062-.01H20.9l.009-.05Z"/><path class="a" d="M21.36,3.065l.421-.772h.057l-.422.772Z"/><path class="a" d="M22.121,3l.11-.634-.206.083.01-.058.255-.1h.01L22.179,3Z"/><path class="a" d="M22.982,2.775l-.008.05h-.108L22.835,3h-.058l.032-.179h-.325l.006-.036.4-.5h.064l-.083.482Zm-.165,0,.072-.4-.035.046-.291.358Z"/><path class="a" d="M23.406,2.869a.772.772,0,0,1-.056.143.617.617,0,0,1-.086.127.429.429,0,0,1-.117.1L23.138,3.2a.424.424,0,0,0,.1-.093.629.629,0,0,0,.071-.117.82.82,0,0,0,.048-.128,1.3,1.3,0,0,0,.029-.132v-.01c0-.025.007-.05.009-.078a.794.794,0,0,0,0-.085.85.85,0,0,0-.007-.087.393.393,0,0,0-.018-.084.335.335,0,0,0-.033-.075.276.276,0,0,0-.052-.061l.017-.038a.277.277,0,0,1,.063.065.381.381,0,0,1,.044.079.614.614,0,0,1,.027.089c0,.031.009.062.012.094s0,.063,0,.093-.005.061-.009.089v.007A.8.8,0,0,1,23.406,2.869Z"/><path class="a" d="M23.761,2.478l.025-.054.17.07.026-.2h.057l-.04.2.187-.07.009.058L24,2.537l.1.157-.048.033-.09-.167-.137.165-.044-.036.15-.158Z"/><path class="a" d="M24.715,2.476h.072l-.238.261L24.71,3h-.064l-.133-.224-.2.224h-.073l.247-.272-.154-.256H24.4l.124.214Z"/></svg>