<svg xmlns="http://www.w3.org/2000/svg" viewBox="0 0 28.346 28.346"><defs><style>.a{fill:#dedede;}.b{fill:none;stroke:#dedede;stroke-miterlimit:10;stroke-width:0.25px;stroke-dasharray:0.508 0.508;}</style></defs><path class="a" d="M24.125,21.366a.209.209,0,0,1,.15.146c0,.01-.011.013-.027.013-.071,0-.154,0-.243.008a.827.827,0,0,0-.156.308.018.018,0,0,0,.02.019,1.245,1.245,0,0,0,.4-.273.06.06,0,0,1,.031-.015c.022,0,.033.049.033.058a.886.886,0,0,1-.492.366c-.118,0-.175-.176-.175-.211a.52.52,0,0,1,.065-.241c-.1,0-.2.007-.3.007a1.73,1.73,0,0,1-.711.464A.11.11,0,0,1,22.663,22a.422.422,0,0,1-.232-.376.53.53,0,0,1,.247-.387,1.089,1.089,0,0,1,.37-.17c.033,0,.033.03.033.054a.075.075,0,0,1-.033.07,1.261,1.261,0,0,0-.439.4.309.309,0,0,0-.051.17c0,.045.016.081.066.081a.3.3,0,0,0,.116-.036,3.364,3.364,0,0,0,.422-.267c-.17-.021-.179-.064-.179-.108,0-.015,0-.042.019-.042a.706.706,0,0,0,.125.021c.075,0,.144,0,.208,0a9.983,9.983,0,0,0,1.031-1c.02-.019.033-.04.054-.04.1,0,.354.137.354.185s-.312.316-.586.718Zm-.294,0c.1-.157.246-.372.481-.684a.06.06,0,0,0,.009-.024c0-.006,0-.01-.009-.01s-.017.008-.039.034a9.485,9.485,0,0,1-.668.708C23.686,21.378,23.759,21.368,23.831,21.363Z"/><path class="a" d="M10.55,21.4a7.429,7.429,0,0,0-1.23-.016c-.061.006-.243.023-.456.046s-.371.044-.486.059l-1.126.1c-.266.009-.553.016-.87.016a3.165,3.165,0,0,1-.522-.08c-.057,0-.081.105-.081.169,0,.185.04.37.748.452l1.1.032c.41,0,.845-.016,1.263-.032l1.156-.05c.37-.016.716-.024,1.014-.024.064,0,.113-.016.113-.057A.868.868,0,0,0,10.55,21.4Z"/><path class="a" d="M18.184,6.636l.38.252h0l.08.054-.3.46-.081-.053.192-.291a1.336,1.336,0,0,0-.989,1.276,1.355,1.355,0,0,0,2.693.215h.12a1.474,1.474,0,0,1-2.933-.215,1.455,1.455,0,0,1,1.115-1.4l-.327-.216Z"/><line class="b" x1="7.329" y1="6.304" x2="1.971" y2="6.304"/><line class="b" x1="7.446" y1="3.144" x2="1.792" y2="3.144"/><line class="b" x1="6.318" y1="7.446" x2="6.318" y2="1.694"/><line class="b" x1="3.177" y1="7.427" x2="3.177" y2="1.687"/></svg>