<svg xmlns="http://www.w3.org/2000/svg" viewBox="0 0 28.346 28.346"><defs><style>.a{fill:#dedede;}</style></defs><path class="a" d="M3.471,23.712A1.3,1.3,0,0,1,3.68,23a5.229,5.229,0,0,1,1.834-1.673.311.311,0,0,0,.137-.291c0-.1,0-.225-.137-.225a4.538,4.538,0,0,0-1.544.709,2.2,2.2,0,0,0-1.029,1.617,1.645,1.645,0,0,0,.347,1.036l.251-.216A.382.382,0,0,1,3.471,23.712Z"/><path class="a" d="M3.434,15.04h.19l-.009.048h-.19l-.056.332a.107.107,0,0,0,0,.044.073.073,0,0,0,.016.033.061.061,0,0,0,.03.021.106.106,0,0,0,.042.007.243.243,0,0,0,.047,0c.015,0,.031,0,.046-.006l0,.045a.237.237,0,0,1-.054.013l-.055,0a.182.182,0,0,1-.064-.013.116.116,0,0,1-.044-.032.109.109,0,0,1-.025-.049.169.169,0,0,1,0-.064l.056-.332H3.225l.007-.048h.143L3.4,14.9h.058Z"/><path class="a" d="M4.083,15.04,4,15.516h.174l-.008.052H3.752l.01-.052h.18l.074-.424H3.835l.009-.052Zm-.036-.177a.047.047,0,0,1,.033-.013.035.035,0,0,1,.03.013.037.037,0,0,1,.01.031.038.038,0,0,1-.014.031.041.041,0,0,1-.032.013.038.038,0,0,1-.04-.042A.058.058,0,0,1,4.047,14.863Z"/><path class="a" d="M4.408,15.1a.18.18,0,0,1,.052-.051.125.125,0,0,1,.07-.019.122.122,0,0,1,.034,0,.069.069,0,0,1,.028.015.1.1,0,0,1,.019.021.1.1,0,0,1,.011.03.171.171,0,0,1,.053-.051.142.142,0,0,1,.071-.019.091.091,0,0,1,.052.013.078.078,0,0,1,.032.033.112.112,0,0,1,.013.046.244.244,0,0,1,0,.054l-.067.392H4.722l.067-.393c0-.012,0-.024,0-.034a.094.094,0,0,0-.007-.031.066.066,0,0,0-.02-.021.056.056,0,0,0-.034-.007.115.115,0,0,0-.037.006.111.111,0,0,0-.055.045.146.146,0,0,0-.014.028l-.071.407H4.5l.068-.4a.187.187,0,0,0,0-.033.088.088,0,0,0-.007-.029.057.057,0,0,0-.019-.019.065.065,0,0,0-.033-.007.11.11,0,0,0-.037.006.192.192,0,0,0-.031.018.2.2,0,0,0-.023.027.341.341,0,0,0-.017.033l-.07.4H4.277l.092-.528H4.42Z"/><path class="a" d="M5.041,15.555a.19.19,0,0,1-.067-.062.212.212,0,0,1-.033-.08.263.263,0,0,1,0-.093l0-.021a.387.387,0,0,1,.017-.067.364.364,0,0,1,.03-.063.446.446,0,0,1,.041-.056.454.454,0,0,1,.052-.045.337.337,0,0,1,.061-.028.237.237,0,0,1,.07-.01.164.164,0,0,1,.086.022.151.151,0,0,1,.058.054.214.214,0,0,1,.029.078.26.26,0,0,1,0,.088l-.005.037H5a.229.229,0,0,0,0,.082.189.189,0,0,0,.025.071.144.144,0,0,0,.048.047.137.137,0,0,0,.072.018.2.2,0,0,0,.089-.017.32.32,0,0,0,.075-.053l.034.028a.244.244,0,0,1-.09.07.288.288,0,0,1-.112.023A.187.187,0,0,1,5.041,15.555Zm.1-.46a.214.214,0,0,0-.058.04.271.271,0,0,0-.044.057A.359.359,0,0,0,5,15.258h.324l0-.007a.215.215,0,0,0,0-.062.136.136,0,0,0-.021-.054.118.118,0,0,0-.041-.039.13.13,0,0,0-.06-.016A.164.164,0,0,0,5.137,15.1Z"/><path class="a" d="M5.525,15.373l.009-.053h.423l-.009.053Zm.035-.2.009-.053h.423l-.009.053Z"/><path class="a" d="M6.132,15.236a.435.435,0,0,1,.025-.063.362.362,0,0,1,.035-.057.25.25,0,0,1,.046-.046.273.273,0,0,1,.056-.03.217.217,0,0,1,.069-.011.2.2,0,0,1,.049.008.135.135,0,0,1,.042.02.133.133,0,0,1,.029.025.227.227,0,0,1,.022.032l.016-.074h.055l-.089.519a.354.354,0,0,1-.028.087.238.238,0,0,1-.051.07.243.243,0,0,1-.072.047.231.231,0,0,1-.089.016.2.2,0,0,1-.168-.091l.035-.036a.184.184,0,0,0,.055.056.138.138,0,0,0,.076.021.168.168,0,0,0,.068-.012.187.187,0,0,0,.055-.036.194.194,0,0,0,.038-.054.239.239,0,0,0,.023-.065l.012-.059a.262.262,0,0,1-.03.028.364.364,0,0,1-.035.024.264.264,0,0,1-.047.017.224.224,0,0,1-.052.006.149.149,0,0,1-.062-.013.123.123,0,0,1-.046-.032.157.157,0,0,1-.032-.046.251.251,0,0,1-.017-.055.248.248,0,0,1-.007-.061.4.4,0,0,1,0-.06l0-.01A.5.5,0,0,1,6.132,15.236Zm.037.122a.364.364,0,0,0,0,.048.2.2,0,0,0,.011.045.126.126,0,0,0,.023.039.092.092,0,0,0,.035.026.136.136,0,0,0,.049.011.242.242,0,0,0,.048-.006.208.208,0,0,0,.043-.019.213.213,0,0,0,.069-.069l.043-.249a.113.113,0,0,0-.015-.039.117.117,0,0,0-.024-.033.151.151,0,0,0-.037-.022.112.112,0,0,0-.045-.008.142.142,0,0,0-.08.019.184.184,0,0,0-.057.051.27.27,0,0,0-.039.071.564.564,0,0,0-.021.078l0,.01C6.171,15.326,6.17,15.342,6.169,15.358Z"/><path class="a" d="M6.8,15.555a.2.2,0,0,1-.066-.062.212.212,0,0,1-.033-.08.263.263,0,0,1,0-.093l0-.021a.387.387,0,0,1,.017-.067.3.3,0,0,1,.03-.063.365.365,0,0,1,.041-.056.454.454,0,0,1,.052-.045A.308.308,0,0,1,6.9,15.04a.228.228,0,0,1,.07-.01.166.166,0,0,1,.086.022.151.151,0,0,1,.058.054.214.214,0,0,1,.029.078.288.288,0,0,1,0,.088l0,.037H6.757a.286.286,0,0,0,0,.082.21.21,0,0,0,.026.071.144.144,0,0,0,.048.047.137.137,0,0,0,.072.018.2.2,0,0,0,.089-.017.3.3,0,0,0,.074-.053l.035.028a.24.24,0,0,1-.091.07.279.279,0,0,1-.111.023A.194.194,0,0,1,6.8,15.555Zm.1-.46a.226.226,0,0,0-.057.04.314.314,0,0,0-.045.057.433.433,0,0,0-.03.066h.324v-.007a.184.184,0,0,0,0-.062.152.152,0,0,0-.021-.054.121.121,0,0,0-.042-.039.123.123,0,0,0-.059-.016A.172.172,0,0,0,6.9,15.1Z"/><path class="a" d="M7.542,15.04h.19l-.008.048h-.19l-.057.332a.128.128,0,0,0,0,.044.073.073,0,0,0,.016.033.061.061,0,0,0,.03.021.111.111,0,0,0,.043.007.233.233,0,0,0,.046,0c.015,0,.031,0,.046-.006l.006.045a.25.25,0,0,1-.054.013l-.056,0a.172.172,0,0,1-.063-.013.112.112,0,0,1-.045-.032.12.12,0,0,1-.025-.049.192.192,0,0,1,0-.064l.057-.332H7.333l.008-.048h.142l.024-.136h.058Z"/><path class="a" d="M8.278,15.439a.267.267,0,0,1-.131.123.236.236,0,0,1-.093.016.182.182,0,0,1-.073-.016.141.141,0,0,1-.053-.037.182.182,0,0,1-.036-.054.248.248,0,0,1-.02-.067.319.319,0,0,1-.008-.07.4.4,0,0,1,0-.07l.017-.1a.47.47,0,0,1,.018-.074.361.361,0,0,1,.03-.073.314.314,0,0,1,.04-.066.266.266,0,0,1,.053-.053.244.244,0,0,1,.065-.036.228.228,0,0,1,.078-.013.179.179,0,0,1,.086.019.171.171,0,0,1,.06.05.188.188,0,0,1,.036.072.414.414,0,0,1,.012.086H8.307A.274.274,0,0,0,8.3,15.01a.156.156,0,0,0-.024-.057.115.115,0,0,0-.042-.04.121.121,0,0,0-.065-.016.164.164,0,0,0-.063.011.188.188,0,0,0-.051.031.206.206,0,0,0-.042.046.381.381,0,0,0-.031.056.4.4,0,0,0-.023.061.443.443,0,0,0-.014.058l-.018.105a.424.424,0,0,0-.006.054.376.376,0,0,0,0,.058.382.382,0,0,0,.011.057.146.146,0,0,0,.025.046.1.1,0,0,0,.04.035.141.141,0,0,0,.057.013.165.165,0,0,0,.072-.013.246.246,0,0,0,.057-.038.267.267,0,0,0,.043-.057.379.379,0,0,0,.029-.066l.055,0A.328.328,0,0,1,8.278,15.439Z"/><path class="a" d="M8.483,15.2a.351.351,0,0,1,.059-.087.269.269,0,0,1,.079-.058.223.223,0,0,1,.1-.021.192.192,0,0,1,.069.012.2.2,0,0,1,.052.031.231.231,0,0,1,.034.042.181.181,0,0,1,.023.051.227.227,0,0,1,.012.063.3.3,0,0,1,0,.067l0,.016a.353.353,0,0,1-.03.1.317.317,0,0,1-.057.085.279.279,0,0,1-.08.061.248.248,0,0,1-.1.021.2.2,0,0,1-.071-.013.146.146,0,0,1-.053-.034.157.157,0,0,1-.032-.04.176.176,0,0,1-.022-.048.244.244,0,0,1-.012-.062.3.3,0,0,1,0-.067l0-.015A.379.379,0,0,1,8.483,15.2Zm.023.2a.238.238,0,0,0,.022.07.131.131,0,0,0,.043.048.128.128,0,0,0,.07.019.165.165,0,0,0,.08-.018.231.231,0,0,0,.062-.05.289.289,0,0,0,.044-.072.345.345,0,0,0,.024-.076l0-.016a.366.366,0,0,0,0-.081.167.167,0,0,0-.025-.072.124.124,0,0,0-.043-.045.128.128,0,0,0-.065-.018.163.163,0,0,0-.08.019.2.2,0,0,0-.062.05.257.257,0,0,0-.044.071.361.361,0,0,0-.024.079l0,.015A.329.329,0,0,0,8.506,15.391Z"/><path class="a" d="M9.1,15.1a.158.158,0,0,1,.052-.051.138.138,0,0,1,.1-.015.08.08,0,0,1,.029.015.091.091,0,0,1,.018.021.1.1,0,0,1,.011.03.174.174,0,0,1,.054-.051.138.138,0,0,1,.07-.019.1.1,0,0,1,.053.013.082.082,0,0,1,.031.033.113.113,0,0,1,.014.046.2.2,0,0,1,0,.054l-.067.392H9.417l.067-.393c0-.012,0-.024,0-.034a.094.094,0,0,0-.007-.031.057.057,0,0,0-.02-.021.054.054,0,0,0-.033-.007.116.116,0,0,0-.038.006.111.111,0,0,0-.03.017.135.135,0,0,0-.025.028.146.146,0,0,0-.014.028l-.07.407H9.194l.068-.4a.124.124,0,0,0,0-.033.069.069,0,0,0-.007-.029.049.049,0,0,0-.019-.019.061.061,0,0,0-.032-.007.116.116,0,0,0-.038.006.149.149,0,0,0-.03.018.118.118,0,0,0-.023.027.148.148,0,0,0-.017.033l-.071.4H8.973l.091-.528h.051Z"/><path class="a" d="M10.055,15.37a.637.637,0,0,1-.023.061.387.387,0,0,1-.038.061.211.211,0,0,1-.05.049.188.188,0,0,1-.055.027.191.191,0,0,1-.064.01.184.184,0,0,1-.047-.006.211.211,0,0,1-.044-.017.148.148,0,0,1-.029-.022.132.132,0,0,1-.024-.029l-.049.267H9.575L9.7,15.04h.053l-.013.074a.22.22,0,0,1,.03-.031.145.145,0,0,1,.036-.025.194.194,0,0,1,.1-.027.15.15,0,0,1,.063.013.143.143,0,0,1,.047.031.162.162,0,0,1,.031.046.26.26,0,0,1,.017.056.393.393,0,0,1,.007.06.6.6,0,0,1,0,.061l0,.011A.49.49,0,0,1,10.055,15.37Zm-.039-.125a.247.247,0,0,0-.005-.054A.277.277,0,0,0,10,15.15a.138.138,0,0,0-.02-.033.093.093,0,0,0-.036-.025.107.107,0,0,0-.049-.01.149.149,0,0,0-.052.008.2.2,0,0,0-.044.022.173.173,0,0,0-.035.031.22.22,0,0,0-.028.038l-.046.257a.118.118,0,0,0,.047.066.1.1,0,0,0,.036.017.142.142,0,0,0,.042.007.185.185,0,0,0,.054-.008.2.2,0,0,0,.045-.024.234.234,0,0,0,.038-.039.3.3,0,0,0,.029-.049.325.325,0,0,0,.019-.05.454.454,0,0,0,.012-.05V15.3A.282.282,0,0,0,10.016,15.245Z"/><path class="a" d="M10.3,15.559a.141.141,0,0,1-.046-.048.192.192,0,0,1-.021-.069.284.284,0,0,1,0-.077l.055-.325h.058l-.055.325a.282.282,0,0,0,0,.058.131.131,0,0,0,.011.052.088.088,0,0,0,.03.037.1.1,0,0,0,.055.014.262.262,0,0,0,.057-.006.225.225,0,0,0,.052-.024.2.2,0,0,0,.042-.036.192.192,0,0,0,.029-.048l.064-.372h.059l-.092.528h-.054l.016-.084a.25.25,0,0,1-.079.07.22.22,0,0,1-.1.024A.15.15,0,0,1,10.3,15.559Z"/><path class="a" d="M11.063,15.04h.19l-.008.048h-.19L11,15.42a.107.107,0,0,0,0,.044.064.064,0,0,0,.016.033.062.062,0,0,0,.029.021.114.114,0,0,0,.043.007.243.243,0,0,0,.047,0c.015,0,.031,0,.046-.006l.005.045a.237.237,0,0,1-.054.013l-.055,0a.182.182,0,0,1-.064-.013.117.117,0,0,1-.069-.081.19.19,0,0,1,0-.064L11,15.088h-.143l.008-.048h.143l.024-.136h.058Z"/><path class="a" d="M11.5,15.555a.19.19,0,0,1-.067-.062.229.229,0,0,1-.033-.08.263.263,0,0,1,0-.093l0-.021a.311.311,0,0,1,.016-.067.364.364,0,0,1,.03-.063.446.446,0,0,1,.041-.056.454.454,0,0,1,.052-.045.337.337,0,0,1,.061-.028.237.237,0,0,1,.07-.01.164.164,0,0,1,.086.022.151.151,0,0,1,.058.054.214.214,0,0,1,.029.078.26.26,0,0,1,0,.088l0,.037h-.382a.229.229,0,0,0,0,.082.189.189,0,0,0,.025.071.144.144,0,0,0,.048.047.137.137,0,0,0,.072.018.2.2,0,0,0,.089-.017.32.32,0,0,0,.075-.053l.034.028a.244.244,0,0,1-.09.07.288.288,0,0,1-.112.023A.187.187,0,0,1,11.5,15.555Zm.1-.46a.214.214,0,0,0-.058.04.271.271,0,0,0-.044.057.439.439,0,0,0-.031.066h.324l0-.007a.162.162,0,0,0,0-.062.136.136,0,0,0-.021-.054.118.118,0,0,0-.041-.039.127.127,0,0,0-.06-.016A.164.164,0,0,0,11.593,15.1Z"/><path class="a" d="M12,15.236a.435.435,0,0,1,.025-.063.367.367,0,0,1,.036-.057.286.286,0,0,1,.046-.046.219.219,0,0,1,.057-.029.187.187,0,0,1,.068-.011.149.149,0,0,1,.047.007.159.159,0,0,1,.042.019.105.105,0,0,1,.028.024.166.166,0,0,1,.023.031l.053-.293h.057l-.129.75H12.3l.013-.067a.281.281,0,0,1-.031.029.375.375,0,0,1-.036.024.207.207,0,0,1-.047.018.224.224,0,0,1-.052.006.157.157,0,0,1-.063-.013.112.112,0,0,1-.045-.032.157.157,0,0,1-.032-.046.253.253,0,0,1-.018-.055.407.407,0,0,1-.007-.061.588.588,0,0,1,0-.06l0-.01A.5.5,0,0,1,12,15.236Zm.038.122a.364.364,0,0,0,0,.048.207.207,0,0,0,.011.046.157.157,0,0,0,.022.038.092.092,0,0,0,.035.026.127.127,0,0,0,.05.01.207.207,0,0,0,.05-.006.185.185,0,0,0,.045-.021.239.239,0,0,0,.035-.028.3.3,0,0,0,.029-.035l.044-.254a.126.126,0,0,0-.017-.041.135.135,0,0,0-.026-.032.151.151,0,0,0-.035-.02.127.127,0,0,0-.044-.007.133.133,0,0,0-.078.019.177.177,0,0,0-.058.051.244.244,0,0,0-.039.071.376.376,0,0,0-.021.078l0,.01C12.04,15.326,12.039,15.342,12.038,15.358Z"/><path class="a" d="M12.947,15.334a.113.113,0,0,0-.029-.042.194.194,0,0,0-.051-.033c-.02-.009-.04-.018-.059-.025a.406.406,0,0,1-.069-.029.3.3,0,0,1-.061-.041.165.165,0,0,1-.042-.056.139.139,0,0,1-.01-.075.169.169,0,0,1,.027-.078.2.2,0,0,1,.057-.059.219.219,0,0,1,.075-.037.286.286,0,0,1,.082-.012.2.2,0,0,1,.082.017.182.182,0,0,1,.062.043.185.185,0,0,1,.039.065.226.226,0,0,1,.011.083H13A.237.237,0,0,0,13,14.994a.143.143,0,0,0-.026-.049.119.119,0,0,0-.044-.033.14.14,0,0,0-.06-.013.208.208,0,0,0-.06.009.172.172,0,0,0-.055.025.168.168,0,0,0-.043.041.137.137,0,0,0-.022.058.094.094,0,0,0,.006.054.121.121,0,0,0,.03.041.223.223,0,0,0,.05.031c.02.009.039.017.057.023a.44.44,0,0,1,.075.033.241.241,0,0,1,.062.044.187.187,0,0,1,.038.058.151.151,0,0,1,.009.075.174.174,0,0,1-.028.081.2.2,0,0,1-.057.058.236.236,0,0,1-.077.036.3.3,0,0,1-.084.012.249.249,0,0,1-.087-.016.188.188,0,0,1-.068-.041.173.173,0,0,1-.045-.065.2.2,0,0,1-.014-.086h.057a.171.171,0,0,0,.012.065.127.127,0,0,0,.032.049.159.159,0,0,0,.05.032.21.21,0,0,0,.064.01.27.27,0,0,0,.063-.007.187.187,0,0,0,.057-.027.143.143,0,0,0,.043-.042.135.135,0,0,0,.023-.059A.106.106,0,0,0,12.947,15.334Z"/><path class="a" d="M13.411,15.04h.19l-.008.048H13.4l-.057.332a.128.128,0,0,0,0,.044.073.073,0,0,0,.016.033.065.065,0,0,0,.03.021.111.111,0,0,0,.043.007.233.233,0,0,0,.046,0c.016,0,.031,0,.046-.006l.006.045a.237.237,0,0,1-.054.013l-.056,0a.172.172,0,0,1-.063-.013.112.112,0,0,1-.045-.032.108.108,0,0,1-.024-.049.19.19,0,0,1,0-.064l.057-.332H13.2l.008-.048h.143l.023-.136h.059Z"/><path class="a" d="M13.937,15.48l.258-.44h.068l-.37.613a.407.407,0,0,1-.033.048.265.265,0,0,1-.041.041.144.144,0,0,1-.049.029.158.158,0,0,1-.058.011l-.025,0-.025,0,.011-.048.02,0h.02a.091.091,0,0,0,.041-.008.148.148,0,0,0,.036-.023.22.22,0,0,0,.03-.031.364.364,0,0,0,.024-.035l.051-.082-.141-.512h.062l.111.42Z"/><path class="a" d="M14.687,14.818l-.122.7h.174l-.009.052h-.413l.009-.052h.182l.112-.645h-.182l.009-.053Z"/><path class="a" d="M15.019,15.555a.19.19,0,0,1-.067-.062.23.23,0,0,1-.034-.08.288.288,0,0,1,0-.093l0-.021a.314.314,0,0,1,.017-.067.3.3,0,0,1,.029-.063.325.325,0,0,1,.094-.1.337.337,0,0,1,.061-.028.232.232,0,0,1,.07-.01.164.164,0,0,1,.086.022.159.159,0,0,1,.058.054.234.234,0,0,1,.029.078.288.288,0,0,1,0,.088l-.006.037h-.382a.286.286,0,0,0,0,.082.191.191,0,0,0,.026.071.144.144,0,0,0,.048.047.137.137,0,0,0,.072.018.2.2,0,0,0,.089-.017.3.3,0,0,0,.074-.053l.034.028a.233.233,0,0,1-.089.07.288.288,0,0,1-.112.023A.187.187,0,0,1,15.019,15.555Zm.1-.46a.226.226,0,0,0-.057.04.271.271,0,0,0-.044.057.359.359,0,0,0-.031.066h.324l0-.007a.162.162,0,0,0,0-.062.136.136,0,0,0-.021-.054.113.113,0,0,0-.042-.039.12.12,0,0,0-.059-.016A.172.172,0,0,0,15.114,15.1Z"/><path class="a" d="M15.637,15.186a.666.666,0,0,1,.03-.1.878.878,0,0,1,.041-.095.518.518,0,0,1,.054-.088.426.426,0,0,1,.066-.074.4.4,0,0,1,.081-.06l.01.042a.446.446,0,0,0-.1.092.568.568,0,0,0-.07.116.731.731,0,0,0-.048.128,1.064,1.064,0,0,0-.029.131v.01c0,.025-.007.052-.01.079a.8.8,0,0,0,0,.085.636.636,0,0,0,.006.087.454.454,0,0,0,.018.083.3.3,0,0,0,.034.075.22.22,0,0,0,.052.062l-.018.037a.3.3,0,0,1-.064-.064.361.361,0,0,1-.043-.08.485.485,0,0,1-.026-.089.494.494,0,0,1-.012-.093.58.58,0,0,1,0-.093.623.623,0,0,1,.009-.089v-.008A.9.9,0,0,1,15.637,15.186Z"/><path class="a" d="M16.192,15.555a.2.2,0,0,1-.066-.062.212.212,0,0,1-.033-.08.263.263,0,0,1,0-.093l0-.021a.5.5,0,0,1,.016-.067.4.4,0,0,1,.072-.119.443.443,0,0,1,.051-.045.381.381,0,0,1,.062-.028.23.23,0,0,1,.069-.01.165.165,0,0,1,.087.022.151.151,0,0,1,.058.054.234.234,0,0,1,.029.078.26.26,0,0,1,0,.088l-.005.037h-.383a.253.253,0,0,0,0,.082.16.16,0,0,0,.025.071.144.144,0,0,0,.048.047.14.14,0,0,0,.072.018.2.2,0,0,0,.089-.017.32.32,0,0,0,.075-.053l.033.028a.229.229,0,0,1-.09.07.279.279,0,0,1-.111.023A.194.194,0,0,1,16.192,15.555Zm.1-.46a.256.256,0,0,0-.059.04.3.3,0,0,0-.043.057.359.359,0,0,0-.031.066h.324v-.007a.184.184,0,0,0,0-.062.136.136,0,0,0-.021-.054.118.118,0,0,0-.041-.039.131.131,0,0,0-.061-.016A.166.166,0,0,0,16.289,15.1Z"/><path class="a" d="M17.035,14.818l-.121.7h.173l-.009.052h-.413l.009-.052h.181l.114-.645h-.183l.009-.053Z"/><path class="a" d="M17.366,15.555a.187.187,0,0,1-.066-.062.212.212,0,0,1-.033-.08.263.263,0,0,1,0-.093l0-.021a.387.387,0,0,1,.017-.067.364.364,0,0,1,.03-.063.309.309,0,0,1,.041-.056.382.382,0,0,1,.052-.045.308.308,0,0,1,.061-.028.228.228,0,0,1,.07-.01.17.17,0,0,1,.144.076.214.214,0,0,1,.029.078.288.288,0,0,1,0,.088l-.006.037h-.382a.229.229,0,0,0,0,.082.191.191,0,0,0,.026.071.13.13,0,0,0,.049.047.134.134,0,0,0,.071.018.2.2,0,0,0,.089-.017.3.3,0,0,0,.074-.053l.035.028a.248.248,0,0,1-.091.07.279.279,0,0,1-.111.023A.2.2,0,0,1,17.366,15.555Zm.1-.46a.209.209,0,0,0-.057.04.314.314,0,0,0-.045.057.433.433,0,0,0-.03.066h.323l0-.007a.162.162,0,0,0,0-.062.124.124,0,0,0-.062-.093.123.123,0,0,0-.059-.016A.169.169,0,0,0,17.462,15.1Z"/><path class="a" d="M17.908,15.1a.158.158,0,0,1,.052-.051.121.121,0,0,1,.069-.019.118.118,0,0,1,.034,0,.073.073,0,0,1,.029.015.091.091,0,0,1,.018.021.082.082,0,0,1,.011.03.174.174,0,0,1,.054-.051.137.137,0,0,1,.071-.019.093.093,0,0,1,.052.013.085.085,0,0,1,.032.033.13.13,0,0,1,.013.046.2.2,0,0,1,0,.054l-.067.392h-.054l.067-.393a.206.206,0,0,0,0-.034.094.094,0,0,0-.007-.031.063.063,0,0,0-.019-.021.059.059,0,0,0-.034-.007.121.121,0,0,0-.038.006.128.128,0,0,0-.03.017.108.108,0,0,0-.024.028.11.11,0,0,0-.015.028l-.07.407H18l.068-.4a.134.134,0,0,0,0-.062.056.056,0,0,0-.052-.026.106.106,0,0,0-.037.006.133.133,0,0,0-.031.018.149.149,0,0,0-.023.027.211.211,0,0,0-.018.033l-.07.4h-.053l.091-.528h.052Z"/><path class="a" d="M18.54,15.555a.187.187,0,0,1-.066-.062.23.23,0,0,1-.034-.08.289.289,0,0,1,0-.093V15.3a.39.39,0,0,1,.018-.067.346.346,0,0,1,.07-.119.465.465,0,0,1,.053-.045.308.308,0,0,1,.061-.028.228.228,0,0,1,.07-.01.169.169,0,0,1,.086.022.167.167,0,0,1,.058.054.214.214,0,0,1,.029.078.288.288,0,0,1,0,.088l-.006.037H18.5a.229.229,0,0,0,0,.082.191.191,0,0,0,.026.071.135.135,0,0,0,.048.047.137.137,0,0,0,.072.018.2.2,0,0,0,.089-.017.3.3,0,0,0,.074-.053l.035.028a.248.248,0,0,1-.091.07.279.279,0,0,1-.111.023A.194.194,0,0,1,18.54,15.555Zm.1-.46a.209.209,0,0,0-.057.04.314.314,0,0,0-.045.057.354.354,0,0,0-.03.066h.323l0-.007a.162.162,0,0,0,0-.062.135.135,0,0,0-.02-.054.121.121,0,0,0-.042-.039.126.126,0,0,0-.059-.016A.169.169,0,0,0,18.636,15.1Z"/><path class="a" d="M19.091,15.04h.053l-.018.1a.334.334,0,0,1,.038-.045.222.222,0,0,1,.045-.036.245.245,0,0,1,.052-.024.183.183,0,0,1,.057-.008.154.154,0,0,1,.075.017.122.122,0,0,1,.046.044.164.164,0,0,1,.024.064.284.284,0,0,1,0,.077l-.057.336h-.057l.057-.338a.211.211,0,0,0,0-.056.135.135,0,0,0-.013-.048.084.084,0,0,0-.035-.032.112.112,0,0,0-.055-.012.159.159,0,0,0-.057.01.215.215,0,0,0-.052.027.273.273,0,0,0-.044.039.287.287,0,0,0-.031.049l-.062.361H19Z"/><path class="a" d="M19.868,15.04h.19l-.008.048h-.191l-.056.332a.128.128,0,0,0,0,.044.084.084,0,0,0,.015.033.069.069,0,0,0,.031.021.108.108,0,0,0,.043.007.223.223,0,0,0,.045,0c.016,0,.032,0,.047-.006l0,.045a.228.228,0,0,1-.053.013l-.056,0a.178.178,0,0,1-.064-.013.12.12,0,0,1-.045-.032.118.118,0,0,1-.024-.049.169.169,0,0,1,0-.064l.057-.332h-.143l.008-.048h.143l.023-.136h.059Z"/><path class="a" d="M20.488,15.433a.832.832,0,0,1-.056.143.691.691,0,0,1-.086.127.444.444,0,0,1-.117.1l-.01-.039a.451.451,0,0,0,.1-.093.629.629,0,0,0,.071-.117.935.935,0,0,0,.048-.128,1.113,1.113,0,0,0,.028-.132l0-.01c0-.025.007-.05.009-.078a.607.607,0,0,0,0-.086.633.633,0,0,0-.006-.086.543.543,0,0,0-.018-.084.363.363,0,0,0-.033-.075.242.242,0,0,0-.053-.062l.018-.037a.294.294,0,0,1,.063.064.388.388,0,0,1,.044.08.485.485,0,0,1,.026.089c.006.031.01.062.013.094s0,.063,0,.093,0,.061-.009.088v.008A.921.921,0,0,1,20.488,15.433Z"/><path class="a" d="M4.514,16.492a.044.044,0,0,1,.036-.015.042.042,0,0,1,.034.013.051.051,0,0,1,.013.035.054.054,0,0,1-.016.036.053.053,0,0,1-.036.013.049.049,0,0,1-.034-.013.046.046,0,0,1-.012-.034A.053.053,0,0,1,4.514,16.492Z"/><path class="a" d="M4.958,16.236a.435.435,0,0,1,.025-.063.362.362,0,0,1,.035-.057.25.25,0,0,1,.046-.046.257.257,0,0,1,.057-.03.215.215,0,0,1,.068-.011.186.186,0,0,1,.049.008.135.135,0,0,1,.042.02.113.113,0,0,1,.029.025.227.227,0,0,1,.022.032l.017-.074H5.4l-.089.519a.317.317,0,0,1-.028.087.238.238,0,0,1-.051.07.251.251,0,0,1-.071.047.24.24,0,0,1-.09.016.2.2,0,0,1-.1-.025.193.193,0,0,1-.073-.066l.035-.036A.187.187,0,0,0,5,16.708a.132.132,0,0,0,.075.021.165.165,0,0,0,.068-.012.187.187,0,0,0,.055-.036.194.194,0,0,0,.038-.054.239.239,0,0,0,.023-.065l.012-.059a.2.2,0,0,1-.03.028.271.271,0,0,1-.035.024.264.264,0,0,1-.047.017.222.222,0,0,1-.051.006.154.154,0,0,1-.063-.013A.123.123,0,0,1,5,16.533a.157.157,0,0,1-.032-.046.32.32,0,0,1-.017-.055.248.248,0,0,1-.007-.061.4.4,0,0,1,0-.06l0-.01A.5.5,0,0,1,4.958,16.236ZM5,16.358a.188.188,0,0,0,0,.048.156.156,0,0,0,.01.045.126.126,0,0,0,.023.039.092.092,0,0,0,.035.026.141.141,0,0,0,.049.011.242.242,0,0,0,.048-.006.208.208,0,0,0,.043-.019.213.213,0,0,0,.069-.069l.043-.249a.113.113,0,0,0-.015-.039.1.1,0,0,0-.024-.033.145.145,0,0,0-.036-.022.121.121,0,0,0-.046-.008.139.139,0,0,0-.079.019.177.177,0,0,0-.058.051.27.27,0,0,0-.039.071A.564.564,0,0,0,5,16.3v.01A.242.242,0,0,0,5,16.358Z"/><path class="a" d="M5.627,16.555a.2.2,0,0,1-.066-.062.212.212,0,0,1-.033-.08.288.288,0,0,1,0-.093l0-.021a.387.387,0,0,1,.017-.067.364.364,0,0,1,.03-.063.446.446,0,0,1,.041-.056.454.454,0,0,1,.052-.045.337.337,0,0,1,.061-.028.232.232,0,0,1,.07-.01.164.164,0,0,1,.086.022.151.151,0,0,1,.058.054.214.214,0,0,1,.029.078.26.26,0,0,1,0,.088l0,.037H5.583a.253.253,0,0,0,0,.082.189.189,0,0,0,.025.071.144.144,0,0,0,.048.047.137.137,0,0,0,.072.018.2.2,0,0,0,.089-.017.32.32,0,0,0,.075-.053l.034.028a.24.24,0,0,1-.091.07.279.279,0,0,1-.111.023A.194.194,0,0,1,5.627,16.555Zm.1-.46a.214.214,0,0,0-.058.04.271.271,0,0,0-.044.057.359.359,0,0,0-.031.066h.324l0-.007a.215.215,0,0,0,0-.062.136.136,0,0,0-.021-.054.113.113,0,0,0-.042-.039A.123.123,0,0,0,5.8,16.08.164.164,0,0,0,5.724,16.1Z"/><path class="a" d="M6.368,16.04h.19l-.008.048H6.36L6.3,16.42a.128.128,0,0,0,0,.044.073.073,0,0,0,.016.033.065.065,0,0,0,.03.021.111.111,0,0,0,.043.007.233.233,0,0,0,.046,0c.016,0,.031,0,.046-.006l.006.045a.237.237,0,0,1-.054.013l-.056,0a.172.172,0,0,1-.063-.013.112.112,0,0,1-.045-.032.108.108,0,0,1-.024-.049.19.19,0,0,1,0-.064l.057-.332H6.159l.008-.048H6.31l.023-.136h.059Z"/><path class="a" d="M6.742,16.568H6.685l.123-.711h.213a.219.219,0,0,1,.082.018.178.178,0,0,1,.061.043.175.175,0,0,1,.037.065.227.227,0,0,1,.006.083.218.218,0,0,1-.028.086.241.241,0,0,1-.056.067.272.272,0,0,1-.077.042.263.263,0,0,1-.089.014H6.793Zm.216-.342a.2.2,0,0,0,.068-.012.227.227,0,0,0,.057-.032.171.171,0,0,0,.043-.05.18.18,0,0,0,.024-.066.15.15,0,0,0,0-.06.127.127,0,0,0-.024-.051.13.13,0,0,0-.043-.033.133.133,0,0,0-.06-.014H6.857l-.055.317Z"/><path class="a" d="M7.73,16.032l.04.009-.015.056-.039-.007a.255.255,0,0,0-.039,0,.248.248,0,0,0-.128.033.225.225,0,0,0-.092.109l-.058.338H7.34l.091-.528h.055l-.013.08,0,.025a.348.348,0,0,1,.044-.049.286.286,0,0,1,.052-.036.257.257,0,0,1,.06-.023.273.273,0,0,1,.106,0Z"/><path class="a" d="M7.9,16.2a.351.351,0,0,1,.059-.087.283.283,0,0,1,.079-.058.223.223,0,0,1,.1-.021.192.192,0,0,1,.069.012.2.2,0,0,1,.052.031.231.231,0,0,1,.034.042.181.181,0,0,1,.023.051.227.227,0,0,1,.012.063.3.3,0,0,1,0,.067l0,.016a.387.387,0,0,1-.029.1.345.345,0,0,1-.058.085.279.279,0,0,1-.08.061.245.245,0,0,1-.1.021.2.2,0,0,1-.071-.013.146.146,0,0,1-.053-.034.182.182,0,0,1-.032-.04.176.176,0,0,1-.022-.048.244.244,0,0,1-.012-.062.3.3,0,0,1,0-.067l0-.015A.379.379,0,0,1,7.9,16.2Zm.023.195a.238.238,0,0,0,.022.07.131.131,0,0,0,.043.048.128.128,0,0,0,.07.019.165.165,0,0,0,.08-.018.231.231,0,0,0,.062-.05.262.262,0,0,0,.044-.072.345.345,0,0,0,.024-.076l0-.016a.275.275,0,0,0,0-.081.167.167,0,0,0-.025-.072A.124.124,0,0,0,8.2,16.1a.128.128,0,0,0-.065-.018.166.166,0,0,0-.08.019.2.2,0,0,0-.062.05.257.257,0,0,0-.044.071.361.361,0,0,0-.024.079l0,.015A.394.394,0,0,0,7.919,16.391Z"/><path class="a" d="M8.881,16.37a.449.449,0,0,1-.023.061.326.326,0,0,1-.038.061.194.194,0,0,1-.05.049.188.188,0,0,1-.055.027.191.191,0,0,1-.064.01.188.188,0,0,1-.09-.023.129.129,0,0,1-.03-.022.132.132,0,0,1-.024-.029l-.049.267H8.4l.127-.731h.053l-.013.074a.22.22,0,0,1,.03-.031.145.145,0,0,1,.036-.025.2.2,0,0,1,.048-.02.183.183,0,0,1,.053-.007.15.15,0,0,1,.063.013.143.143,0,0,1,.047.031.162.162,0,0,1,.031.046.262.262,0,0,1,.018.056.58.58,0,0,1,.006.06.6.6,0,0,1,0,.061v.011A.5.5,0,0,1,8.881,16.37Zm-.039-.125a.247.247,0,0,0-.005-.054.193.193,0,0,0-.012-.041.138.138,0,0,0-.02-.033.1.1,0,0,0-.035-.025.115.115,0,0,0-.05-.01.153.153,0,0,0-.052.008.2.2,0,0,0-.044.022.2.2,0,0,0-.035.031.22.22,0,0,0-.028.038l-.045.257a.1.1,0,0,0,.019.039.115.115,0,0,0,.027.027.1.1,0,0,0,.036.017.142.142,0,0,0,.042.007.18.18,0,0,0,.054-.008.176.176,0,0,0,.045-.024.234.234,0,0,0,.038-.039.243.243,0,0,0,.029-.049.325.325,0,0,0,.019-.05.3.3,0,0,0,.012-.05V16.3A.282.282,0,0,0,8.842,16.245Z"/><path class="a" d="M9.149,16.555a.2.2,0,0,1-.066-.062.23.23,0,0,1-.034-.08.263.263,0,0,1,0-.093l0-.021a.384.384,0,0,1,.016-.067.364.364,0,0,1,.03-.063.372.372,0,0,1,.042-.056.33.33,0,0,1,.052-.045.308.308,0,0,1,.061-.028.226.226,0,0,1,.069-.01.17.17,0,0,1,.087.022.156.156,0,0,1,.057.054.215.215,0,0,1,.03.078.288.288,0,0,1,0,.088l-.006.037H9.105a.286.286,0,0,0,0,.082.189.189,0,0,0,.025.071.157.157,0,0,0,.049.047.137.137,0,0,0,.072.018.2.2,0,0,0,.088-.017.283.283,0,0,0,.075-.053l.034.028a.237.237,0,0,1-.09.07.279.279,0,0,1-.111.023A.194.194,0,0,1,9.149,16.555Zm.1-.46a.226.226,0,0,0-.057.04.276.276,0,0,0-.045.057.433.433,0,0,0-.03.066h.324v-.007a.162.162,0,0,0,0-.062.122.122,0,0,0-.021-.054.11.11,0,0,0-.041-.039.127.127,0,0,0-.06-.016A.171.171,0,0,0,9.245,16.1Z"/><path class="a" d="M10.078,16.032a.274.274,0,0,1,.039.009L10.1,16.1l-.039-.007a.255.255,0,0,0-.039,0,.248.248,0,0,0-.128.033.225.225,0,0,0-.092.109l-.058.338H9.688l.091-.528h.054l-.012.08,0,.025A.3.3,0,0,1,9.86,16.1a.255.255,0,0,1,.052-.036.267.267,0,0,1,.059-.023.291.291,0,0,1,.066-.008Z"/><path class="a" d="M10.477,16.04h.19l-.009.048h-.19l-.056.332a.107.107,0,0,0,0,.044.073.073,0,0,0,.016.033.062.062,0,0,0,.029.021.114.114,0,0,0,.043.007.243.243,0,0,0,.047,0c.015,0,.031,0,.046-.006l.005.045a.237.237,0,0,1-.054.013l-.055,0a.182.182,0,0,1-.064-.013.116.116,0,0,1-.044-.032.109.109,0,0,1-.025-.049.169.169,0,0,1,0-.064l.056-.332h-.142l.007-.048h.143l.024-.136H10.5Z"/><path class="a" d="M11,16.48l.259-.44h.068l-.371.613a.407.407,0,0,1-.033.048.227.227,0,0,1-.041.041.144.144,0,0,1-.049.029.158.158,0,0,1-.058.011l-.025,0-.025-.005.011-.048.02,0h.02a.1.1,0,0,0,.042-.008.141.141,0,0,0,.035-.023.22.22,0,0,0,.03-.031l.025-.035.05-.082-.141-.512h.062l.111.42Z"/><path class="a" d="M11.436,15.857h.06l.085.584,0,.038.016-.036.268-.586h.063l-.332.711h-.053Z"/><path class="a" d="M12.31,16.529c0-.012,0-.026,0-.039a.211.211,0,0,1-.035.032.351.351,0,0,1-.04.027.266.266,0,0,1-.058.021.245.245,0,0,1-.062.008.184.184,0,0,1-.061-.012.112.112,0,0,1-.049-.029.12.12,0,0,1-.039-.107.171.171,0,0,1,.016-.058.148.148,0,0,1,.034-.044.183.183,0,0,1,.045-.032.274.274,0,0,1,.054-.021l.058-.011.058,0h.115l.009-.06a.111.111,0,0,0,0-.052.1.1,0,0,0-.024-.038.105.105,0,0,0-.04-.023.137.137,0,0,0-.051-.008.157.157,0,0,0-.052.006.171.171,0,0,0-.046.019.154.154,0,0,0-.038.034.12.12,0,0,0-.022.047h-.058a.158.158,0,0,1,.028-.068.206.206,0,0,1,.053-.049.281.281,0,0,1,.066-.029.271.271,0,0,1,.074-.011.235.235,0,0,1,.071.013.194.194,0,0,1,.058.033.148.148,0,0,1,.035.055.168.168,0,0,1,.006.072l-.043.255a.315.315,0,0,0,0,.053.453.453,0,0,0,0,.052v.006h-.06A.254.254,0,0,1,12.31,16.529Zm-.125-.009a.227.227,0,0,0,.053-.022.279.279,0,0,0,.046-.033.309.309,0,0,0,.037-.043l.021-.115h-.1l-.054,0a.295.295,0,0,0-.091.025.127.127,0,0,0-.031.02.091.091,0,0,0-.025.03.106.106,0,0,0-.014.04.077.077,0,0,0,0,.043.066.066,0,0,0,.021.031.081.081,0,0,0,.033.021.147.147,0,0,0,.042.006A.22.22,0,0,0,12.185,16.52Z"/><path class="a" d="M12.926,15.818l-.121.7h.173l-.009.052h-.413l.009-.052h.182l.112-.645h-.182l.009-.053Z"/><path class="a" d="M13.235,16.559a.132.132,0,0,1-.046-.048.193.193,0,0,1-.022-.069.4.4,0,0,1,0-.077l.056-.325h.057l-.055.325a.282.282,0,0,0,0,.058.178.178,0,0,0,.011.052.1.1,0,0,0,.031.037.1.1,0,0,0,.055.014.276.276,0,0,0,.057-.006.225.225,0,0,0,.052-.024.174.174,0,0,0,.041-.036.2.2,0,0,0,.03-.048l.064-.372h.058l-.091.528h-.054l.015-.084a.239.239,0,0,1-.079.07.219.219,0,0,1-.1.024A.145.145,0,0,1,13.235,16.559Z"/><path class="a" d="M13.844,16.555a.2.2,0,0,1-.066-.062.212.212,0,0,1-.033-.08.263.263,0,0,1,0-.093l0-.021a.387.387,0,0,1,.017-.067.3.3,0,0,1,.03-.063.365.365,0,0,1,.041-.056.454.454,0,0,1,.052-.045.308.308,0,0,1,.061-.028.228.228,0,0,1,.07-.01.166.166,0,0,1,.086.022.151.151,0,0,1,.058.054.214.214,0,0,1,.029.078.288.288,0,0,1,0,.088l-.005.037H13.8a.286.286,0,0,0,0,.082.21.21,0,0,0,.026.071.144.144,0,0,0,.048.047.137.137,0,0,0,.072.018.2.2,0,0,0,.089-.017.3.3,0,0,0,.074-.053l.035.028a.24.24,0,0,1-.091.07.279.279,0,0,1-.111.023A.194.194,0,0,1,13.844,16.555Zm.1-.46a.226.226,0,0,0-.057.04.314.314,0,0,0-.045.057.433.433,0,0,0-.03.066h.324v-.007a.184.184,0,0,0,0-.062.152.152,0,0,0-.021-.054.121.121,0,0,0-.042-.039.123.123,0,0,0-.059-.016A.172.172,0,0,0,13.94,16.1Z"/><path class="a" d="M14.462,16.186a.813.813,0,0,1,.031-.1.716.716,0,0,1,.041-.095.708.708,0,0,1,.053-.088.521.521,0,0,1,.067-.074.366.366,0,0,1,.081-.059l.01.041a.447.447,0,0,0-.1.092.6.6,0,0,0-.07.116.731.731,0,0,0-.048.128,1.287,1.287,0,0,0-.029.131v.01c0,.025-.007.052-.01.079a.8.8,0,0,0,0,.085.636.636,0,0,0,.006.087.384.384,0,0,0,.018.083.335.335,0,0,0,.033.075.264.264,0,0,0,.053.062l-.018.037a.255.255,0,0,1-.063-.064.327.327,0,0,1-.044-.08.485.485,0,0,1-.026-.089.592.592,0,0,1-.012-.093c0-.032,0-.063,0-.093s.005-.061.009-.089v-.008C14.448,16.25,14.454,16.219,14.462,16.186Z"/><path class="a" d="M15.122,16.036h-.044l.026-.16.009-.058h.051l-.011.065Zm.144,0h-.044l.027-.159.009-.059h.05l-.011.065Z"/><path class="a" d="M15.832,16.529a.272.272,0,0,1,0-.039.26.26,0,0,1-.035.032.468.468,0,0,1-.04.027.286.286,0,0,1-.058.021.251.251,0,0,1-.062.008.179.179,0,0,1-.061-.012.112.112,0,0,1-.049-.029.119.119,0,0,1-.032-.046.131.131,0,0,1-.008-.061.171.171,0,0,1,.017-.058.148.148,0,0,1,.034-.044.183.183,0,0,1,.045-.032.252.252,0,0,1,.054-.021l.058-.011.058,0h.114l.01-.06a.111.111,0,0,0,0-.052.136.136,0,0,0-.024-.038.105.105,0,0,0-.04-.023.14.14,0,0,0-.051-.008.154.154,0,0,0-.052.006.171.171,0,0,0-.046.019.154.154,0,0,0-.038.034.109.109,0,0,0-.023.047h-.057a.158.158,0,0,1,.028-.068.206.206,0,0,1,.053-.049.264.264,0,0,1,.066-.029.271.271,0,0,1,.074-.011.235.235,0,0,1,.071.013.178.178,0,0,1,.057.033.139.139,0,0,1,.036.055.185.185,0,0,1,.006.072l-.043.255a.315.315,0,0,0,0,.053.453.453,0,0,0,0,.052v.006h-.06A.17.17,0,0,1,15.832,16.529Zm-.125-.009a.247.247,0,0,0,.053-.022.279.279,0,0,0,.046-.033.309.309,0,0,0,.037-.043l.02-.115h-.1l-.054,0a.255.255,0,0,0-.055.011.267.267,0,0,0-.036.014.11.11,0,0,0-.031.02.094.094,0,0,0-.026.03.125.125,0,0,0-.013.04.077.077,0,0,0,0,.043.072.072,0,0,0,.02.031.092.092,0,0,0,.034.021.142.142,0,0,0,.042.006A.224.224,0,0,0,15.707,16.52Z"/><path class="a" d="M16.156,16.04h.053l-.018.1a.274.274,0,0,1,.038-.045.254.254,0,0,1,.045-.036.3.3,0,0,1,.052-.024.183.183,0,0,1,.059-.008.149.149,0,0,1,.073.017.12.12,0,0,1,.048.044.161.161,0,0,1,.021.064.249.249,0,0,1,0,.077l-.056.336h-.058l.058-.338a.264.264,0,0,0,0-.056.1.1,0,0,0-.015-.048.085.085,0,0,0-.033-.032.116.116,0,0,0-.056-.012.158.158,0,0,0-.056.01.183.183,0,0,0-.052.027.236.236,0,0,0-.044.039.2.2,0,0,0-.031.049l-.063.361h-.058Z"/><path class="a" d="M17,16.04l-.083.476h.175l-.009.052h-.413l.009-.052h.181l.074-.424h-.181l.008-.052Zm-.035-.177a.045.045,0,0,1,.032-.012.037.037,0,0,1,.031.012.047.047,0,0,1,.01.032.052.052,0,0,1-.013.031.045.045,0,0,1-.034.012.038.038,0,0,1-.029-.011.039.039,0,0,1-.011-.031A.055.055,0,0,1,16.96,15.863Z"/><path class="a" d="M17.321,16.1a.168.168,0,0,1,.052-.051.123.123,0,0,1,.069-.019.129.129,0,0,1,.035,0,.076.076,0,0,1,.028.015.072.072,0,0,1,.018.021.082.082,0,0,1,.011.03.174.174,0,0,1,.054-.051.137.137,0,0,1,.071-.019.093.093,0,0,1,.052.013.085.085,0,0,1,.032.033.13.13,0,0,1,.013.046.2.2,0,0,1,0,.054l-.067.392h-.054l.067-.393a.206.206,0,0,0,0-.034.094.094,0,0,0-.007-.031.054.054,0,0,0-.019-.021.058.058,0,0,0-.033-.007.123.123,0,0,0-.039.006.128.128,0,0,0-.03.017.108.108,0,0,0-.024.028.11.11,0,0,0-.015.028l-.07.407h-.055l.068-.4a.124.124,0,0,0,0-.033.088.088,0,0,0-.006-.029.061.061,0,0,0-.02-.019.058.058,0,0,0-.032-.007.106.106,0,0,0-.037.006.133.133,0,0,0-.031.018.149.149,0,0,0-.023.027.211.211,0,0,0-.018.033l-.07.4h-.054l.092-.528h.052Z"/><path class="a" d="M18.18,16.529c0-.012,0-.026,0-.039a.217.217,0,0,1-.036.032.227.227,0,0,1-.1.048.259.259,0,0,1-.063.008.173.173,0,0,1-.06-.012.107.107,0,0,1-.049-.029.109.109,0,0,1-.032-.046.12.12,0,0,1-.007-.061.2.2,0,0,1,.015-.058.194.194,0,0,1,.081-.076.236.236,0,0,1,.052-.021l.059-.011.057,0h.115l.01-.06a.146.146,0,0,0,0-.052.1.1,0,0,0-.064-.061.144.144,0,0,0-.051-.008.154.154,0,0,0-.052.006.159.159,0,0,0-.046.019.138.138,0,0,0-.038.034.122.122,0,0,0-.023.047H17.9a.147.147,0,0,1,.028-.068.206.206,0,0,1,.053-.049.281.281,0,0,1,.066-.029.264.264,0,0,1,.073-.011.248.248,0,0,1,.073.013.173.173,0,0,1,.056.033.137.137,0,0,1,.035.055.142.142,0,0,1,.006.072l-.043.255a.315.315,0,0,0,0,.053.453.453,0,0,0,0,.052v.006h-.059A.17.17,0,0,1,18.18,16.529Zm-.125-.009a.22.22,0,0,0,.052-.022.215.215,0,0,0,.046-.033.26.26,0,0,0,.038-.043l.02-.115h-.1l-.053,0A.244.244,0,0,0,18,16.32a.224.224,0,0,0-.036.014.11.11,0,0,0-.031.02.108.108,0,0,0-.026.03.106.106,0,0,0-.014.04.1.1,0,0,0,0,.043.077.077,0,0,0,.022.031.081.081,0,0,0,.033.021.142.142,0,0,0,.042.006A.224.224,0,0,0,18.055,16.52Z"/><path class="a" d="M18.694,16.04h.19l-.008.048h-.19l-.057.332a.128.128,0,0,0,0,.044.073.073,0,0,0,.016.033.061.061,0,0,0,.03.021.111.111,0,0,0,.043.007.236.236,0,0,0,.046,0l.047-.006,0,.045a.228.228,0,0,1-.053.013.525.525,0,0,1-.056,0,.172.172,0,0,1-.063-.013.106.106,0,0,1-.045-.032.109.109,0,0,1-.025-.049.169.169,0,0,1,0-.064l.057-.332h-.143l.008-.048h.143l.023-.136h.059Z"/><path class="a" d="M19.343,16.04l-.083.476h.175l-.009.052h-.413l.008-.052H19.2l.073-.424H19.1l.008-.052Zm-.035-.177a.044.044,0,0,1,.032-.012.038.038,0,0,1,.031.012.047.047,0,0,1,0,.063.042.042,0,0,1-.033.012.036.036,0,0,1-.029-.011.039.039,0,0,1-.011-.031A.055.055,0,0,1,19.308,15.863Z"/><path class="a" d="M19.635,16.2a.348.348,0,0,1,.058-.087.3.3,0,0,1,.079-.058.233.233,0,0,1,.1-.021.183.183,0,0,1,.068.012.211.211,0,0,1,.053.031.191.191,0,0,1,.033.042.217.217,0,0,1,.024.051.225.225,0,0,1,.011.063.3.3,0,0,1,0,.067l0,.016a.353.353,0,0,1-.03.1.314.314,0,0,1-.056.085.3.3,0,0,1-.081.061.253.253,0,0,1-.1.021.194.194,0,0,1-.07-.013.146.146,0,0,1-.053-.034.157.157,0,0,1-.032-.04.214.214,0,0,1-.023-.048.3.3,0,0,1-.011-.062.25.25,0,0,1,0-.067V16.3A.382.382,0,0,1,19.635,16.2Zm.023.195a.212.212,0,0,0,.022.07.123.123,0,0,0,.043.048.125.125,0,0,0,.069.019.16.16,0,0,0,.08-.018.236.236,0,0,0,.063-.05.289.289,0,0,0,.044-.072A.345.345,0,0,0,20,16.312l0-.016a.275.275,0,0,0,0-.081.168.168,0,0,0-.026-.072.121.121,0,0,0-.042-.045.134.134,0,0,0-.065-.018.163.163,0,0,0-.08.019.218.218,0,0,0-.063.05.28.28,0,0,0-.043.071.361.361,0,0,0-.024.079l0,.015A.283.283,0,0,0,19.658,16.391Z"/><path class="a" d="M20.265,16.04h.052l-.017.1a.334.334,0,0,1,.038-.045.238.238,0,0,1,.1-.06.183.183,0,0,1,.057-.008.15.15,0,0,1,.074.017.117.117,0,0,1,.047.044.164.164,0,0,1,.024.064.284.284,0,0,1,0,.077l-.057.336h-.058l.058-.338a.211.211,0,0,0,0-.056.117.117,0,0,0-.014-.048.076.076,0,0,0-.034-.032.112.112,0,0,0-.055-.012.156.156,0,0,0-.057.01.2.2,0,0,0-.052.027.273.273,0,0,0-.044.039.287.287,0,0,0-.031.049l-.063.361h-.056Z"/><path class="a" d="M20.828,16.275l.009-.05h.351l-.007.05Z"/><path class="a" d="M21.392,16.236a.341.341,0,0,1,.024-.063.367.367,0,0,1,.036-.057.286.286,0,0,1,.046-.046.219.219,0,0,1,.057-.029.187.187,0,0,1,.068-.011.145.145,0,0,1,.047.007.159.159,0,0,1,.042.019.105.105,0,0,1,.028.024.234.234,0,0,1,.024.031l.052-.293h.057l-.129.75H21.69L21.7,16.5a.281.281,0,0,1-.031.029l-.035.024a.234.234,0,0,1-.048.018.224.224,0,0,1-.052.006.149.149,0,0,1-.062-.013.116.116,0,0,1-.046-.032.14.14,0,0,1-.032-.046.322.322,0,0,1-.018-.055.308.308,0,0,1-.006-.061.4.4,0,0,1,0-.06l0-.01A.381.381,0,0,1,21.392,16.236Zm.038.122a.25.25,0,0,0,0,.048.282.282,0,0,0,.011.046.13.13,0,0,0,.022.038.1.1,0,0,0,.035.026.124.124,0,0,0,.05.01.207.207,0,0,0,.05-.006.185.185,0,0,0,.045-.021.2.2,0,0,0,.035-.028.447.447,0,0,0,.029-.035l.045-.254a.128.128,0,0,0-.018-.041.114.114,0,0,0-.026-.032.151.151,0,0,0-.035-.02.131.131,0,0,0-.044-.007.135.135,0,0,0-.078.019.191.191,0,0,0-.059.051.3.3,0,0,0-.038.071.32.32,0,0,0-.02.078l0,.01A.242.242,0,0,0,21.43,16.358Z"/><path class="a" d="M22.039,16.559a.141.141,0,0,1-.046-.048.174.174,0,0,1-.021-.069.331.331,0,0,1,0-.077l.055-.325h.057l-.055.325a.282.282,0,0,0,0,.058.178.178,0,0,0,.011.052.11.11,0,0,0,.031.037.1.1,0,0,0,.055.014.262.262,0,0,0,.057-.006.225.225,0,0,0,.052-.024.174.174,0,0,0,.041-.036.2.2,0,0,0,.03-.048l.064-.372h.059l-.092.528h-.054l.015-.084a.247.247,0,0,1-.078.07.224.224,0,0,1-.1.024A.149.149,0,0,1,22.039,16.559Z"/><path class="a" d="M22.99,16.032a.223.223,0,0,1,.039.009l-.013.056-.039-.007a.32.32,0,0,0-.107.006.245.245,0,0,0-.06.025.184.184,0,0,0-.054.046.215.215,0,0,0-.039.063l-.058.338H22.6l.091-.528h.055l-.013.08,0,.025a.343.343,0,0,1,.043-.049.325.325,0,0,1,.052-.036.275.275,0,0,1,.06-.023.282.282,0,0,1,.065-.008A.273.273,0,0,1,22.99,16.032Z"/><path class="a" d="M23.462,16.529c0-.012,0-.026,0-.039a.26.26,0,0,1-.035.032.468.468,0,0,1-.04.027.286.286,0,0,1-.058.021.257.257,0,0,1-.062.008.174.174,0,0,1-.061-.012.107.107,0,0,1-.049-.029.12.12,0,0,1-.039-.107.171.171,0,0,1,.016-.058.148.148,0,0,1,.034-.044.189.189,0,0,1,.046-.032.225.225,0,0,1,.053-.021l.058-.011.058,0H23.5l.01-.06a.111.111,0,0,0,0-.052.093.093,0,0,0-.025-.038.088.088,0,0,0-.039-.023.138.138,0,0,0-.05-.008.157.157,0,0,0-.053.006.171.171,0,0,0-.046.019.154.154,0,0,0-.038.034.122.122,0,0,0-.023.047h-.057a.158.158,0,0,1,.028-.068.206.206,0,0,1,.053-.049.281.281,0,0,1,.066-.029.269.269,0,0,1,.073-.011.248.248,0,0,1,.073.013.173.173,0,0,1,.056.033.139.139,0,0,1,.036.055.154.154,0,0,1,0,.072l-.043.255a.314.314,0,0,0,0,.053.452.452,0,0,0,0,.052v.006h-.059A.17.17,0,0,1,23.462,16.529Zm-.125-.009a.247.247,0,0,0,.053-.022.279.279,0,0,0,.046-.033.4.4,0,0,0,.038-.043l.019-.115h-.1l-.054,0a.255.255,0,0,0-.055.011.267.267,0,0,0-.036.014.127.127,0,0,0-.031.02.108.108,0,0,0-.026.03.125.125,0,0,0-.013.04.077.077,0,0,0,0,.043.074.074,0,0,0,.021.031.089.089,0,0,0,.033.021.147.147,0,0,0,.042.006A.224.224,0,0,0,23.337,16.52Z"/><path class="a" d="M23.977,16.04h.189l-.008.048h-.19l-.057.332a.128.128,0,0,0,0,.044.073.073,0,0,0,.016.033.065.065,0,0,0,.03.021.111.111,0,0,0,.043.007.233.233,0,0,0,.046,0l.047-.006,0,.045a.25.25,0,0,1-.054.013.525.525,0,0,1-.056,0,.172.172,0,0,1-.063-.013.112.112,0,0,1-.045-.032.109.109,0,0,1-.025-.049.193.193,0,0,1,0-.064l.056-.332h-.142l.007-.048h.143l.023-.136H24Z"/><path class="a" d="M24.625,16.04l-.083.476h.175l-.009.052H24.3l.009-.052h.181l.074-.424h-.181l.008-.052Zm-.035-.177a.045.045,0,0,1,.032-.012.037.037,0,0,1,.031.012.047.047,0,0,1,0,.063.041.041,0,0,1-.033.012.036.036,0,0,1-.029-.011.039.039,0,0,1-.011-.031A.055.055,0,0,1,24.59,15.863Z"/><path class="a" d="M24.917,16.2a.351.351,0,0,1,.059-.087.269.269,0,0,1,.079-.058.226.226,0,0,1,.1-.021.188.188,0,0,1,.069.012.2.2,0,0,1,.052.031.231.231,0,0,1,.034.042.264.264,0,0,1,.023.051.227.227,0,0,1,.012.063.251.251,0,0,1,0,.067l0,.016a.353.353,0,0,1-.03.1.314.314,0,0,1-.056.085.3.3,0,0,1-.081.061.25.25,0,0,1-.1.021.194.194,0,0,1-.07-.013.146.146,0,0,1-.053-.034.182.182,0,0,1-.032-.04.176.176,0,0,1-.022-.048.3.3,0,0,1-.012-.062.25.25,0,0,1,0-.067l0-.015A.379.379,0,0,1,24.917,16.2Zm.023.195a.212.212,0,0,0,.022.07.131.131,0,0,0,.043.048.125.125,0,0,0,.069.019.16.16,0,0,0,.08-.018.221.221,0,0,0,.063-.05.325.325,0,0,0,.045-.072.4.4,0,0,0,.023-.076l0-.016a.275.275,0,0,0,0-.081.181.181,0,0,0-.025-.072.133.133,0,0,0-.043-.045.131.131,0,0,0-.065-.018.166.166,0,0,0-.08.019.2.2,0,0,0-.062.05.257.257,0,0,0-.044.071.361.361,0,0,0-.024.079l0,.015A.394.394,0,0,0,24.94,16.391Z"/><path class="a" d="M25.547,16.04H25.6l-.018.1a.334.334,0,0,1,.038-.045.222.222,0,0,1,.045-.036.245.245,0,0,1,.052-.024.183.183,0,0,1,.057-.008.154.154,0,0,1,.075.017.132.132,0,0,1,.047.044.18.18,0,0,1,.023.064.284.284,0,0,1,0,.077l-.057.336H25.8l.057-.338a.211.211,0,0,0,0-.056.135.135,0,0,0-.013-.048.084.084,0,0,0-.035-.032.112.112,0,0,0-.055-.012.159.159,0,0,0-.057.01.215.215,0,0,0-.052.027.273.273,0,0,0-.044.039.287.287,0,0,0-.031.049l-.062.361h-.057Z"/><path class="a" d="M26.273,16.036h-.044l.027-.16.01-.058h.049l-.01.065Zm.145,0h-.045l.027-.159.009-.059h.05l-.01.065Z"/><path class="a" d="M26.944,16.433a.832.832,0,0,1-.056.143.691.691,0,0,1-.086.127.44.44,0,0,1-.116.095l-.011-.039a.451.451,0,0,0,.1-.093.629.629,0,0,0,.071-.117.935.935,0,0,0,.048-.128,1.113,1.113,0,0,0,.028-.132l0-.01c0-.025.007-.05.009-.078a.607.607,0,0,0,0-.086.633.633,0,0,0-.006-.086.569.569,0,0,0-.018-.084.417.417,0,0,0-.033-.075.238.238,0,0,0-.053-.061l.018-.038a.3.3,0,0,1,.063.065.34.34,0,0,1,.044.079.509.509,0,0,1,.026.089c.006.031.01.062.013.094s0,.063,0,.093,0,.061-.008.088v.008A1.054,1.054,0,0,1,26.944,16.433Z"/><path class="a" d="M3.5,26.04l-.083.476h.174l-.008.052H3.166l.009-.052h.18l.074-.424h-.18l.008-.052Zm-.036-.177a.046.046,0,0,1,.033-.012.035.035,0,0,1,.03.012.039.039,0,0,1,.01.032.042.042,0,0,1-.013.031.044.044,0,0,1-.033.012.039.039,0,0,1-.03-.011.042.042,0,0,1-.01-.031A.061.061,0,0,1,3.46,25.863Z"/><path class="a" d="M3.957,26.088h-.14l.008-.048h.14L3.972,26A.261.261,0,0,1,4,25.915a.211.211,0,0,1,.117-.1A.3.3,0,0,1,4.2,25.8a.308.308,0,0,1,.053,0c.018,0,.036.005.053.009l-.013.05a.313.313,0,0,0-.044-.01.339.339,0,0,0-.045,0,.2.2,0,0,0-.066.009.146.146,0,0,0-.052.028.154.154,0,0,0-.038.045A.215.215,0,0,0,4.03,26l-.007.042h.2l-.008.048h-.2l-.082.48h-.06Z"/><path class="a" d="M5.072,26.186a.81.81,0,0,1,.03-.1.878.878,0,0,1,.041-.095A.715.715,0,0,1,5.2,25.9a.581.581,0,0,1,.066-.074.391.391,0,0,1,.081-.059l.01.041a.471.471,0,0,0-.1.092.6.6,0,0,0-.07.116.731.731,0,0,0-.048.128,1.287,1.287,0,0,0-.029.131v.01c0,.025-.007.052-.01.079s0,.057,0,.085,0,.058.006.087a.454.454,0,0,0,.018.083.338.338,0,0,0,.034.075.238.238,0,0,0,.052.062l-.018.037a.294.294,0,0,1-.063-.064.324.324,0,0,1-.043-.08.486.486,0,0,1-.027-.089.74.74,0,0,1-.012-.093c0-.032,0-.063,0-.093s0-.061.009-.089v-.008A.9.9,0,0,1,5.072,26.186Z"/><path class="a" d="M5.53,26.04h.052l.01.36v.083l.035-.09.147-.353h.041l.025.36,0,.088.032-.092.132-.356H6.06l-.2.528H5.809L5.78,26.2v-.077l-.03.084-.15.357H5.553Z"/><path class="a" d="M6.43,26.04l-.082.476h.174l-.009.052H6.1l.009-.052H6.29l.074-.424H6.183l.008-.052ZM6.4,25.863a.045.045,0,0,1,.032-.012.037.037,0,0,1,.031.012.043.043,0,0,1,.01.032.047.047,0,0,1-.014.031.04.04,0,0,1-.032.012.037.037,0,0,1-.03-.011.042.042,0,0,1-.011-.031A.055.055,0,0,1,6.4,25.863Z"/><path class="a" d="M6.718,26.236a.435.435,0,0,1,.025-.063.3.3,0,0,1,.036-.057.286.286,0,0,1,.046-.046.212.212,0,0,1,.056-.029.192.192,0,0,1,.069-.011A.153.153,0,0,1,7,26.037a.175.175,0,0,1,.042.019.105.105,0,0,1,.028.024.226.226,0,0,1,.023.031l.053-.293H7.2l-.13.75H7.017l.012-.067A.272.272,0,0,1,7,26.53a.375.375,0,0,1-.036.024.207.207,0,0,1-.047.018.224.224,0,0,1-.052.006.154.154,0,0,1-.063-.013.123.123,0,0,1-.046-.032.155.155,0,0,1-.031-.046.253.253,0,0,1-.018-.055.407.407,0,0,1-.007-.061.588.588,0,0,1,0-.06l0-.01A.5.5,0,0,1,6.718,26.236Zm.038.122a.188.188,0,0,0,0,.048.207.207,0,0,0,.011.046.13.13,0,0,0,.022.038.085.085,0,0,0,.035.026.122.122,0,0,0,.049.01.21.21,0,0,0,.051-.006.185.185,0,0,0,.045-.021.307.307,0,0,0,.035-.028.447.447,0,0,0,.029-.035l.044-.254a.126.126,0,0,0-.017-.041.135.135,0,0,0-.026-.032A.158.158,0,0,0,7,26.089a.118.118,0,0,0-.043-.007.139.139,0,0,0-.079.019.177.177,0,0,0-.058.051.242.242,0,0,0-.038.071.323.323,0,0,0-.021.078l0,.01A.242.242,0,0,0,6.756,26.358Z"/><path class="a" d="M7.542,26.04h.19l-.008.048h-.19l-.057.332a.128.128,0,0,0,0,.044.073.073,0,0,0,.016.033.061.061,0,0,0,.03.021.111.111,0,0,0,.043.007.233.233,0,0,0,.046,0c.015,0,.031,0,.046-.006l.006.045a.25.25,0,0,1-.054.013l-.056,0a.172.172,0,0,1-.063-.013.112.112,0,0,1-.045-.032.12.12,0,0,1-.025-.049.192.192,0,0,1,0-.064l.057-.332H7.333l.008-.048h.142l.024-.136h.058Z"/><path class="a" d="M8.013,26.1a.233.233,0,0,1,.046-.037.294.294,0,0,1,.051-.023.185.185,0,0,1,.058-.009.15.15,0,0,1,.074.017.138.138,0,0,1,.048.045.168.168,0,0,1,.022.063.314.314,0,0,1,0,.075l-.057.338H8.2l.058-.338a.263.263,0,0,0,0-.056.1.1,0,0,0-.015-.047.1.1,0,0,0-.033-.033.116.116,0,0,0-.056-.012.154.154,0,0,0-.056.01.2.2,0,0,0-.052.026A.331.331,0,0,0,8,26.157a.207.207,0,0,0-.031.048l-.063.363H7.848l.13-.75h.057l-.059.325A.319.319,0,0,1,8.013,26.1Z"/><path class="a" d="M8.778,25.909l-.114.659H8.608l.114-.659H8.5l.009-.052h.5L9,25.909Z"/><path class="a" d="M9.491,26.032a.274.274,0,0,1,.039.009l-.014.056-.039-.007a.255.255,0,0,0-.039,0,.248.248,0,0,0-.128.033.225.225,0,0,0-.092.109l-.058.338H9.1l.091-.528h.055l-.013.08-.005.025a.3.3,0,0,1,.044-.049.286.286,0,0,1,.052-.036.267.267,0,0,1,.059-.023.291.291,0,0,1,.066-.008Z"/><path class="a" d="M9.962,26.529a.278.278,0,0,1,.005-.039.217.217,0,0,1-.036.032.351.351,0,0,1-.04.027.266.266,0,0,1-.058.021.245.245,0,0,1-.062.008.184.184,0,0,1-.061-.012.1.1,0,0,1-.048-.029.111.111,0,0,1-.033-.046.147.147,0,0,1-.007-.061.171.171,0,0,1,.017-.058.145.145,0,0,1,.033-.044.21.21,0,0,1,.046-.032.244.244,0,0,1,.053-.021l.059-.011.057,0H10l.01-.06a.126.126,0,0,0,0-.052.1.1,0,0,0-.024-.038.1.1,0,0,0-.039-.023.144.144,0,0,0-.051-.008.151.151,0,0,0-.052.006.193.193,0,0,0-.047.019.175.175,0,0,0-.038.034.12.12,0,0,0-.022.047H9.677a.16.16,0,0,1,.029-.068.2.2,0,0,1,.052-.049.289.289,0,0,1,.067-.029.264.264,0,0,1,.073-.011.236.236,0,0,1,.072.013.178.178,0,0,1,.057.033.148.148,0,0,1,.035.055.154.154,0,0,1,.006.072l-.043.255a.315.315,0,0,0,0,.053.453.453,0,0,0,0,.052v.006h-.06A.254.254,0,0,1,9.962,26.529Zm-.125-.009a.255.255,0,0,0,.054-.022.273.273,0,0,0,.045-.033.316.316,0,0,0,.038-.043l.02-.115H9.9l-.053,0a.255.255,0,0,0-.055.011.235.235,0,0,0-.037.014.149.149,0,0,0-.031.02.105.105,0,0,0-.025.03.126.126,0,0,0-.014.04.1.1,0,0,0,0,.043.092.092,0,0,0,.055.052.142.142,0,0,0,.042.006A.213.213,0,0,0,9.837,26.52Z"/><path class="a" d="M10.465,26.52a.167.167,0,0,0,.05-.025.157.157,0,0,0,.038-.039.173.173,0,0,0,.025-.051h.054a.2.2,0,0,1-.028.072.226.226,0,0,1-.053.054.238.238,0,0,1-.067.035.258.258,0,0,1-.077.012.183.183,0,0,1-.068-.012.146.146,0,0,1-.052-.032.189.189,0,0,1-.036-.047.3.3,0,0,1-.022-.057.355.355,0,0,1-.007-.057.4.4,0,0,1,0-.059l0-.019a.394.394,0,0,1,.029-.1.35.35,0,0,1,.055-.086.274.274,0,0,1,.079-.058.222.222,0,0,1,.1-.021.182.182,0,0,1,.131.054.179.179,0,0,1,.035.06.2.2,0,0,1,.01.075h-.055a.157.157,0,0,0-.006-.054.132.132,0,0,0-.023-.044.111.111,0,0,0-.041-.028.112.112,0,0,0-.053-.012.173.173,0,0,0-.056.008.208.208,0,0,0-.047.024.2.2,0,0,0-.037.035.311.311,0,0,0-.03.044.455.455,0,0,0-.021.051.341.341,0,0,0-.013.053l0,.019a.285.285,0,0,0,0,.049.254.254,0,0,0,0,.049.213.213,0,0,0,.013.045.136.136,0,0,0,.025.036.108.108,0,0,0,.037.026.136.136,0,0,0,.051.009A.2.2,0,0,0,10.465,26.52Z"/><path class="a" d="M10.885,26.371l-.034.2h-.058l.13-.75h.058L10.9,26.3l.069-.06.241-.2h.079l-.271.226.2.3h-.069l-.173-.265Z"/><path class="a" d="M11.5,26.555a.19.19,0,0,1-.067-.062.229.229,0,0,1-.033-.08.263.263,0,0,1,0-.093l0-.021a.311.311,0,0,1,.016-.067.364.364,0,0,1,.03-.063.446.446,0,0,1,.041-.056.454.454,0,0,1,.052-.045.337.337,0,0,1,.061-.028.237.237,0,0,1,.07-.01.164.164,0,0,1,.086.022.151.151,0,0,1,.058.054.214.214,0,0,1,.029.078.26.26,0,0,1,0,.088l0,.037h-.382a.229.229,0,0,0,0,.082.189.189,0,0,0,.025.071.144.144,0,0,0,.048.047.137.137,0,0,0,.072.018.2.2,0,0,0,.089-.017.32.32,0,0,0,.075-.053l.034.028a.244.244,0,0,1-.09.07.288.288,0,0,1-.112.023A.187.187,0,0,1,11.5,26.555Zm.1-.46a.214.214,0,0,0-.058.04.271.271,0,0,0-.044.057.439.439,0,0,0-.031.066h.324l0-.007a.162.162,0,0,0,0-.062.136.136,0,0,0-.021-.054.118.118,0,0,0-.041-.039.127.127,0,0,0-.06-.016A.164.164,0,0,0,11.593,26.1Z"/><path class="a" d="M12.425,26.032a.288.288,0,0,1,.04.009l-.014.056-.039-.007a.32.32,0,0,0-.107.006.245.245,0,0,0-.06.025.22.22,0,0,0-.093.109l-.058.338h-.059l.091-.528h.055l-.013.08,0,.025a.3.3,0,0,1,.044-.049.23.23,0,0,1,.052-.036.234.234,0,0,1,.059-.023.284.284,0,0,1,.066-.008A.269.269,0,0,1,12.425,26.032Z"/><path class="a" d="M12.569,26.393l.347-.137.032-.011-.022-.009L12.62,26.1l.009-.059.384.185L13,26.271l-.446.186Z"/><path class="a" d="M13.212,26.1a.18.18,0,0,1,.052-.051.123.123,0,0,1,.069-.019.129.129,0,0,1,.035,0,.076.076,0,0,1,.028.015.129.129,0,0,1,.019.021.105.105,0,0,1,.01.03.174.174,0,0,1,.054-.051.139.139,0,0,1,.071-.019.093.093,0,0,1,.052.013.085.085,0,0,1,.032.033.112.112,0,0,1,.013.046.2.2,0,0,1,0,.054l-.066.392h-.055l.067-.393a.206.206,0,0,0,0-.034.094.094,0,0,0-.007-.031.054.054,0,0,0-.019-.021.057.057,0,0,0-.034-.007.11.11,0,0,0-.037.006.134.134,0,0,0-.031.017.131.131,0,0,0-.024.028.26.26,0,0,0-.015.028l-.07.407H13.3l.068-.4a.187.187,0,0,0,0-.033.088.088,0,0,0-.007-.029.056.056,0,0,0-.052-.026.11.11,0,0,0-.037.006.157.157,0,0,0-.031.018.149.149,0,0,0-.023.027.148.148,0,0,0-.017.033l-.07.4h-.054l.091-.528h.052Z"/><path class="a" d="M14.071,26.529a.272.272,0,0,1,0-.039.26.26,0,0,1-.035.032.351.351,0,0,1-.04.027.31.31,0,0,1-.058.021.257.257,0,0,1-.062.008.174.174,0,0,1-.061-.012.107.107,0,0,1-.049-.029.119.119,0,0,1-.032-.046.131.131,0,0,1-.008-.061.171.171,0,0,1,.017-.058.148.148,0,0,1,.034-.044.183.183,0,0,1,.045-.032.252.252,0,0,1,.054-.021l.058-.011.058,0h.114l.01-.06a.111.111,0,0,0,0-.052.117.117,0,0,0-.024-.038.105.105,0,0,0-.04-.023A.137.137,0,0,0,14,26.08a.151.151,0,0,0-.052.006.171.171,0,0,0-.046.019.138.138,0,0,0-.038.034.122.122,0,0,0-.023.047h-.057a.158.158,0,0,1,.028-.068.206.206,0,0,1,.053-.049.281.281,0,0,1,.066-.029.269.269,0,0,1,.073-.011.236.236,0,0,1,.072.013.178.178,0,0,1,.057.033.127.127,0,0,1,.035.055.153.153,0,0,1,.007.072l-.044.255a.473.473,0,0,0,0,.053.453.453,0,0,0,0,.052v.006h-.06A.17.17,0,0,1,14.071,26.529Zm-.125-.009A.247.247,0,0,0,14,26.5a.236.236,0,0,0,.045-.033.26.26,0,0,0,.038-.043l.021-.115H14l-.053,0a.295.295,0,0,0-.091.025.127.127,0,0,0-.031.02.094.094,0,0,0-.026.03.1.1,0,0,0-.013.04.077.077,0,0,0,0,.043.072.072,0,0,0,.02.031.092.092,0,0,0,.034.021.142.142,0,0,0,.042.006A.224.224,0,0,0,13.946,26.52Z"/><path class="a" d="M14.753,26.04h.073l-.239.261.161.266h-.064l-.133-.224-.2.224h-.073l.247-.271-.153-.258h.065l.124.215Z"/><path class="a" d="M14.956,25.857h.054L15,26.366l0,.068.023-.071.171-.506h.05l.015.516v.063l.019-.065.148-.514h.055l-.208.711H15.21l-.012-.534V25.98l-.017.053-.18.535h-.058Z"/><path class="a" d="M15.793,26.433a.926.926,0,0,1-.057.143.645.645,0,0,1-.086.127.424.424,0,0,1-.116.095l-.011-.039a.456.456,0,0,0,.1-.093.625.625,0,0,0,.07-.117.731.731,0,0,0,.048-.128c.012-.045.022-.089.029-.132l0-.01c0-.025.006-.05.008-.078a.607.607,0,0,0,0-.086.633.633,0,0,0-.006-.086.568.568,0,0,0-.017-.084.421.421,0,0,0-.034-.075.255.255,0,0,0-.052-.061l.017-.038a.3.3,0,0,1,.064.065.336.336,0,0,1,.043.079.435.435,0,0,1,.026.089.591.591,0,0,1,.013.094.721.721,0,0,1,0,.093.756.756,0,0,1-.008.088v.008A1.212,1.212,0,0,1,15.793,26.433Z"/><path class="a" d="M16.344,26.734a.153.153,0,0,1-.047-.051.2.2,0,0,1-.024-.068.476.476,0,0,1,0-.076l.016-.1a.2.2,0,0,0,0-.055.086.086,0,0,0-.018-.041.091.091,0,0,0-.037-.027.188.188,0,0,0-.053-.012l.006-.051a.169.169,0,0,0,.1-.036.162.162,0,0,0,.05-.1l.016-.1a.268.268,0,0,1,.022-.082.258.258,0,0,1,.043-.069.268.268,0,0,1,.061-.049.288.288,0,0,1,.081-.029l0,.041a.156.156,0,0,0-.062.025.2.2,0,0,0-.046.042.27.27,0,0,0-.029.056.346.346,0,0,0-.018.065l-.014.1a.205.205,0,0,1-.044.1.21.21,0,0,1-.094.059.234.234,0,0,1,.043.026.144.144,0,0,1,.028.037.149.149,0,0,1,.015.045.217.217,0,0,1,0,.051l-.014.1a.251.251,0,0,0,0,.061.159.159,0,0,0,.014.054.125.125,0,0,0,.031.044.124.124,0,0,0,.053.029l-.012.038A.172.172,0,0,1,16.344,26.734Z"/><path class="a" d="M16.934,26.04h.189l-.008.048h-.19l-.057.332a.128.128,0,0,0,0,.044.073.073,0,0,0,.016.033.065.065,0,0,0,.03.021.111.111,0,0,0,.043.007.233.233,0,0,0,.046,0l.047-.006.005.045a.237.237,0,0,1-.054.013.525.525,0,0,1-.056,0,.172.172,0,0,1-.063-.013.112.112,0,0,1-.045-.032.109.109,0,0,1-.025-.049.193.193,0,0,1,0-.064l.056-.332h-.142l.007-.048h.143L16.9,25.9h.059Z"/><path class="a" d="M17.593,26.529c0-.012,0-.026,0-.039a.26.26,0,0,1-.035.032.362.362,0,0,1-.041.027.278.278,0,0,1-.057.021.259.259,0,0,1-.063.008.173.173,0,0,1-.06-.012.107.107,0,0,1-.049-.029.12.12,0,0,1-.039-.107.171.171,0,0,1,.016-.058.148.148,0,0,1,.034-.044.172.172,0,0,1,.046-.032.236.236,0,0,1,.052-.021l.059-.011.058,0h.114l.01-.06a.111.111,0,0,0,0-.052.1.1,0,0,0-.064-.061.14.14,0,0,0-.051-.008.154.154,0,0,0-.052.006.159.159,0,0,0-.046.019.138.138,0,0,0-.038.034.122.122,0,0,0-.023.047h-.057a.147.147,0,0,1,.028-.068.206.206,0,0,1,.053-.049.281.281,0,0,1,.066-.029.264.264,0,0,1,.073-.011.248.248,0,0,1,.073.013.173.173,0,0,1,.056.033.127.127,0,0,1,.035.055.142.142,0,0,1,.006.072l-.043.255a.315.315,0,0,0,0,.053.453.453,0,0,0,0,.052v.006h-.059A.17.17,0,0,1,17.593,26.529Zm-.125-.009a.247.247,0,0,0,.053-.022.236.236,0,0,0,.045-.033.26.26,0,0,0,.038-.043l.02-.115h-.1l-.053,0a.255.255,0,0,0-.055.011.267.267,0,0,0-.036.014.11.11,0,0,0-.031.02.108.108,0,0,0-.026.03.09.09,0,0,0-.013.04.088.088,0,0,0,0,.043.077.077,0,0,0,.022.031.081.081,0,0,0,.033.021.147.147,0,0,0,.042.006A.224.224,0,0,0,17.468,26.52Z"/><path class="a" d="M18.169,26.04l-.083.476h.175l-.009.052h-.413l.009-.052h.181l.074-.424h-.181l.008-.052Zm-.035-.177a.045.045,0,0,1,.032-.012.038.038,0,0,1,.031.012.047.047,0,0,1,0,.063.041.041,0,0,1-.033.012.036.036,0,0,1-.029-.011.039.039,0,0,1-.011-.031A.055.055,0,0,1,18.134,25.863Z"/><path class="a" d="M18.8,25.818l-.121.7h.173l-.009.052h-.413l.009-.052h.181l.113-.645h-.182l.009-.053Z"/><path class="a" d="M19.4,26.334a.143.143,0,0,0-.029-.042.2.2,0,0,0-.052-.033c-.019-.009-.039-.018-.058-.025a.415.415,0,0,1-.07-.029.289.289,0,0,1-.06-.041.165.165,0,0,1-.042-.056.149.149,0,0,1-.011-.075.2.2,0,0,1,.027-.078.246.246,0,0,1,.057-.059.25.25,0,0,1,.075-.037.336.336,0,0,1,.082-.011.21.21,0,0,1,.082.016.2.2,0,0,1,.063.043.206.206,0,0,1,.039.066.2.2,0,0,1,.011.082H19.46a.2.2,0,0,0-.009-.061.162.162,0,0,0-.025-.049.136.136,0,0,0-.1-.046.2.2,0,0,0-.059.009.18.18,0,0,0-.056.026.149.149,0,0,0-.042.041.128.128,0,0,0-.022.057.1.1,0,0,0,0,.054.112.112,0,0,0,.031.041.186.186,0,0,0,.05.031.51.51,0,0,0,.056.023.408.408,0,0,1,.075.033.248.248,0,0,1,.063.044.232.232,0,0,1,.038.058.151.151,0,0,1,.009.075.176.176,0,0,1-.029.081.2.2,0,0,1-.057.058.231.231,0,0,1-.076.036.315.315,0,0,1-.084.012.241.241,0,0,1-.087-.016.192.192,0,0,1-.069-.041.184.184,0,0,1-.058-.151h.057a.171.171,0,0,0,.011.065.154.154,0,0,0,.032.049.171.171,0,0,0,.05.032.221.221,0,0,0,.065.01.256.256,0,0,0,.062-.007.2.2,0,0,0,.058-.027.156.156,0,0,0,.043-.042.135.135,0,0,0,.022-.059A.117.117,0,0,0,19.4,26.334Z"/><path class="a" d="M19.691,26.559a.129.129,0,0,1-.045-.048.175.175,0,0,1-.022-.069.331.331,0,0,1,0-.077l.056-.325h.056l-.054.325a.282.282,0,0,0,0,.058.218.218,0,0,0,.01.052.1.1,0,0,0,.032.037.094.094,0,0,0,.054.014.262.262,0,0,0,.057-.006.232.232,0,0,0,.053-.024.181.181,0,0,0,.07-.084l.065-.372h.058l-.092.528h-.053l.014-.084a.236.236,0,0,1-.078.07.22.22,0,0,1-.1.024A.15.15,0,0,1,19.691,26.559Z"/><path class="a" d="M20.256,26.1a.158.158,0,0,1,.052-.051.138.138,0,0,1,.1-.015.063.063,0,0,1,.028.015.1.1,0,0,1,.019.021.082.082,0,0,1,.011.03.171.171,0,0,1,.053-.051.14.14,0,0,1,.072-.019.1.1,0,0,1,.052.013.092.092,0,0,1,.032.033.13.13,0,0,1,.012.046.2.2,0,0,1,0,.054l-.066.392h-.055l.068-.393a.206.206,0,0,0,0-.034.094.094,0,0,0-.007-.031.057.057,0,0,0-.02-.021.054.054,0,0,0-.033-.007.116.116,0,0,0-.038.006.111.111,0,0,0-.055.045.146.146,0,0,0-.014.028l-.071.407h-.054l.068-.4a.124.124,0,0,0,0-.033.088.088,0,0,0-.007-.029.069.069,0,0,0-.019-.019.062.062,0,0,0-.033-.007.115.115,0,0,0-.037.006.149.149,0,0,0-.03.018.1.1,0,0,0-.023.027.211.211,0,0,0-.018.033l-.07.4h-.053l.091-.528h.052Z"/><path class="a" d="M20.785,26.373l.009-.053h.424l-.01.053Zm.034-.2.01-.053h.423l-.009.053Z"/><path class="a" d="M21.8,26.357a.5.5,0,0,1-.026.068.351.351,0,0,1-.042.066.24.24,0,0,1-.055.051.23.23,0,0,1-.057.027.234.234,0,0,1-.066.009.165.165,0,0,1-.07-.014.131.131,0,0,1-.049-.034.141.141,0,0,1-.035-.05.351.351,0,0,1-.018-.06.372.372,0,0,1,0-.133l.023-.148a.609.609,0,0,1,.017-.071A.5.5,0,0,1,21.447,26a.472.472,0,0,1,.037-.061.247.247,0,0,1,.049-.048.211.211,0,0,1,.061-.033.217.217,0,0,1,.074-.01.178.178,0,0,1,.08.017.167.167,0,0,1,.053.045.27.27,0,0,1,.029.059.367.367,0,0,1,.013.066.3.3,0,0,1,0,.052.455.455,0,0,1,0,.052l-.026.148A.336.336,0,0,1,21.8,26.357Zm-.19.163a.161.161,0,0,0,.045-.024.164.164,0,0,0,.041-.042.25.25,0,0,0,.03-.053.445.445,0,0,0,.019-.051c0-.019.009-.037.012-.053l.019-.117a.312.312,0,0,0,.006-.037l0-.039-.353.283a.226.226,0,0,0,.008.053.12.12,0,0,0,.023.045.114.114,0,0,0,.037.032.131.131,0,0,0,.055.011A.185.185,0,0,0,21.609,26.52Zm0-.614a.153.153,0,0,0-.046.028.176.176,0,0,0-.038.039.372.372,0,0,0-.027.048.309.309,0,0,0-.019.053.4.4,0,0,0-.013.055l-.023.129a.24.24,0,0,0,0,.037.311.311,0,0,0,0,.033l.354-.285a.2.2,0,0,0-.008-.055.154.154,0,0,0-.021-.047.13.13,0,0,0-.039-.031.115.115,0,0,0-.055-.013A.187.187,0,0,0,21.607,25.906Z"/><path class="a" d="M22.187,26.6a.374.374,0,0,1-.022.045l-.026.036a.322.322,0,0,1-.032.032l-.035-.025a.345.345,0,0,0,.042-.063.29.29,0,0,0,.024-.072l.013-.076h.061l-.013.074A.437.437,0,0,1,22.187,26.6Zm.033-.536a.045.045,0,0,1,.035-.015.046.046,0,0,1,.035.013.047.047,0,0,1,.012.036.05.05,0,0,1-.016.035.052.052,0,0,1-.069,0A.046.046,0,0,1,22.2,26.1.054.054,0,0,1,22.22,26.064Z"/><path class="a" d="M16.682,27.04h.052l.01.36v.083l.035-.09.148-.353h.04l.025.36,0,.088.031-.092.133-.356h.054l-.2.528h-.047l-.029-.364v-.077l-.03.084-.15.357H16.7Z"/><path class="a" d="M17.582,27.04l-.083.476h.175l-.009.052h-.413l.009-.052h.181l.074-.424h-.181l.008-.052Zm-.035-.177a.045.045,0,0,1,.032-.012.037.037,0,0,1,.031.012.047.047,0,0,1,0,.063.041.041,0,0,1-.033.012.038.038,0,0,1-.029-.011.039.039,0,0,1-.011-.031A.055.055,0,0,1,17.547,26.863Z"/><path class="a" d="M17.87,27.236a.435.435,0,0,1,.025-.063.3.3,0,0,1,.036-.057.25.25,0,0,1,.046-.046.212.212,0,0,1,.056-.029.192.192,0,0,1,.069-.011.139.139,0,0,1,.046.007.146.146,0,0,1,.042.019.109.109,0,0,1,.029.024.226.226,0,0,1,.023.031l.053-.293h.057l-.129.75h-.054l.013-.067a.289.289,0,0,1-.032.029.271.271,0,0,1-.035.024.2.2,0,0,1-.048.018.216.216,0,0,1-.051.006.154.154,0,0,1-.063-.013.132.132,0,0,1-.046-.032.155.155,0,0,1-.031-.046.255.255,0,0,1-.019-.055.407.407,0,0,1,0-.061.4.4,0,0,1,0-.06V27.3A.381.381,0,0,1,17.87,27.236Zm.038.122a.25.25,0,0,0,0,.048.28.28,0,0,0,.012.046.155.155,0,0,0,.021.038.1.1,0,0,0,.036.026.119.119,0,0,0,.049.01.2.2,0,0,0,.05-.006.169.169,0,0,0,.045-.021.166.166,0,0,0,.035-.028.311.311,0,0,0,.03-.035l.044-.254a.108.108,0,0,0-.017-.041.118.118,0,0,0-.027-.032.133.133,0,0,0-.035-.02.123.123,0,0,0-.044-.007.137.137,0,0,0-.078.019.187.187,0,0,0-.058.051.242.242,0,0,0-.038.071.376.376,0,0,0-.021.078l0,.01A.242.242,0,0,0,17.908,27.358Z"/><path class="a" d="M18.694,27.04h.19l-.008.048h-.19l-.057.332a.128.128,0,0,0,0,.044.073.073,0,0,0,.016.033.061.061,0,0,0,.03.021.111.111,0,0,0,.043.007.236.236,0,0,0,.046,0l.047-.006,0,.045a.228.228,0,0,1-.053.013.525.525,0,0,1-.056,0,.172.172,0,0,1-.063-.013.106.106,0,0,1-.045-.032.109.109,0,0,1-.025-.049.169.169,0,0,1,0-.064l.057-.332h-.143l.008-.048h.143l.023-.136h.059Z"/><path class="a" d="M19.165,27.1a.233.233,0,0,1,.046-.037.264.264,0,0,1,.051-.023.185.185,0,0,1,.058-.009.157.157,0,0,1,.075.017.132.132,0,0,1,.046.045.153.153,0,0,1,.023.063.314.314,0,0,1,0,.075l-.058.338H19.35l.056-.338a.212.212,0,0,0,0-.056.118.118,0,0,0-.015-.047.09.09,0,0,0-.034-.033.111.111,0,0,0-.054-.012.159.159,0,0,0-.057.01.169.169,0,0,0-.052.026.331.331,0,0,0-.044.039.207.207,0,0,0-.031.048l-.063.363H19l.13-.75h.058l-.06.325A.261.261,0,0,1,19.165,27.1Z"/><path class="a" d="M19.93,26.909l-.115.659H19.76l.114-.659h-.221l.01-.052h.5l-.01.052Z"/><path class="a" d="M20.643,27.032a.274.274,0,0,1,.039.009l-.014.056-.039-.007a.255.255,0,0,0-.039,0,.263.263,0,0,0-.068.008.245.245,0,0,0-.06.025.2.2,0,0,0-.054.046.238.238,0,0,0-.039.063l-.057.338h-.06l.092-.528H20.4l-.012.08,0,.025a.348.348,0,0,1,.044-.049.255.255,0,0,1,.052-.036.267.267,0,0,1,.059-.023.291.291,0,0,1,.066-.008Z"/><path class="a" d="M21.114,27.529c0-.012,0-.026,0-.039a.211.211,0,0,1-.035.032.351.351,0,0,1-.04.027.286.286,0,0,1-.058.021.251.251,0,0,1-.062.008.179.179,0,0,1-.061-.012.112.112,0,0,1-.049-.029.131.131,0,0,1-.032-.046.12.12,0,0,1-.007-.061.171.171,0,0,1,.016-.058.191.191,0,0,1,.034-.044.21.21,0,0,1,.046-.032.244.244,0,0,1,.053-.021l.058-.011.058,0h.114l.01-.06a.111.111,0,0,0,0-.052.1.1,0,0,0-.024-.038.1.1,0,0,0-.039-.023.147.147,0,0,0-.051-.008.16.16,0,0,0-.053.006.186.186,0,0,0-.046.019.175.175,0,0,0-.038.034.12.12,0,0,0-.022.047h-.058a.172.172,0,0,1,.028-.068.224.224,0,0,1,.053-.049.289.289,0,0,1,.067-.029.258.258,0,0,1,.073-.011.242.242,0,0,1,.072.013.178.178,0,0,1,.057.033.148.148,0,0,1,.035.055.142.142,0,0,1,.006.072l-.043.255a.315.315,0,0,0,0,.053.453.453,0,0,0,0,.052v.006h-.06A.17.17,0,0,1,21.114,27.529Zm-.125-.009a.227.227,0,0,0,.053-.022.243.243,0,0,0,.046-.033.316.316,0,0,0,.038-.043l.02-.115h-.1l-.054,0a.268.268,0,0,0-.055.011.331.331,0,0,0-.036.014.149.149,0,0,0-.031.02.114.114,0,0,0-.039.07.077.077,0,0,0,0,.043.092.092,0,0,0,.055.052.137.137,0,0,0,.042.006A.216.216,0,0,0,20.989,27.52Z"/><path class="a" d="M21.617,27.52a.167.167,0,0,0,.05-.025.157.157,0,0,0,.038-.039.15.15,0,0,0,.024-.051h.055a.2.2,0,0,1-.028.072.226.226,0,0,1-.053.054.238.238,0,0,1-.067.035.258.258,0,0,1-.077.012.179.179,0,0,1-.068-.012.138.138,0,0,1-.052-.032.189.189,0,0,1-.036-.047.4.4,0,0,1-.022-.057.355.355,0,0,1-.007-.057.3.3,0,0,1,0-.059l0-.019a.443.443,0,0,1,.03-.1.35.35,0,0,1,.055-.086.274.274,0,0,1,.079-.058.216.216,0,0,1,.1-.021.178.178,0,0,1,.074.015.161.161,0,0,1,.056.039.166.166,0,0,1,.036.06.221.221,0,0,1,.009.075h-.054a.157.157,0,0,0-.006-.054.118.118,0,0,0-.024-.044.107.107,0,0,0-.04-.028.112.112,0,0,0-.053-.012.173.173,0,0,0-.056.008.208.208,0,0,0-.047.024.25.25,0,0,0-.038.035.3.3,0,0,0-.029.044.455.455,0,0,0-.021.051.2.2,0,0,0-.012.053l0,.019a.44.44,0,0,0,0,.049.254.254,0,0,0,0,.049.213.213,0,0,0,.013.045.116.116,0,0,0,.025.036.1.1,0,0,0,.037.026.129.129,0,0,0,.051.009A.2.2,0,0,0,21.617,27.52Z"/><path class="a" d="M22.037,27.371l-.034.2h-.058l.13-.75h.058l-.083.478.069-.06.241-.2h.078l-.27.226.2.3H22.3l-.174-.265Z"/><path class="a" d="M22.648,27.555a.2.2,0,0,1-.066-.062.229.229,0,0,1-.033-.08.263.263,0,0,1,0-.093l0-.021a.506.506,0,0,1,.017-.067.364.364,0,0,1,.03-.063.309.309,0,0,1,.041-.056.339.339,0,0,1,.053-.045.3.3,0,0,1,.06-.028.232.232,0,0,1,.07-.01.164.164,0,0,1,.086.022.159.159,0,0,1,.058.054.2.2,0,0,1,.029.078.288.288,0,0,1,0,.088l-.006.037H22.6a.253.253,0,0,0,0,.082.173.173,0,0,0,.025.071.138.138,0,0,0,.049.047.134.134,0,0,0,.071.018.2.2,0,0,0,.089-.017.278.278,0,0,0,.074-.053l.035.028a.24.24,0,0,1-.091.07.279.279,0,0,1-.111.023A.2.2,0,0,1,22.648,27.555Zm.1-.46a.2.2,0,0,0-.056.04.246.246,0,0,0-.045.057.359.359,0,0,0-.031.066h.324l0-.007a.215.215,0,0,0,0-.062.122.122,0,0,0-.021-.054.113.113,0,0,0-.042-.039.123.123,0,0,0-.059-.016A.172.172,0,0,0,22.744,27.1Z"/><path class="a" d="M23.577,27.032a.223.223,0,0,1,.039.009L23.6,27.1l-.04-.007a.248.248,0,0,0-.039,0,.256.256,0,0,0-.067.008.27.27,0,0,0-.061.025.193.193,0,0,0-.053.046.2.2,0,0,0-.039.063l-.058.338h-.059l.091-.528h.055l-.013.08,0,.025a.423.423,0,0,1,.044-.049.325.325,0,0,1,.052-.036.275.275,0,0,1,.06-.023.273.273,0,0,1,.106,0Z"/><path class="a" d="M23.72,27.373l.009-.053h.423l-.009.053Zm.034-.2.01-.053h.423l-.009.053Z"/><path class="a" d="M24.347,26.857H24.4l-.012.509,0,.068.022-.071.172-.506h.05l.015.516v.063l.019-.065.149-.514h.053l-.208.711H24.6l-.012-.534V26.98l-.017.053-.179.535h-.059Z"/><path class="a" d="M24.975,27.7a.263.263,0,0,0,.045-.043.229.229,0,0,0,.031-.055.291.291,0,0,0,.018-.064l.015-.1a.185.185,0,0,1,.045-.1.215.215,0,0,1,.094-.06.115.115,0,0,1-.043-.026.117.117,0,0,1-.03-.037.2.2,0,0,1-.014-.045.215.215,0,0,1,0-.051l.015-.1a.345.345,0,0,0,0-.064.176.176,0,0,0-.013-.057.1.1,0,0,0-.031-.041.112.112,0,0,0-.051-.026l.011-.039a.205.205,0,0,1,.069.029.172.172,0,0,1,.069.119.26.26,0,0,1,0,.079l-.014.1a.124.124,0,0,0,.019.1.123.123,0,0,0,.09.039l0,.051a.174.174,0,0,0-.106.037.151.151,0,0,0-.049.1l-.015.1a.411.411,0,0,1-.023.082.274.274,0,0,1-.043.067.243.243,0,0,1-.141.078l-.006-.039A.2.2,0,0,0,24.975,27.7Z"/></svg>