<svg xmlns="http://www.w3.org/2000/svg" viewBox="0 0 3.479 24.094"><path d="M.536,16.842a.222.222,0,0,1-.111-.048.972.972,0,0,1-.4-.689c0-.175.416-.5,1.152-1.152,1.057-.929,1.408-1.312,1.536-1.312.177,0,.513.351.688.607a.288.288,0,0,1,.065.192c0,.609-2.209,2.049-2.8,2.354A.331.331,0,0,1,.536,16.842Z"/><path d="M.536,16.842a.222.222,0,0,1-.111-.048.972.972,0,0,1-.4-.689c0-.175.416-.5,1.152-1.152,1.057-.929,1.408-1.312,1.536-1.312.177,0,.513.351.688.607a.288.288,0,0,1,.065.192c0,.609-2.209,2.049-2.8,2.354A.331.331,0,0,1,.536,16.842Z"/></svg>