<svg xmlns="http://www.w3.org/2000/svg" viewBox="0 0 4.809 24.094"><path d="M.027,13.176a1.5,1.5,0,0,1,.432-.832,4.605,4.605,0,0,1,1.777-.256H4.092c.513,0,.7.192.7.576,0,.576-.08.849-.416.849-.223,0-.528-.08-.736-.08-1.088.015-2.177.063-3.281.063C.17,13.5.027,13.464.027,13.176Z"/><path d="M.027,13.176a1.5,1.5,0,0,1,.432-.832,4.605,4.605,0,0,1,1.777-.256H4.092c.513,0,.7.192.7.576,0,.576-.08.849-.416.849-.223,0-.528-.08-.736-.08-1.088.015-2.177.063-3.281.063C.17,13.5.027,13.464.027,13.176Z"/></svg>