<svg xmlns="http://www.w3.org/2000/svg" viewBox="0 0 13.506 24.094"><path d="M13.021,3.764c-.048-.048-.065-.064-.1-.064-.112,0-.129.288-.16.32a2.4,2.4,0,0,1-.192.24.934.934,0,0,1-.721.592A38.89,38.89,0,0,1,7.1,7.59s.791-.42-2.16,1.088c-.608.3-1.249.609-1.889.913C1.416,10.375.024,11.959.024,13.176a2.925,2.925,0,0,0,.512,1.537,3.265,3.265,0,0,0,1.136,1.146l.74-1c.1.026-.66-.287-.66-.815a2.61,2.61,0,0,1,1.137-1.68c.928-.64,1.761-1.169,2.577-1.649L7.483,9.558C8.7,8.87,10.06,8.086,11.8,6.966c.465-.3,1.7-1.185,1.7-2.178A1.387,1.387,0,0,0,13.021,3.764Z"/></svg>