<svg xmlns="http://www.w3.org/2000/svg" viewBox="0 0 18.384 24.094"><path d="M17.985,3.332c-.24-.384-.481-.736-.784-.736-2.005.2-4.93,2.529-4.93,2.529A49.76,49.76,0,0,0,8.093,9.046a16.2,16.2,0,0,0-1.665,1.793c-.768.865-1.52,1.745-2.209,2.625C3.579,14.28,3.4,14.7,3.4,15c0,.5,1.376,2.1,2.033,2.1.16,0,.176-.033.176-.176a5.363,5.363,0,0,1,1.232-2.785C7.725,12.92,8.7,11.7,9.677,10.567c0,0,.865-.99,1.617-1.793A25.922,25.922,0,0,1,14.64,5.733c1.728-1.249,3.729-1.2,3.729-1.537A2.271,2.271,0,0,0,17.985,3.332Z"/></svg>