<svg xmlns="http://www.w3.org/2000/svg" viewBox="0 0 21.792 24.094"><path d="M16.419,9.75c-.272,0-1.232.113-2.9.241,0,0-1.3.074-3.125.145,0,.005-2.55.086-2.553.082-1.115.028-2.287.047-3.414.045-2.4-.016-3.537-.208-3.537-.48,0-.225.928-.449,2.113-.449.121,0,.255.018.381.023a8.1,8.1,0,0,1-.681-1.2c-.135-.006-.267-.019-.4-.019-.753,0-2.289.08-2.289,1.136a2.566,2.566,0,0,0,1.04,1.793,4.468,4.468,0,0,0,2.193.416s1.214.018,2.972-.019l1.43-.045,0,.005c.287-.01,1.847-.089,1.843-.083,1.022-.057,2.083-.134,3.117-.242,2.512-.208,4.577-.5,4.577-.768C17.187,10.1,16.8,9.75,16.419,9.75Z"/></svg>