<svg xmlns="http://www.w3.org/2000/svg" viewBox="0 0 22.977 24.094"><path d="M19.392,13.589c-.112,0-.273.192-.929.449a11.157,11.157,0,0,1-4.161.592,22.523,22.523,0,0,1-3.362-.273,24.051,24.051,0,0,1-2.9-.512A25.424,25.424,0,0,0,3.289,13.3c-1.184,0-3.265.048-3.265,1.537a4.679,4.679,0,0,0,.092.93l1.806-.261a5.489,5.489,0,0,1,1.335-.141,18.793,18.793,0,0,1,2.369.16L8.6,15.99a30.51,30.51,0,0,0,5.667.608A5.676,5.676,0,0,0,18.3,14.965c.768-.656,1.152-1.152,1.152-1.328C19.456,13.605,19.44,13.589,19.392,13.589Z"/></svg>