<svg xmlns="http://www.w3.org/2000/svg" viewBox="0 0 16.267 24.094"><path d="M15.01,3.94a7.051,7.051,0,0,0-.845-.775,12.727,12.727,0,0,1,.207,1.97c0,.041.014.074.014.118,0,.027-.008.06-.009.088,0,.208,0,.336,0,.336l-.046.082a11.407,11.407,0,0,1-2.73,4.568,8.33,8.33,0,0,1-1.025,1.056c-2.033,1.953-4.562,3.538-6.818,3.538-1.069,0-1.579-.428-1.624-1.342-.011.025-.027.059-.036.082a12.35,12.35,0,0,0,.977,2.811,3.073,3.073,0,0,0,1.707.721c4.194,0,11.46-6.93,11.46-10.852A3.368,3.368,0,0,0,15.01,3.94Z"/></svg>