<svg xmlns="http://www.w3.org/2000/svg" viewBox="0 0 15.55 24.094"><path d="M14.174,4.693a8.126,8.126,0,0,0-.609-.63,5.04,5.04,0,0,1,0,1.57v0c0,2.081-3.954,6.034-7.091,8.019a13.421,13.421,0,0,1-1.841.944,2.883,2.883,0,0,1-1.04.241c-.961,0-1.777-.5-1.777-1.408a3.067,3.067,0,0,1,.015-.337L1.8,13.027a5.636,5.636,0,0,0-.093,2.043l.255.282a3.348,3.348,0,0,0,2.545,1.3,5.651,5.651,0,0,0,2.1-.544h0c.03-.012.285-.138,2.016-1.057,3.329-2.081,6.915-5.762,6.915-8.179C15.535,6.373,15.422,5.637,14.174,4.693Z"/></svg>