<svg xmlns="http://www.w3.org/2000/svg" viewBox="0 0 15.55 24.094"><path d="M11.613,15.417c-.224,0-.481.272-.945.272a4.545,4.545,0,0,1-2.048-.64,18.352,18.352,0,0,1-2.145-1.393c-1.089-.784-2.065-1.5-2.737-1.5a4.81,4.81,0,0,0-1.822.382c-.408.1-.519.241-.236.454,0-.006.153.083.153.076a2.755,2.755,0,0,1,1.665.624c.416.336.784.64,1.136.912A20.035,20.035,0,0,1,6.6,16.105c1.776,1.328,2.385,1.569,3.058,1.569.927,0,1.392-.912,1.839-1.744a1.271,1.271,0,0,0,.177-.449C11.677,15.433,11.661,15.417,11.613,15.417Z"/></svg>