<svg xmlns="http://www.w3.org/2000/svg" viewBox="0 0 22.901 24.094"><path d="M22.107,4.66c-1.441-1.152-1.522-1.344-1.73-1.344a104.6,104.6,0,0,1-12.1.64c-3.169,0-5.475-.064-7.3-.064-.416,0-.944.256-.944.768A8.374,8.374,0,0,0,.11,5.726a2.943,2.943,0,0,0,.982.321c.136-.221.674-.234,1.118-.234,1.2,0,3.234.1,5.475.208,0,0,.024-.006.753.014.272.008.431.01,1.136.066l1.717.06c1.264.023,2.38.068,2.38.068.544.016,1.073.016,1.569.016a53.445,53.445,0,0,0,6.547-.432c.416-.048,1.088-.192,1.088-.385C22.875,5.173,22.315,4.836,22.107,4.66Z"/></svg>