<svg xmlns="http://www.w3.org/2000/svg" viewBox="0 0 15.223 24.094"><path d="M15.211,10.426a65.738,65.738,0,0,0-6.48,4.1.2.2,0,0,1,.111-.064c.017,0,.032.016.032.048a.264.264,0,0,1-.08.144c-.48.48-.384.368-.768.768L6.953,16.507,5.529,17.851C3.9,19.34,2.408,20.445,1.576,20.445a1.714,1.714,0,0,1-.591-.019l-.952-.44c0,.038-.01.066-.01.106a2.077,2.077,0,0,0,2.049,2c1.68,0,3.377-1.553,4.242-2.321.3-.272,1.216-1.248,2.337-2.433l1.04-1.12c1.536-1.633,3.153-3.378,3.969-4.194.737-.737,1.553-1.393,1.553-1.585Z"/></svg>