<svg xmlns="http://www.w3.org/2000/svg" viewBox="0 0 28.346 28.346"><defs><style>.a{fill:#dedede;}.b{fill:#ff780e;}</style></defs><rect class="a" width="28.346" height="28.346"/><path class="b" d="M10.5,17.246V21.8a7.839,7.839,0,0,1-5.525-2.125,7.176,7.176,0,0,1-2.14-5.413A8.124,8.124,0,0,1,4.944,8.217,5.26,5.26,0,0,1,8.822,6.541a6.437,6.437,0,0,1,3.378.8,6.86,6.86,0,0,1,1.862,1.8q1.24,1.674,1.488,1.923a3.928,3.928,0,0,0,2.141,1.117H18.87v4.189h-1.4a5.175,5.175,0,0,1-3.071-.9,7.947,7.947,0,0,1-1.784-1.784,10.8,10.8,0,0,0-1.412-1.6,3,3,0,0,0-1.954-.683q-2.792,0-2.792,2.637A2.7,2.7,0,0,0,7.6,16.422,5.112,5.112,0,0,0,10.5,17.246Zm15.015-.434h-4.78V11.946h4.777Z"/></svg>