<svg xmlns="http://www.w3.org/2000/svg" viewBox="0 0 28.346 28.346"><defs><style>.a{fill:#444;}.b{fill:#dedede;}.c{fill:#f18724;}</style></defs><circle class="a" cx="14.173" cy="14.173" r="14.173"/><rect class="b" width="28.346" height="28.346"/><path class="c" d="M11.1,10.5H6.542A7.839,7.839,0,0,1,8.667,4.975a7.176,7.176,0,0,1,5.413-2.14,8.124,8.124,0,0,1,6.049,2.109,5.26,5.26,0,0,1,1.676,3.878A6.437,6.437,0,0,1,21,12.2a6.86,6.86,0,0,1-1.8,1.862q-1.674,1.24-1.923,1.488a3.928,3.928,0,0,0-1.117,2.141V18.87H11.971v-1.4a5.175,5.175,0,0,1,.9-3.071,7.947,7.947,0,0,1,1.784-1.784,10.8,10.8,0,0,0,1.6-1.412,3,3,0,0,0,.683-1.954q0-2.792-2.637-2.792A2.7,2.7,0,0,0,11.924,7.6,5.112,5.112,0,0,0,11.1,10.5Zm.434,15.015v-4.78H16.4v4.777Z"/></svg>