<?xml version="1.0" encoding="UTF-8"?>
<svg id="Layer_1" data-name="Layer 1" xmlns="http://www.w3.org/2000/svg" xmlns:xlink="http://www.w3.org/1999/xlink" viewBox="0 0 28.35 28.35">
  <defs>
    <style>
      .cls-1 {
        stroke-width: 1.42px;
      }

      .cls-1, .cls-2 {
        stroke: #ff780e;
        stroke-miterlimit: 10;
      }

      .cls-1, .cls-2, .cls-3 {
        fill: none;
      }

      .cls-4 {
        fill: #dedede;
      }

      .cls-5 {
        fill: #ff780e;
      }

      .cls-6 {
        clip-path: url(#clippath-1);
      }

      .cls-7 {
        clip-path: url(#clippath);
      }

      .cls-8 {
        fill: #de780e;
      }
    </style>
    <clipPath id="clippath">
      <path class="cls-3" d="m2.51,26.47h23.32V1.88H2.51v24.59Zm8.38-11.52c-.58,0-1.05,0-1.35-.01v.19h-1.03c-.33.87-1.18,1.5-2.17,1.5-1.28,0-2.33-1.04-2.33-2.33s1.04-2.32,2.33-2.32c.99,0,1.82.63,2.16,1.5h1.04v.19c.31,0,.78,0,1.35-.01.02-.89.13-1.81.39-2.7-.34-.12-.59-.43-.59-.81,0-.48.39-.87.87-.87s.87.39.87.87c0,.37-.23.68-.55.8.24.8.31,1.74.3,2.7,1.63,1.95,8.1,4.56,8.12,2.92.54-1.91-1.58-7.88-1.58-7.88,0,0-.11.37-.09.79,0,0-1.23-.24-2.59-2.3,1.1-1.14,3.6-.35,3.6-.35-.34.26-.6.79-.6.79.8.3,1.86.46,3.06,1.84,1.2,1.39.97,3.01,2.96,4.72l.18.13-.18.13c-2,1.71-1.76,3.33-2.96,4.72-1.2,1.39-2.07-.95-2.88-.64m-.5,1.41s2.6-1.05,2.06-2.96c-.03-1.65-5.17-1.94-8.61-2,.01.97-.06,1.93-.3,2.74.32.13.55.44.55.8"/>
    </clipPath>
    <clipPath id="clippath-1">
      <path class="cls-3" d="m27,14.18c0,7.07-5.75,12.82-12.82,12.82S1.35,21.25,1.35,14.18,7.1,1.36,14.17,1.36s12.82,5.75,12.82,12.82h.01Zm-24.89,0c0,6.65,5.41,12.06,12.06,12.06s12.07-5.41,12.07-12.07S20.83,2.1,14.17,2.1,2.11,7.52,2.11,14.18Z"/>
    </clipPath>
  </defs>
  <rect class="cls-8" y="0" width="28.35" height="28.35"/>
  <g>
    <circle id="bg-circle" class="cls-4" cx="14.17" cy="14.18" r="13.2"/>
    <path id="anchor" class="cls-5" d="m16.04,7.17c1.36,2.07,2.59,2.3,2.59,2.3-.01-.42.09-.79.09-.79,0,0,2.6,1.05,2.06,2.96-.03,1.65-5.17,1.94-8.61,2,.01-.95-.06-1.9-.3-2.7.32-.13.55-.44.55-.8,0-.48-.39-.87-.87-.87s-.87.39-.87.87c0,.38.25.7.59.81-.26.89-.37,1.81-.39,2.7-.58,0-1.05,0-1.35.01v-.19h-1.04c-.33-.87-1.17-1.5-2.16-1.5-1.28,0-2.33,1.04-2.33,2.32s1.04,2.33,2.33,2.33c.99,0,1.83-.63,2.17-1.5h1.03v-.19c.31,0,.78,0,1.35.01.02.9.13,1.84.39,2.74-.34.12-.59.43-.59.81,0,.48.39.87.87.87s.87-.39.87-.87c0-.37-.23-.68-.55-.8.24-.81.31-1.77.3-2.74,3.44.06,8.58.35,8.61,2,.54,1.91-2.06,2.96-2.06,2.96,0,0-.11-.37-.09-.79,0,0-1.23.24-2.59,2.3,1.1,1.14,3.6.35,3.6.35-.34-.26-.6-.79-.6-.79.8-.3,1.86-.46,3.06-1.84,1.2-1.39.97-3.01,2.96-4.72l.18-.13-.18-.13c-2-1.71-1.76-3.33-2.96-4.72-1.2-1.39-2.26-1.54-3.06-1.84,0,0,.26-.53.6-.79,0,0-2.49-.79-3.6.35h0Zm-8.9,7.97h.52c-.28.44-.77.74-1.33.74-.86,0-1.57-.7-1.57-1.57s.7-1.57,1.57-1.57c.56,0,1.05.3,1.33.74h-.52v1.66Z"/>
    <g id="M">
      <g class="cls-7">
        <path id="rope" class="cls-1" d="m18.08,6.81c-7.11-1.28-15.78,2.57-11.62,3.48,2.49.54,12.68,1.35,12.6,2.48-.04,2.4-29.13,16.71,4.15,7.02"/>
      </g>
    </g>
    <circle id="outer-circle_rope" data-name="outer-circle rope" class="cls-2" cx="14.17" cy="14.18" r="12.45"/>
    <g id="outer_lines" data-name="outer lines">
      <g class="cls-6">
        <g id="lines">
          <path id="line" class="cls-4" d="m25.78,16.78c.05-.29.46-.88,1.4-.92l-.04.21c-1.18.04-1.42,1-1.42,1,0,0,.04-.21.06-.29Z"/>
          <path id="line-2" class="cls-4" d="m25.36,18.22c.09-.28.57-.82,1.5-.74l-.07.21c-1.18-.11-1.53.81-1.53.81,0,0,.07-.2.1-.28Z"/>
          <path id="line-3" class="cls-4" d="m24.77,19.6c.12-.26.67-.74,1.58-.54l-.09.2c-1.15-.26-1.62.61-1.62.61,0,0,.09-.19.13-.27Z"/>
          <path id="line-4" class="cls-4" d="m24,20.89c.16-.25.76-.65,1.64-.34l-.12.18c-1.11-.4-1.68.41-1.68.41,0,0,.12-.18.17-.25h0Z"/>
          <path id="line-5" class="cls-4" d="m23.08,22.07c.19-.22.83-.55,1.67-.13l-.14.17c-1.05-.54-1.72.19-1.72.19,0,0,.14-.16.2-.23h-.01Z"/>
          <path id="line-6" class="cls-4" d="m22.01,23.13c.21-.2.89-.44,1.67.08l-.16.15c-.98-.67-1.73-.03-1.73-.03,0,0,.16-.14.22-.2Z"/>
          <path id="line-7" class="cls-4" d="m20.82,24.05c.24-.17.94-.33,1.65.29l-.18.13c-.88-.78-1.72-.25-1.72-.25,0,0,.17-.12.25-.17Z"/>
          <path id="line-8" class="cls-4" d="m19.53,24.8c.26-.14.98-.2,1.6.49l-.19.11c-.78-.89-1.67-.46-1.67-.46,0,0,.19-.1.27-.14h-.01Z"/>
          <path id="line-9" class="cls-4" d="m18.15,25.39c.27-.11.99-.08,1.52.69l-.2.08c-.66-.98-1.6-.67-1.6-.67,0,0,.2-.07.28-.11h0Z"/>
          <path id="line-10" class="cls-4" d="m16.71,25.8c.28-.07,1,.05,1.42.88l-.21.05c-.53-1.05-1.5-.86-1.5-.86,0,0,.21-.05.29-.07Z"/>
          <path id="line-11" class="cls-4" d="m15.22,26.03c.29-.04.98.17,1.3,1.05l-.22.03c-.4-1.11-1.38-1.04-1.38-1.04,0,0,.21-.02.3-.03h0Z"/>
          <path id="line-12" class="cls-4" d="m13.72,26.07c.29,0,.95.29,1.16,1.2h-.22c-.25-1.15-1.24-1.21-1.24-1.21h.3Z"/>
          <path id="line-13" class="cls-4" d="m12.23,25.92c.29.04.91.41,1,1.34l-.22-.03c-.11-1.18-1.08-1.36-1.08-1.36,0,0,.21.03.3.04h0Z"/>
          <path id="line-14" class="cls-4" d="m10.77,25.58c.28.07.85.52.82,1.46l-.21-.05c.04-1.18-.9-1.48-.9-1.48,0,0,.2.06.29.08h0Z"/>
          <path id="line-15" class="cls-4" d="m9.36,25.06c.27.11.78.63.63,1.55l-.2-.08c.19-1.17-.71-1.58-.71-1.58,0,0,.19.08.28.12h0Z"/>
          <path id="line-16" class="cls-4" d="m8.03,24.37c.25.14.69.72.43,1.61l-.19-.11c.34-1.13-.5-1.66-.5-1.66,0,0,.18.11.26.15h0Z"/>
          <path id="line-17" class="cls-4" d="m6.79,23.51c.23.17.6.8.22,1.66l-.18-.13c.48-1.08-.29-1.71-.29-1.71,0,0,.17.13.24.18h.01Z"/>
          <path id="line-18" class="cls-4" d="m5.68,22.51c.21.2.49.87.01,1.67l-.16-.15c.61-1.01-.07-1.73-.07-1.73l.21.21h0Z"/>
          <path id="line-19" class="cls-4" d="m4.7,21.38c.18.23.38.92-.2,1.66l-.14-.17c.73-.93.15-1.73.15-1.73,0,0,.13.17.19.24Z"/>
          <path id="line-20" class="cls-4" d="m3.87,20.13c.15.25.26.96-.4,1.62l-.12-.19c.84-.83.36-1.69.36-1.69,0,0,.11.18.16.26Z"/>
          <path id="line-21" class="cls-4" d="m3.2,18.78c.12.26.14.99-.6,1.56l-.09-.2c.94-.72.57-1.64.57-1.64,0,0,.08.19.12.28Z"/>
          <path id="line-22" class="cls-4" d="m2.71,17.37c.09.28,0,1-.79,1.47l-.07-.21c1.02-.59.78-1.55.78-1.55,0,0,.06.2.09.29h0Z"/>
          <path id="line-23" class="cls-4" d="m2.4,15.9c.05.29-.11.99-.97,1.36l-.04-.22c1.09-.46.96-1.44.96-1.44,0,0,.03.21.05.3Z"/>
          <path id="line-24" class="cls-4" d="m2.27,14.4c.02.29-.24.97-1.14,1.22v-.22c1.13-.32,1.13-1.31,1.13-1.31,0,0,0,.21,0,.3h0Z"/>
          <path id="line-25" class="cls-4" d="m2.34,12.9c-.02.29-.36.93-1.28,1.07l.02-.22c1.17-.17,1.29-1.15,1.29-1.15,0,0-.02.21-.03.3Z"/>
          <path id="line-26" class="cls-4" d="m2.59,11.43c-.06.29-.47.88-1.41.9l.04-.21c1.18-.02,1.43-.98,1.43-.98,0,0-.05.21-.06.29Z"/>
          <path id="line-27" class="cls-4" d="m3.03,9.99c-.09.28-.58.81-1.51.72l.07-.21c1.17.13,1.54-.79,1.54-.79,0,0-.07.2-.1.28Z"/>
          <path id="line-28" class="cls-4" d="m3.65,8.62c-.13.26-.68.73-1.59.52l.09-.2c1.15.27,1.63-.59,1.63-.59,0,0-.1.19-.14.27h.01Z"/>
          <path id="line-29" class="cls-4" d="m4.43,7.34c-.16.24-.76.64-1.64.32l.12-.18c1.11.41,1.69-.38,1.69-.38,0,0-.12.17-.17.25h0Z"/>
          <path id="line-30" class="cls-4" d="m5.37,6.17c-.19.22-.84.54-1.67.11l.14-.17c1.04.55,1.72-.17,1.72-.17,0,0-.14.16-.2.23h0Z"/>
          <path id="line-31" class="cls-4" d="m6.44,5.13c-.21.2-.9.43-1.67-.1l.16-.15c.97.68,1.73.05,1.73.05,0,0-.16.14-.23.2h.01Z"/>
          <path id="line-32" class="cls-4" d="m7.65,4.23c-.24.17-.95.31-1.64-.31l.18-.13c.87.79,1.71.27,1.71.27,0,0-.18.12-.25.17Z"/>
          <path id="line-33" class="cls-4" d="m8.95,3.48c-.26.14-.98.19-1.59-.51l.19-.1c.77.9,1.67.48,1.67.48,0,0-.19.09-.27.14h0Z"/>
          <path id="line-34" class="cls-4" d="m10.34,2.91c-.27.1-1,.07-1.51-.71l.2-.08c.65.99,1.59.69,1.59.69,0,0-.2.07-.28.1Z"/>
          <path id="line-35" class="cls-4" d="m11.78,2.52c-.28.07-1-.06-1.41-.89l.21-.05c.52,1.06,1.49.88,1.49.88,0,0-.21.04-.29.07h0Z"/>
          <path id="line-36" class="cls-4" d="m13.27,2.31c-.29.03-.98-.18-1.29-1.07l.22-.02c.38,1.12,1.37,1.06,1.37,1.06,0,0-.21.02-.3.03Z"/>
          <path id="line-37" class="cls-4" d="m14.77,2.29c-.29,0-.95-.31-1.14-1.22h.22c.24,1.16,1.23,1.23,1.23,1.23h-.31Z"/>
          <path id="line-38" class="cls-4" d="m16.26,2.46c-.29-.04-.9-.42-.98-1.35l.22.03c.09,1.18,1.06,1.37,1.06,1.37,0,0-.21-.04-.3-.05Z"/>
          <path id="line-39" class="cls-4" d="m17.72,2.82c-.28-.08-.84-.53-.8-1.47l.21.06c-.06,1.18.88,1.49.88,1.49,0,0-.2-.06-.29-.08Z"/>
          <path id="line-40" class="cls-4" d="m19.12,3.35c-.27-.11-.77-.63-.61-1.56l.2.08c-.21,1.16.69,1.59.69,1.59,0,0-.19-.09-.28-.12h0Z"/>
          <path id="line-41" class="cls-4" d="m20.44,4.06c-.25-.14-.68-.73-.41-1.62l.19.11c-.35,1.13.48,1.67.48,1.67,0,0-.18-.11-.26-.15h0Z"/>
          <path id="line-42" class="cls-4" d="m21.67,4.93c-.23-.18-.59-.81-.2-1.66l.17.13c-.49,1.07.27,1.71.27,1.71,0,0-.17-.13-.24-.19h0Z"/>
          <path id="line-43" class="cls-4" d="m22.77,5.95c-.21-.2-.48-.87,0-1.67l.16.15c-.62,1,.05,1.73.05,1.73l-.21-.21Z"/>
          <path id="line-44" class="cls-4" d="m23.74,7.09c-.18-.23-.37-.93.22-1.66l.14.17c-.74.92-.17,1.72-.17,1.72,0,0-.13-.17-.18-.24h0Z"/>
          <path id="line-45" class="cls-4" d="m24.55,8.35c-.15-.25-.25-.97.42-1.62l.11.19c-.85.82-.38,1.69-.38,1.69,0,0-.11-.18-.15-.26Z"/>
          <path id="line-46" class="cls-4" d="m25.2,9.71c-.12-.27-.12-.99.62-1.55l.09.2c-.95.7-.59,1.63-.59,1.63,0,0-.08-.2-.12-.28Z"/>
          <path id="line-47" class="cls-4" d="m25.68,11.13c-.08-.28,0-1,.81-1.46l.06.21c-1.03.58-.79,1.54-.79,1.54,0,0-.06-.2-.08-.29Z"/>
          <path id="line-48" class="cls-4" d="m25.97,12.6c-.05-.29.13-.99.99-1.35l.04.22c-1.09.44-.98,1.43-.98,1.43,0,0-.03-.21-.05-.3Z"/>
          <path id="line-49" class="cls-4" d="m26.07,14.1c-.01-.29.25-.97,1.15-1.21v.22c-1.13.3-1.14,1.29-1.14,1.29v-.3h-.01Z"/>
          <path id="line-50" class="cls-4" d="m25.99,15.6c.02-.29.37-.93,1.3-1.06l-.02.22c-1.17.16-1.31,1.14-1.31,1.14,0,0,.02-.21.03-.3Z"/>
        </g>
      </g>
    </g>
    <g id="M_lines" data-name="M lines">
      <path class="cls-4" d="m21.87,20.78c-.26-.02-.37-.69-.32-1.03,0-.01.21-.05.21-.05,0,0-.08.64.2,1.05-.02.01-.06.03-.1.02h.01Z"/>
      <path class="cls-4" d="m18.68,21.62c-.25-.03-.36-.7-.3-1.03,0-.02.21-.04.21-.04,0,0-.08.64.19,1.05-.02.01-.06.03-.1.02Z"/>
      <path class="cls-4" d="m15.97,22.33c-.24-.04-.34-.71-.28-1.04,0-.02.21-.04.21-.04.01.01-.09.64.17,1.05-.03.01-.06.03-.1.02h0Z"/>
      <path class="cls-4" d="m13.68,22.87c-.23-.06-.31-.73-.25-1.04.01-.02.21-.03.21-.04.02.02-.09.64.14,1.06-.03.01-.06.02-.1.02Z"/>
      <path class="cls-4" d="m11.77,23.27c-.22-.08-.28-.74-.21-1.05.02-.02.21-.03.21-.03.02.03-.11.64.11,1.06-.03.01-.06.02-.11.02Z"/>
      <path class="cls-4" d="m10.23,23.52c-.2-.09-.24-.76-.16-1.06.02-.02.21-.02.21-.02.03.03-.14.64.06,1.07-.03,0-.07.02-.11,0Z"/>
      <path class="cls-4" d="m9.01,23.64c-.19-.12-.17-.77-.07-1.07.02-.01.21,0,.21,0,.03.04-.18.64-.03,1.07-.04,0-.07.01-.11,0Z"/>
      <path class="cls-4" d="m8.08,23.62c-.16-.15-.05-.79.08-1.07.03-.01.2.03.21.03.03.05-.26.61-.18,1.05-.04,0-.07,0-.11,0Z"/>
      <path class="cls-4" d="m7.37,23.45c-.1-.19.19-.77.39-1,.03,0,.18.08.19.09.01.07-.43.52-.47.96-.04,0-.07-.02-.11-.04h0Z"/>
      <path class="cls-4" d="m6.85,22.96c.05-.21.62-.5.91-.57.03.02.1.18.1.19-.04.07-.65.17-.95.49-.03-.03-.05-.06-.06-.1h0Z"/>
      <path class="cls-4" d="m6.8,22.25c.18-.11.8.06,1.06.2,0,.04-.05.19-.05.21-.08.03-.6-.31-1.03-.29,0-.04,0-.08.02-.12Z"/>
      <path class="cls-4" d="m7.08,21.68c.21-.02.72.36.91.57,0,.04-.11.16-.12.17-.09,0-.45-.51-.85-.64.02-.04.04-.07.07-.1h-.01Z"/>
      <path class="cls-4" d="m7.52,21.15c.2.03.64.48.79.72-.02.04-.14.14-.15.15-.1-.02-.36-.58-.73-.78.03-.04.05-.06.09-.09Z"/>
      <path class="cls-4" d="m8.09,20.6c.2.06.59.54.72.79-.02.04-.15.13-.16.13-.11-.03-.32-.61-.66-.84.03-.04.05-.06.1-.09h0Z"/>
      <path class="cls-4" d="m8.79,20.01c.19.08.56.58.68.83-.03.04-.15.12-.17.13-.11-.04-.29-.63-.61-.88.04-.03.06-.06.1-.08Z"/>
      <path class="cls-4" d="m9.6,19.38c.18.1.53.61.65.86-.03.04-.16.11-.17.12-.12-.05-.28-.64-.58-.9.04-.03.06-.06.11-.08h0Z"/>
      <path class="cls-4" d="m10.49,18.73c.18.11.51.62.63.87-.03.04-.16.11-.17.12-.12-.05-.27-.65-.56-.91.04-.03.07-.06.11-.08h0Z"/>
      <path class="cls-4" d="m11.44,18.06c.17.13.5.64.61.88-.04.04-.16.1-.18.11-.13-.06-.27-.65-.55-.91.04-.03.07-.06.11-.08h.01Z"/>
      <path class="cls-4" d="m12.43,17.38c.17.14.49.65.61.89-.04.04-.15.1-.18.11-.14-.06-.27-.66-.55-.92.04-.03.07-.06.12-.08Z"/>
      <path class="cls-4" d="m13.42,16.69c.16.15.48.65.6.89-.04.04-.15.1-.18.11-.15-.07-.28-.66-.55-.92.05-.04.07-.06.12-.08h.01Z"/>
      <path class="cls-4" d="m14.41,16.02c.16.16.48.66.6.89-.05.05-.15.1-.17.11-.15-.07-.29-.66-.55-.92.05-.04.07-.06.12-.08Z"/>
      <path class="cls-4" d="m15.35,15.37c.15.17.48.66.61.88-.05.05-.15.1-.17.11-.16-.07-.31-.66-.56-.91.05-.04.07-.06.12-.09h0Z"/>
      <path class="cls-4" d="m16.22,14.74c.15.18.49.66.62.88-.05.05-.15.1-.17.12-.17-.07-.32-.65-.57-.9.05-.04.07-.06.12-.09h0Z"/>
      <path class="cls-4" d="m17.01,14.16c.15.19.5.65.64.86-.05.05-.14.11-.17.12-.18-.07-.35-.65-.6-.89.05-.04.07-.06.12-.1h.01Z"/>
      <path class="cls-4" d="m17.67,13.63c.16.19.52.64.68.83-.05.06-.14.11-.16.13-.19-.07-.38-.63-.64-.86.05-.04.07-.07.12-.1Z"/>
      <path class="cls-4" d="m18.17,13.17c.17.19.57.6.74.78-.05.06-.12.12-.15.14-.2-.06-.44-.6-.7-.81.05-.05.07-.07.11-.11Z"/>
      <path class="cls-4" d="m18.49,12.8c.2.18.65.52.85.66-.04.07-.1.14-.13.16-.22-.03-.53-.53-.82-.69.04-.06.06-.08.09-.13h0Z"/>
      <path class="cls-4" d="m18.55,12.63c.25.1.79.25,1.03.31-.01.08-.05.16-.06.2-.22.06-.7-.29-1.01-.34.02-.07.02-.1.04-.16h0Z"/>
      <path class="cls-4" d="m18.51,12.89c.23-.16.64-.54.8-.72.07.06.12.12.14.15-.07.23-.61.45-.82.68-.05-.05-.07-.07-.11-.12h0Z"/>
      <path class="cls-4" d="m18.23,12.79c.16-.24.36-.76.43-.98.09.02.15.06.19.08.03.24-.37.67-.46.96-.07-.03-.1-.04-.16-.06Z"/>
      <path class="cls-4" d="m17.5,12.56c.14-.26.26-.8.3-1.03.09.01.16.04.2.06.07.24-.27.72-.33,1.02-.07-.02-.1-.02-.17-.04h0Z"/>
      <path class="cls-4" d="m16.46,12.33c.13-.28.22-.81.23-1.05.09,0,.16.03.2.04.09.25-.22.74-.26,1.04-.08-.01-.11-.02-.17-.03Z"/>
      <path class="cls-4" d="m15.2,12.11c.13-.29.2-.82.2-1.06.1,0,.16.02.2.04.1.25-.19.76-.23,1.05-.08-.01-.11-.01-.17-.02h0Z"/>
      <path class="cls-4" d="m13.8,11.89c.14-.29.19-.83.18-1.06.1,0,.16.02.2.03.11.26-.17.77-.2,1.05-.08,0-.11-.01-.18-.02Z"/>
      <path class="cls-4" d="m12.33,11.69c.15-.3.19-.83.17-1.06.1,0,.16.02.2.03.11.27-.16.78-.19,1.05-.08,0-.11-.01-.18-.02Z"/>
      <path class="cls-4" d="m10.85,11.5c.15-.31.19-.83.16-1.06.11,0,.16.02.2.03.12.27-.15.78-.18,1.05-.08,0-.11-.01-.18-.02Z"/>
      <path class="cls-4" d="m9.44,11.31c.17-.31.2-.83.17-1.06.11,0,.15.02.2.03.12.28-.14.79-.18,1.05-.09,0-.11-.01-.18-.02h0Z"/>
      <path class="cls-4" d="m8.16,11.14c.18-.31.22-.83.18-1.06.11,0,.15.02.2.03.12.29-.15.8-.19,1.05-.09-.01-.12-.01-.19-.02Z"/>
      <path class="cls-4" d="m7.07,10.97c.2-.32.25-.83.21-1.06.11,0,.15.02.2.03.12.3-.16.8-.22,1.05-.09-.01-.12-.02-.19-.02Z"/>
      <path class="cls-4" d="m6.24,10.8c.23-.31.31-.81.28-1.04.12.02.15.03.2.05.1.32-.21.79-.28,1.03-.09-.02-.12-.03-.19-.04h0Z"/>
      <path class="cls-4" d="m5.36,10.44c.32-.23.54-.68.57-.91.11.05.13.07.17.1,0,.34-.43.71-.57.9-.08-.05-.11-.06-.17-.09Z"/>
      <path class="cls-4" d="m4.84,9.77c.4.03.85-.2,1.01-.37.06.11.06.13.08.19-.21.27-.78.3-1.01.36-.04-.09-.05-.11-.08-.18Z"/>
      <path class="cls-4" d="m4.97,8.94c.26.32.73.48.97.48-.04.12-.05.14-.08.18-.35.04-.76-.35-.96-.48.04-.09.05-.11.07-.18Z"/>
      <path class="cls-4" d="m5.5,8.35c.11.41.47.74.69.83-.09.09-.1.1-.15.13-.35-.11-.56-.63-.69-.82.07-.07.09-.08.14-.14h.01Z"/>
      <path class="cls-4" d="m6.25,7.84c.02.44.31.83.51.95-.11.07-.12.08-.17.1-.32-.18-.43-.73-.51-.94.09-.05.11-.06.17-.11Z"/>
      <path class="cls-4" d="m7.23,7.37c-.05.44.2.87.38,1.01-.12.06-.13.06-.18.08-.31-.23-.35-.78-.39-1,.09-.04.12-.05.19-.09Z"/>
      <path class="cls-4" d="m8.43,6.95c-.09.45.11.89.29,1.04q-.13.05-.19.06c-.29-.26-.28-.81-.29-1.03.1-.03.12-.04.2-.07h-.01Z"/>
      <path class="cls-4" d="m9.81,6.58c-.14.45.03.9.2,1.06q-.13.04-.19.05c-.28-.29-.22-.84-.21-1.05.1-.02.13-.03.2-.06Z"/>
      <path class="cls-4" d="m11.35,6.28c-.18.44-.04.9.13,1.07-.14.03-.13.03-.2.03-.26-.31-.17-.86-.14-1.06.11-.02.13-.02.21-.04Z"/>
      <path class="cls-4" d="m13.02,6.09c-.22.44-.11.9.05,1.08-.14.02-.13.02-.2.02-.24-.34-.11-.87-.06-1.07.11,0,.13-.01.21-.03Z"/>
      <path class="cls-4" d="m14.83,6.01c-.26.43-.19.89-.04,1.08-.15.01-.13.01-.2,0-.22-.36-.05-.88.02-1.07.11,0,.14,0,.22-.01Z"/>
      <path class="cls-4" d="m16.6,6.08c-.31.41-.27.87-.13,1.07-.15,0-.13,0-.2-.01-.19-.39.02-.89.11-1.07.11,0,.14.01.22,0h0Z"/>
    </g>
  </g>
</svg>