<?xml version="1.0" encoding="UTF-8"?>
<svg id="Layer_1" data-name="Layer 1" xmlns="http://www.w3.org/2000/svg" xmlns:xlink="http://www.w3.org/1999/xlink" viewBox="0 0 28.35 28.35">
  <defs>
    <style>
      .cls-1 {
        fill: #dedede;
      }

      .cls-2 {
        fill: #ff780e;
      }

      .cls-3 {
        clip-path: url(#clippath-1);
      }

      .cls-4, .cls-5, .cls-6 {
        fill: none;
      }

      .cls-4, .cls-6 {
        stroke: #ff780e;
        stroke-miterlimit: 10;
      }

      .cls-7 {
        clip-path: url(#clippath);
      }

      .cls-8 {
        fill: #de780e;
      }

      .cls-6 {
        stroke-width: 1.42px;
      }
    </style>
    <clipPath id="clippath">
      <path id="M_mask" data-name="M mask" class="cls-5" d="m1.88,2.51v23.32h24.59V2.51H1.88Zm11.52,8.38c0-.58,0-1.05.01-1.35h-.19v-1.03c-.87-.33-1.5-1.18-1.5-2.17,0-1.28,1.04-2.33,2.33-2.33s2.32,1.04,2.32,2.33c0,.99-.63,1.82-1.5,2.16v1.04h-.19c0,.31,0,.78.01,1.35.89.02,1.81.13,2.7.39.12-.34.43-.59.81-.59.48,0,.87.39.87.87s-.39.87-.87.87c-.37,0-.68-.23-.8-.55-.8.24-1.74.31-2.7.3-1.95,1.63-4.56,8.1-2.92,8.12,1.91.54,7.88-1.58,7.88-1.58,0,0-.37-.11-.79-.09,0,0,.24-1.23,2.3-2.59,1.14,1.1.35,3.6.35,3.6-.26-.34-.79-.6-.79-.6-.3.8-.46,1.86-1.84,3.06-1.39,1.2-3.01.97-4.72,2.96l-.13.18-.13-.18c-1.71-2-3.33-1.76-4.72-2.96-1.39-1.2.95-2.07.64-2.88m-1.41-.5s1.05,2.6,2.96,2.06c1.65-.03,1.94-5.17,2-8.61-.97.01-1.93-.06-2.74-.3-.13.32-.44.55-.8.55"/>
    </clipPath>
    <clipPath id="clippath-1">
      <path class="cls-5" d="m14.17,27c-7.07,0-12.82-5.75-12.82-12.82S7.1,1.35,14.17,1.35s12.82,5.75,12.82,12.82-5.75,12.82-12.82,12.82Zm0-24.89C7.52,2.11,2.11,7.52,2.11,14.17s5.41,12.07,12.07,12.07,12.07-5.41,12.07-12.07S20.83,2.11,14.17,2.11Z"/>
    </clipPath>
  </defs>
  <rect class="cls-8" y="0" width="28.35" height="28.35"/>
  <g>
    <circle id="bg-circle" class="cls-1" cx="14.17" cy="14.17" r="13.2"/>
    <path id="anchor" class="cls-2" d="m21.18,16.04c-2.07,1.36-2.3,2.59-2.3,2.59.42-.01.79.09.79.09,0,0-1.05,2.6-2.96,2.06-1.65-.03-1.94-5.17-2-8.61.95.01,1.9-.06,2.7-.3.13.32.44.55.8.55.48,0,.87-.39.87-.87s-.39-.87-.87-.87c-.38,0-.7.25-.81.59-.89-.26-1.81-.37-2.7-.39,0-.58,0-1.05-.01-1.35h.19v-1.04c.87-.33,1.5-1.17,1.5-2.16,0-1.28-1.04-2.33-2.32-2.33s-2.33,1.04-2.33,2.33c0,.99.63,1.83,1.5,2.17v1.03h.19c0,.31,0,.78-.01,1.35-.9.02-1.84.13-2.74.39-.12-.34-.43-.59-.81-.59-.48,0-.87.39-.87.87s.39.87.87.87c.37,0,.68-.23.8-.55.81.24,1.77.31,2.74.3-.06,3.44-.35,8.58-2,8.61-1.91.54-2.96-2.06-2.96-2.06,0,0,.37-.11.79-.09,0,0-.24-1.23-2.3-2.59-1.14,1.1-.35,3.6-.35,3.6.26-.34.79-.6.79-.6.3.8.46,1.86,1.84,3.06,1.39,1.2,3.01.97,4.72,2.96l.13.18.13-.18c1.71-2,3.33-1.76,4.72-2.96,1.39-1.2,1.54-2.26,1.84-3.06,0,0,.53.26.79.6,0,0,.79-2.49-.35-3.6Zm-7.96-8.9v.52c-.44-.28-.74-.77-.74-1.33,0-.86.7-1.57,1.57-1.57s1.57.7,1.57,1.57c0,.56-.3,1.05-.74,1.33v-.52s-.39,0-.83,0h-.83Z"/>
    <g id="M">
      <g class="cls-7">
        <path id="rope" class="cls-6" d="m21.54,18.08c1.28-7.11-2.57-15.78-3.48-11.62-.54,2.49-1.35,12.68-2.48,12.6-2.4-.04-16.71-29.13-7.02,4.15"/>
      </g>
    </g>
    <circle id="outer-circle_rope" data-name="outer-circle rope" class="cls-4" cx="14.17" cy="14.17" r="12.45"/>
    <g id="outer_lines" data-name="outer lines">
      <g class="cls-3">
        <g id="lines">
          <path id="line" class="cls-1" d="m11.57,25.78c.29.05.88.46.92,1.4l-.21-.04c-.04-1.18-1-1.42-1-1.42,0,0,.21.04.29.06Z"/>
          <path id="line-2" data-name="line" class="cls-1" d="m10.13,25.36c.28.09.82.57.74,1.5l-.21-.07c.11-1.18-.81-1.53-.81-1.53,0,0,.2.07.28.1Z"/>
          <path id="line-3" data-name="line" class="cls-1" d="m8.75,24.77c.26.12.74.67.54,1.58l-.2-.09c.26-1.15-.61-1.62-.61-1.62,0,0,.19.09.27.13Z"/>
          <path id="line-4" data-name="line" class="cls-1" d="m7.46,24c.25.16.65.76.34,1.64l-.18-.12c.4-1.11-.41-1.68-.41-1.68,0,0,.18.12.25.17Z"/>
          <path id="line-5" data-name="line" class="cls-1" d="m6.28,23.08c.22.19.55.83.13,1.67l-.17-.14c.54-1.05-.19-1.72-.19-1.72,0,0,.16.14.23.2Z"/>
          <path id="line-6" data-name="line" class="cls-1" d="m5.22,22.01c.2.21.44.89-.08,1.67l-.15-.16c.67-.98.03-1.73.03-1.73,0,0,.14.16.2.22Z"/>
          <path id="line-7" data-name="line" class="cls-1" d="m4.3,20.82c.17.24.33.94-.29,1.65l-.13-.18c.78-.88.25-1.72.25-1.72,0,0,.12.17.17.25Z"/>
          <path id="line-8" data-name="line" class="cls-1" d="m3.55,19.53c.14.26.2.98-.49,1.6l-.11-.19c.89-.78.46-1.67.46-1.67,0,0,.1.19.14.27Z"/>
          <path id="line-9" data-name="line" class="cls-1" d="m2.96,18.15c.11.27.08.99-.69,1.52l-.08-.2c.98-.66.67-1.6.67-1.6,0,0,.07.2.11.28Z"/>
          <path id="line-10" data-name="line" class="cls-1" d="m2.55,16.71c.07.28-.05,1-.88,1.42l-.05-.21c1.05-.53.86-1.5.86-1.5,0,0,.05.21.07.29Z"/>
          <path id="line-11" data-name="line" class="cls-1" d="m2.32,15.22c.04.29-.17.98-1.05,1.3l-.03-.22c1.11-.4,1.04-1.38,1.04-1.38,0,0,.02.21.03.3Z"/>
          <path id="line-12" data-name="line" class="cls-1" d="m2.28,13.72c0,.29-.29.95-1.2,1.16v-.22c1.15-.25,1.21-1.24,1.21-1.24,0,0,0,.21,0,.3Z"/>
          <path id="line-13" data-name="line" class="cls-1" d="m2.43,12.23c-.04.29-.41.91-1.34,1l.03-.22c1.18-.11,1.36-1.08,1.36-1.08,0,0-.03.21-.04.3Z"/>
          <path id="line-14" data-name="line" class="cls-1" d="m2.77,10.77c-.07.28-.52.85-1.46.82l.05-.21c1.18.04,1.48-.9,1.48-.9,0,0-.06.2-.08.29Z"/>
          <path id="line-15" data-name="line" class="cls-1" d="m3.29,9.36c-.11.27-.63.78-1.55.63l.08-.2c1.17.19,1.58-.71,1.58-.71,0,0-.08.19-.12.28Z"/>
          <path id="line-16" data-name="line" class="cls-1" d="m3.98,8.03c-.14.25-.72.69-1.61.43l.11-.19c1.13.34,1.66-.5,1.66-.5,0,0-.11.18-.15.26Z"/>
          <path id="line-17" data-name="line" class="cls-1" d="m4.84,6.79c-.17.23-.8.6-1.66.22l.13-.18c1.08.48,1.71-.29,1.71-.29,0,0-.13.17-.18.24Z"/>
          <path id="line-18" data-name="line" class="cls-1" d="m5.84,5.68c-.2.21-.87.49-1.67.01l.15-.16c1.01.61,1.73-.07,1.73-.07,0,0-.15.15-.21.21Z"/>
          <path id="line-19" data-name="line" class="cls-1" d="m6.97,4.7c-.23.18-.92.38-1.66-.2l.17-.14c.93.73,1.73.15,1.73.15,0,0-.17.13-.24.19Z"/>
          <path id="line-20" data-name="line" class="cls-1" d="m8.22,3.87c-.25.15-.96.26-1.62-.4l.19-.12c.83.84,1.69.36,1.69.36,0,0-.18.11-.26.16Z"/>
          <path id="line-21" data-name="line" class="cls-1" d="m9.57,3.2c-.26.12-.99.14-1.56-.6l.2-.09c.72.94,1.64.57,1.64.57,0,0-.19.08-.28.12Z"/>
          <path id="line-22" data-name="line" class="cls-1" d="m10.98,2.71c-.28.09-1,.01-1.47-.79l.21-.07c.59,1.02,1.55.78,1.55.78,0,0-.2.06-.29.09Z"/>
          <path id="line-23" data-name="line" class="cls-1" d="m12.45,2.4c-.29.05-.99-.11-1.36-.97l.22-.04c.46,1.09,1.44.96,1.44.96,0,0-.21.03-.3.05Z"/>
          <path id="line-24" data-name="line" class="cls-1" d="m13.95,2.27c-.29.02-.97-.24-1.22-1.14h.22c.32,1.13,1.31,1.13,1.31,1.13,0,0-.21,0-.3.01Z"/>
          <path id="line-25" data-name="line" class="cls-1" d="m15.45,2.34c-.29-.02-.93-.36-1.07-1.28l.22.02c.17,1.17,1.15,1.29,1.15,1.29,0,0-.21-.02-.3-.03Z"/>
          <path id="line-26" data-name="line" class="cls-1" d="m16.92,2.59c-.29-.06-.88-.47-.9-1.41l.21.04c.02,1.18.98,1.43.98,1.43,0,0-.21-.05-.29-.06Z"/>
          <path id="line-27" data-name="line" class="cls-1" d="m18.36,3.03c-.28-.09-.81-.58-.72-1.51l.21.07c-.13,1.17.79,1.54.79,1.54,0,0-.2-.07-.28-.1Z"/>
          <path id="line-28" data-name="line" class="cls-1" d="m19.73,3.65c-.26-.13-.73-.68-.52-1.59l.2.09c-.27,1.15.59,1.63.59,1.63,0,0-.19-.1-.27-.14Z"/>
          <path id="line-29" data-name="line" class="cls-1" d="m21.01,4.43c-.24-.16-.64-.76-.32-1.64l.18.12c-.41,1.11.38,1.69.38,1.69,0,0-.17-.12-.25-.17Z"/>
          <path id="line-30" data-name="line" class="cls-1" d="m22.18,5.37c-.22-.19-.54-.84-.11-1.67l.17.14c-.55,1.04.17,1.72.17,1.72,0,0-.16-.14-.23-.2Z"/>
          <path id="line-31" data-name="line" class="cls-1" d="m23.22,6.44c-.2-.21-.43-.9.1-1.67l.15.16c-.68.97-.05,1.73-.05,1.73,0,0-.14-.16-.2-.23Z"/>
          <path id="line-32" data-name="line" class="cls-1" d="m24.12,7.65c-.17-.24-.31-.95.31-1.64l.13.18c-.79.87-.27,1.71-.27,1.71,0,0-.12-.18-.17-.25Z"/>
          <path id="line-33" data-name="line" class="cls-1" d="m24.87,8.95c-.14-.26-.19-.98.51-1.59l.1.19c-.9.77-.48,1.67-.48,1.67,0,0-.09-.19-.14-.27Z"/>
          <path id="line-34" data-name="line" class="cls-1" d="m25.44,10.34c-.1-.27-.07-1,.71-1.51l.08.2c-.99.65-.69,1.59-.69,1.59,0,0-.07-.2-.1-.28Z"/>
          <path id="line-35" data-name="line" class="cls-1" d="m25.83,11.78c-.07-.28.06-1,.89-1.41l.05.21c-1.06.52-.88,1.49-.88,1.49,0,0-.04-.21-.07-.29Z"/>
          <path id="line-36" data-name="line" class="cls-1" d="m26.04,13.27c-.03-.29.18-.98,1.07-1.29l.02.22c-1.12.38-1.06,1.37-1.06,1.37,0,0-.02-.21-.03-.3Z"/>
          <path id="line-37" data-name="line" class="cls-1" d="m26.06,14.77c0-.29.31-.95,1.22-1.14v.22c-1.16.24-1.23,1.23-1.23,1.23,0,0,0-.21,0-.3Z"/>
          <path id="line-38" data-name="line" class="cls-1" d="m25.89,16.26c.04-.29.42-.9,1.35-.98l-.03.22c-1.18.09-1.37,1.06-1.37,1.06,0,0,.04-.21.05-.3Z"/>
          <path id="line-39" data-name="line" class="cls-1" d="m25.53,17.72c.08-.28.53-.84,1.47-.8l-.06.21c-1.18-.06-1.49.88-1.49.88,0,0,.06-.2.08-.29Z"/>
          <path id="line-40" data-name="line" class="cls-1" d="m25,19.12c.11-.27.63-.77,1.56-.61l-.08.2c-1.16-.21-1.59.69-1.59.69,0,0,.09-.19.12-.28Z"/>
          <path id="line-41" data-name="line" class="cls-1" d="m24.29,20.44c.14-.25.73-.68,1.62-.41l-.11.19c-1.13-.35-1.67.48-1.67.48,0,0,.11-.18.15-.26Z"/>
          <path id="line-42" data-name="line" class="cls-1" d="m23.42,21.67c.18-.23.81-.59,1.66-.2l-.13.17c-1.07-.49-1.71.27-1.71.27,0,0,.13-.17.19-.24Z"/>
          <path id="line-43" data-name="line" class="cls-1" d="m22.4,22.77c.2-.21.87-.48,1.67,0l-.15.16c-1-.62-1.73.05-1.73.05,0,0,.15-.15.21-.21Z"/>
          <path id="line-44" data-name="line" class="cls-1" d="m21.26,23.74c.23-.18.93-.37,1.66.22l-.17.14c-.92-.74-1.72-.17-1.72-.17,0,0,.17-.13.24-.18Z"/>
          <path id="line-45" data-name="line" class="cls-1" d="m20,24.55c.25-.15.97-.25,1.62.42l-.19.11c-.82-.85-1.69-.38-1.69-.38,0,0,.18-.11.26-.15Z"/>
          <path id="line-46" data-name="line" class="cls-1" d="m18.64,25.2c.27-.12.99-.12,1.55.62l-.2.09c-.7-.95-1.63-.59-1.63-.59,0,0,.2-.08.28-.12Z"/>
          <path id="line-47" data-name="line" class="cls-1" d="m17.22,25.68c.28-.08,1,0,1.46.81l-.21.06c-.58-1.03-1.54-.79-1.54-.79,0,0,.2-.06.29-.08Z"/>
          <path id="line-48" data-name="line" class="cls-1" d="m15.75,25.97c.29-.05.99.13,1.35.99l-.22.04c-.44-1.09-1.43-.98-1.43-.98,0,0,.21-.03.3-.05Z"/>
          <path id="line-49" data-name="line" class="cls-1" d="m14.25,26.07c.29-.01.97.25,1.21,1.15h-.22c-.3-1.13-1.29-1.14-1.29-1.14,0,0,.21,0,.3,0Z"/>
          <path id="line-50" data-name="line" class="cls-1" d="m12.75,25.99c.29.02.93.37,1.06,1.3l-.22-.02c-.16-1.17-1.14-1.31-1.14-1.31,0,0,.21.02.3.03Z"/>
        </g>
      </g>
    </g>
    <g id="M_lines" data-name="M lines">
      <path class="cls-1" d="m7.57,21.87c.02-.26.69-.37,1.03-.32.01,0,.05.21.05.21,0,0-.64-.08-1.05.2-.01-.02-.03-.06-.02-.1Z"/>
      <path class="cls-1" d="m6.73,18.68c.03-.25.7-.36,1.03-.3.02,0,.04.21.04.21,0,0-.64-.08-1.05.19-.01-.02-.03-.06-.02-.1Z"/>
      <path class="cls-1" d="m6.02,15.97c.04-.24.71-.34,1.04-.28.02,0,.04.21.04.21-.01.01-.64-.09-1.05.17-.01-.03-.03-.06-.02-.1Z"/>
      <path class="cls-1" d="m5.48,13.68c.06-.23.73-.31,1.04-.25.02.01.03.21.04.21-.02.02-.64-.09-1.06.14-.01-.03-.02-.06-.02-.1Z"/>
      <path class="cls-1" d="m5.08,11.77c.08-.22.74-.28,1.05-.21.02.02.03.21.03.21-.03.02-.64-.11-1.06.11-.01-.03-.02-.06-.02-.11Z"/>
      <path class="cls-1" d="m4.83,10.23c.09-.2.76-.24,1.06-.16.02.02.02.21.02.21-.03.03-.64-.14-1.07.06,0-.03-.02-.07-.01-.11Z"/>
      <path class="cls-1" d="m4.71,9.01c.12-.19.77-.17,1.07-.07.01.02,0,.21,0,.21-.04.03-.64-.18-1.07-.03,0-.04-.01-.07,0-.11Z"/>
      <path class="cls-1" d="m4.73,8.08c.15-.16.79-.05,1.07.08.01.03-.03.2-.03.21-.05.03-.61-.26-1.05-.18,0-.04,0-.07.01-.11Z"/>
      <path class="cls-1" d="m4.9,7.37c.19-.1.77.19,1,.39,0,.03-.08.18-.09.19-.07.01-.52-.43-.96-.47,0-.04.02-.07.04-.11Z"/>
      <path class="cls-1" d="m5.39,6.85c.21.05.5.62.57.91-.02.03-.18.1-.19.1-.07-.04-.17-.65-.49-.95.03-.03.06-.05.1-.06Z"/>
      <path class="cls-1" d="m6.1,6.8c.11.18-.06.8-.2,1.06-.04,0-.19-.05-.21-.05-.03-.08.31-.6.29-1.03.04,0,.08,0,.12.02Z"/>
      <path class="cls-1" d="m6.67,7.08c.02.21-.36.72-.57.91-.04,0-.16-.11-.17-.12,0-.09.51-.45.64-.85.04.02.07.04.1.07Z"/>
      <path class="cls-1" d="m7.2,7.52c-.03.2-.48.64-.72.79-.04-.02-.14-.14-.15-.15.02-.1.58-.36.78-.73.04.03.06.05.09.09Z"/>
      <path class="cls-1" d="m7.75,8.09c-.06.2-.54.59-.79.72-.04-.02-.13-.15-.13-.16.03-.11.61-.32.84-.66.04.03.06.05.09.1Z"/>
      <path class="cls-1" d="m8.34,8.79c-.08.19-.58.56-.83.68-.04-.03-.12-.15-.13-.17.04-.11.63-.29.88-.61.03.04.06.06.08.1Z"/>
      <path class="cls-1" d="m8.97,9.6c-.1.18-.61.53-.86.65-.04-.03-.11-.16-.12-.17.05-.12.64-.28.9-.58.03.04.06.06.08.11Z"/>
      <path class="cls-1" d="m9.62,10.49c-.11.18-.62.51-.87.63-.04-.03-.11-.16-.12-.17.05-.12.65-.27.91-.56.03.04.06.07.08.11Z"/>
      <path class="cls-1" d="m10.29,11.44c-.13.17-.64.5-.88.61-.04-.04-.1-.16-.11-.18.06-.13.65-.27.91-.55.03.04.06.07.08.11Z"/>
      <path class="cls-1" d="m10.97,12.43c-.14.17-.65.49-.89.61-.04-.04-.1-.15-.11-.18.06-.14.66-.27.92-.55.03.04.06.07.08.12Z"/>
      <path class="cls-1" d="m11.66,13.42c-.15.16-.65.48-.89.6-.04-.04-.1-.15-.11-.18.07-.15.66-.28.92-.55.04.05.06.07.08.12Z"/>
      <path class="cls-1" d="m12.33,14.41c-.16.16-.66.48-.89.6-.05-.05-.1-.15-.11-.17.07-.15.66-.29.92-.55.04.05.06.07.08.12Z"/>
      <path class="cls-1" d="m12.98,15.35c-.17.15-.66.48-.88.61-.05-.05-.1-.15-.11-.17.07-.16.66-.31.91-.56.04.05.06.07.09.12Z"/>
      <path class="cls-1" d="m13.61,16.22c-.18.15-.66.49-.88.62-.05-.05-.1-.15-.12-.17.07-.17.65-.32.9-.57.04.05.06.07.09.12Z"/>
      <path class="cls-1" d="m14.19,17.01c-.19.15-.65.5-.86.64-.05-.05-.11-.14-.12-.17.07-.18.65-.35.89-.6.04.05.06.07.1.12Z"/>
      <path class="cls-1" d="m14.72,17.67c-.19.16-.64.52-.83.68-.06-.05-.11-.14-.13-.16.07-.19.63-.38.86-.64.04.05.07.07.1.12Z"/>
      <path class="cls-1" d="m15.18,18.17c-.19.17-.6.57-.78.74-.06-.05-.12-.12-.14-.15.06-.2.6-.44.81-.7.05.05.07.07.11.11Z"/>
      <path class="cls-1" d="m15.55,18.49c-.18.2-.52.65-.66.85-.07-.04-.14-.1-.16-.13.03-.22.53-.53.69-.82.06.04.08.06.13.09Z"/>
      <path class="cls-1" d="m15.72,18.55c-.1.25-.25.79-.31,1.03-.08-.01-.16-.05-.2-.06-.06-.22.29-.7.34-1.01.07.02.1.02.16.04Z"/>
      <path class="cls-1" d="m15.46,18.51c.16.23.54.64.72.8-.06.07-.12.12-.15.14-.23-.07-.45-.61-.68-.82.05-.05.07-.07.12-.11Z"/>
      <path class="cls-1" d="m15.56,18.23c.24.16.76.36.98.43-.02.09-.06.15-.08.19-.24.03-.67-.37-.96-.46.03-.07.04-.1.06-.16Z"/>
      <path class="cls-1" d="m15.79,17.5c.26.14.8.26,1.03.3-.01.09-.04.16-.06.2-.24.07-.72-.27-1.02-.33.02-.07.02-.1.04-.17Z"/>
      <path class="cls-1" d="m16.02,16.46c.28.13.81.22,1.05.23,0,.09-.03.16-.04.2-.25.09-.74-.22-1.04-.26.01-.08.02-.11.03-.17Z"/>
      <path class="cls-1" d="m16.24,15.2c.29.13.82.2,1.06.2,0,.1-.02.16-.04.2-.25.1-.76-.19-1.05-.23.01-.08.01-.11.02-.17Z"/>
      <path class="cls-1" d="m16.46,13.8c.29.14.83.19,1.06.18,0,.1-.02.16-.03.2-.26.11-.77-.17-1.05-.2,0-.08.01-.11.02-.18Z"/>
      <path class="cls-1" d="m16.66,12.33c.3.15.83.19,1.06.17,0,.1-.02.16-.03.2-.27.11-.78-.16-1.05-.19,0-.08.01-.11.02-.18Z"/>
      <path class="cls-1" d="m16.85,10.85c.31.15.83.19,1.06.16,0,.11-.02.16-.03.2-.27.12-.78-.15-1.05-.18,0-.08.01-.11.02-.18Z"/>
      <path class="cls-1" d="m17.04,9.44c.31.17.83.2,1.06.17,0,.11-.02.15-.03.2-.28.12-.79-.14-1.05-.18,0-.09.01-.11.02-.18Z"/>
      <path class="cls-1" d="m17.21,8.16c.31.18.83.22,1.06.18,0,.11-.02.15-.03.2-.29.12-.8-.15-1.05-.19.01-.09.01-.12.02-.19Z"/>
      <path class="cls-1" d="m17.38,7.07c.32.2.83.25,1.06.21,0,.11-.02.15-.03.2-.3.12-.8-.16-1.05-.22.01-.09.02-.12.02-.19Z"/>
      <path class="cls-1" d="m17.55,6.24c.31.23.81.31,1.04.28-.02.12-.03.15-.05.2-.32.1-.79-.21-1.03-.28.02-.09.03-.12.04-.19Z"/>
      <path class="cls-1" d="m17.91,5.36c.23.32.68.54.91.57-.05.11-.07.13-.1.17-.34,0-.71-.43-.9-.57.05-.08.06-.11.09-.17Z"/>
      <path class="cls-1" d="m18.58,4.84c-.03.4.2.85.37,1.01-.11.06-.13.06-.19.08-.27-.21-.3-.78-.36-1.01.09-.04.11-.05.18-.08Z"/>
      <path class="cls-1" d="m19.41,4.97c-.32.26-.48.73-.48.97-.12-.04-.14-.05-.18-.08-.04-.35.35-.76.48-.96.09.04.11.05.18.07Z"/>
      <path class="cls-1" d="m20,5.5c-.41.11-.74.47-.83.69-.09-.09-.1-.1-.13-.15.11-.35.63-.56.82-.69.07.07.08.09.14.14Z"/>
      <path class="cls-1" d="m20.51,6.25c-.44.02-.83.31-.95.51-.07-.11-.08-.12-.1-.17.18-.32.73-.43.94-.51.05.09.06.11.11.17Z"/>
      <path class="cls-1" d="m20.98,7.23c-.44-.05-.87.2-1.01.38-.06-.12-.06-.13-.08-.18.23-.31.78-.35,1-.39.04.09.05.12.09.19Z"/>
      <path class="cls-1" d="m21.4,8.43c-.45-.09-.89.11-1.04.29-.05-.13-.05-.13-.06-.19.26-.29.81-.28,1.03-.29.03.1.04.12.07.2Z"/>
      <path class="cls-1" d="m21.77,9.81c-.45-.14-.9.03-1.06.2-.04-.13-.04-.13-.05-.19.29-.28.84-.22,1.05-.21.02.1.03.13.06.2Z"/>
      <path class="cls-1" d="m22.07,11.35c-.44-.18-.9-.04-1.07.13-.03-.14-.03-.13-.03-.2.31-.26.86-.17,1.06-.14.02.11.02.13.04.21Z"/>
      <path class="cls-1" d="m22.26,13.02c-.44-.22-.9-.11-1.08.05-.02-.14-.02-.13-.02-.2.34-.24.87-.11,1.07-.06,0,.11.01.13.03.21Z"/>
      <path class="cls-1" d="m22.34,14.83c-.43-.26-.89-.19-1.08-.04-.01-.15-.01-.13,0-.2.36-.22.88-.05,1.07.02,0,.11,0,.14.01.22Z"/>
      <path class="cls-1" d="m22.27,16.6c-.41-.31-.87-.27-1.07-.13,0-.15,0-.13.01-.2.39-.19.89.02,1.07.11,0,.11-.01.14,0,.22Z"/>
    </g>
  </g>
</svg>