<?xml version="1.0" encoding="utf-8"?>
<!-- Generator: Adobe Illustrator 26.0.0, SVG Export Plug-In . SVG Version: 6.00 Build 0)  -->
<svg version="1.1" id="Layer_1" xmlns="http://www.w3.org/2000/svg" xmlns:xlink="http://www.w3.org/1999/xlink" x="0px" y="0px"
	 viewBox="0 0 290.2 329.8" style="enable-background:new 0 0 290.2 329.8;" xml:space="preserve">
<style type="text/css">
	.st0{fill:#264DE4;}
	.st1{fill:#2965F1;}
	.st2{fill:#EBEBEB;}
	.st3{fill:#FFFFFF;}
</style>
<polygon class="st0" points="290.2,0.6 263.8,296.8 144.9,329.8 26.4,296.9 0,0.6 "/>
<polygon class="st1" points="241.1,277.9 263.7,24.9 145.1,24.9 145.1,304.6 "/>
<polygon class="st2" points="60.5,134.7 63.8,171.1 145.1,171.1 145.1,134.7 "/>
<polygon class="st2" points="145.1,61.2 145,61.2 54,61.2 57.3,97.5 145.1,97.5 "/>
<polygon class="st2" points="145.1,266.9 145.1,229.1 144.9,229.1 104.5,218.2 101.9,189.2 82.2,189.2 65.4,189.2 70.5,246.3 
	144.9,266.9 "/>
<polygon class="st3" points="189.7,171.1 185.5,218.2 145,229.1 145,266.9 219.4,246.3 220,240.1 228.5,144.5 229.4,134.7 236,61.2 
	145,61.2 145,97.5 196.2,97.5 192.9,134.7 145,134.7 145,171.1 "/>
</svg>
