<svg xmlns="http://www.w3.org/2000/svg" viewBox="0 0 28.346 28.346"><defs><style>.a{fill:#ff780e;fill-rule:evenodd;}</style></defs><path class="a" d="M14.173.35A14.174,14.174,0,0,0,9.691,27.97c.709.124.974-.3.974-.673,0-.337-.017-1.453-.017-2.64-3.561.655-4.483-.868-4.766-1.666a5.17,5.17,0,0,0-1.453-2c-.5-.265-1.2-.921-.018-.939A2.839,2.839,0,0,1,6.591,21.5a3.028,3.028,0,0,0,4.128,1.169,2.981,2.981,0,0,1,.9-1.895c-3.153-.355-6.449-1.577-6.449-7A5.512,5.512,0,0,1,6.626,9.97a5.09,5.09,0,0,1,.142-3.756s1.187-.372,3.9,1.453a13.346,13.346,0,0,1,7.087,0c2.711-1.843,3.9-1.453,3.9-1.453a5.093,5.093,0,0,1,.141,3.756,5.482,5.482,0,0,1,1.453,3.809c0,5.439-3.313,6.643-6.466,7a3.359,3.359,0,0,1,.956,2.622c0,1.9-.017,3.419-.017,3.9,0,.372.265.814.974.673A14.181,14.181,0,0,0,14.173.35Z"/></svg>