<svg xmlns="http://www.w3.org/2000/svg" xmlns:xlink="http://www.w3.org/1999/xlink" viewBox="0 0 28.346 28.346"><defs><style>.a{fill:#f18724;}.b{fill:url(#a);}.c{fill:url(#b);}.d{fill:url(#c);}.e{fill:url(#d);}.f{fill:#dedede;}.g{fill:none;}.g,.h{stroke:#dedede;stroke-miterlimit:10;}.h{fill:url(#e);}</style><radialGradient id="a" cx="6.119" cy="20.423" r="9.799" gradientTransform="translate(0 -12.144) scale(1 1.595)" gradientUnits="userSpaceOnUse"><stop offset="0.107" stop-color="#dedede"/><stop offset="1" stop-color="#f18724"/></radialGradient><linearGradient id="b" x1="11.158" y1="2.555" x2="15.265" y2="4.317" gradientUnits="userSpaceOnUse"><stop offset="0" stop-color="#f18724"/><stop offset="0.621" stop-color="#dedede"/></linearGradient><linearGradient id="c" x1="18.902" y1="2.483" x2="22.165" y2="6.521" gradientUnits="userSpaceOnUse"><stop offset="0" stop-color="#f18724"/><stop offset="0.379" stop-color="#dedede"/></linearGradient><linearGradient id="d" x1="23.777" y1="6.965" x2="27.324" y2="11.462" gradientUnits="userSpaceOnUse"><stop offset="0" stop-color="#f18724"/><stop offset="0.316" stop-color="#dedede"/></linearGradient><radialGradient id="e" cx="19.911" cy="-1.065" fy="7.355749120098608" r="12.601" gradientTransform="matrix(1, 0, 0, -1, 0, 28.346)" gradientUnits="userSpaceOnUse"><stop offset="0.811" stop-color="#dedede"/><stop offset="0.901" stop-color="#f18724"/></radialGradient></defs><rect class="a" width="28.346" height="28.346"/><path class="b" d="M9.6,22.285s-4.88-1.464-6.71-5.693a1.648,1.648,0,0,0,.813-1.83C3.537,13.339.975,16.755.975,16.755s3.5,9.027,7.605,7.767c1.383,3.09,2.684,1.5,2.684,1.5Z"/><path class="c" d="M12.837,6.012c-.96.27-1.644.071-1.971-.728,0,0,1.3-3.366,3.306-4.36l.711-.072.453.522-1.107,1.3Z"/><path class="d" d="M17.335,5.054a15.8,15.8,0,0,1,4.62-3.37l.465.029.029.726L18.641,5.9S16.87,6.216,17.335,5.054Z"/><path class="e" d="M22.315,9.358c1.924-1.917,3.753-3.368,5.21-3.007l.237.166s-.207.61-1.6,1.513c-1.153.747-2.587,1.776-3.325,2.157C21.415,10.922,22.315,9.358,22.315,9.358Z"/><path class="f" d="M22.382,16.017a15.746,15.746,0,0,1,5.81-3.946l-.035.52L22.92,16.25Z"/><path class="g" d="M2.128,22.885l1.095-1.4A50.431,50.431,0,0,0,.131,15.57C-.739,14.526,3.019,13,3.019,13s1.565.139,1.113,2.471,3.479-1.6,3.479-1.6,1.462.07,2.436-9.359c.557-.94,2.018-3.41,2.018-3.41a3.917,3.917,0,0,1,2.818-.25c1.288.522-.9,1.879-.9,1.879s.313-.069-.766,2.644c0,2.819.1,4.141.1,4.141l2.714-4.941s2.575-3.9,5.533-3.3-1.531,3.41-1.531,3.41L18.641,5.9S16.9,10.6,17.6,10.7s5.811-4.871,6.646-4.906,3.41-1.392,3.723.661C26.5,8.542,25.843,8.089,25.843,8.089s-6.3,4.976-5.254,5.567,5.741-2.435,5.741-2.435,2.784-.835,1.81,1.531c-2.68,1.809-6.159,4.175-6.159,4.175s-1.009,7.515-8.35,9.742c-.209-.035-.7.522-2.018-1.078C10.221,27.5,9.838,27.5,9.838,27.5A13.973,13.973,0,0,1,2.128,22.885Z"/><circle class="h" cx="16.317" cy="20.858" r="6.818"/></svg>