<svg xmlns="http://www.w3.org/2000/svg" xmlns:xlink="http://www.w3.org/1999/xlink" viewBox="0 0 28.346 28.346"><defs><style>.a{fill:#ff780e;}.b{fill:url(#a);}.c{fill:url(#b);}.d{fill:url(#c);}.e{fill:url(#d);}.f{fill:#dedede;}.g{fill:none;}.g,.h{stroke:#dedede;stroke-miterlimit:10;}.h{fill:url(#e);}</style><radialGradient id="a" cx="6.119" cy="7.928" r="9.794" gradientTransform="matrix(0, -1, -1.595, 0, 33.069, 28.346)" gradientUnits="userSpaceOnUse"><stop offset="0.107" stop-color="#dedede"/><stop offset="1" stop-color="#ff780e"/></radialGradient><linearGradient id="b" x1="11.158" y1="25.791" x2="15.265" y2="24.029" gradientTransform="matrix(0, -1, -1, 0, 28.347, 28.346)" gradientUnits="userSpaceOnUse"><stop offset="0" stop-color="#ff780e"/><stop offset="0.621" stop-color="#dedede"/></linearGradient><linearGradient id="c" x1="18.902" y1="25.864" x2="22.165" y2="21.826" gradientTransform="matrix(0, -1, -1, 0, 28.347, 28.346)" gradientUnits="userSpaceOnUse"><stop offset="0" stop-color="#ff780e"/><stop offset="0.379" stop-color="#dedede"/></linearGradient><linearGradient id="d" x1="23.777" y1="21.382" x2="27.324" y2="16.885" gradientTransform="matrix(0, -1, -1, 0, 28.347, 28.346)" gradientUnits="userSpaceOnUse"><stop offset="0" stop-color="#ff780e"/><stop offset="0.316" stop-color="#dedede"/></linearGradient><radialGradient id="e" cx="19.911" cy="29.411" fy="37.832206633067244" r="12.601" gradientTransform="translate(0 28.346) rotate(-90)" gradientUnits="userSpaceOnUse"><stop offset="0.811" stop-color="#dedede"/><stop offset="0.901" stop-color="#ff780e"/></radialGradient></defs><rect class="a" width="28.346" height="28.346"/><path class="b" d="M22.285,18.746s-1.464,4.88-5.693,6.71a1.648,1.648,0,0,0-1.83-.813c-1.423.166,1.993,2.728,1.993,2.728s9.027-3.5,7.767-7.6c3.09-1.383,1.5-2.684,1.5-2.684Z"/><path class="c" d="M6.012,15.509c.27.96.071,1.644-.728,1.971,0,0-3.366-1.3-4.36-3.306l-.072-.711.522-.453,1.3,1.107Z"/><path class="d" d="M5.054,11.011a15.786,15.786,0,0,1-3.37-4.62l.029-.465L2.439,5.9,5.9,9.705S6.216,11.476,5.054,11.011Z"/><path class="e" d="M9.358,6.031C7.441,4.107,5.99,2.278,6.351.821L6.517.584s.61.207,1.513,1.6c.747,1.153,1.776,2.587,2.157,3.325C10.922,6.931,9.358,6.031,9.358,6.031Z"/><path class="f" d="M16.017,5.964A15.746,15.746,0,0,1,12.071.154l.52.035L16.25,5.426Z"/><path class="g" d="M22.885,26.218l-1.4-1.095a50.589,50.589,0,0,0-5.915,3.092c-1.044.87-2.57-2.888-2.57-2.888s.139-1.565,2.471-1.113-1.6-3.479-1.6-3.479.07-1.462-9.359-2.436L1.1,16.281a3.923,3.923,0,0,1-.25-2.818c.522-1.288,1.879.9,1.879.9s-.069-.313,2.644.766c2.819,0,4.141-.1,4.141-.1L4.575,12.315s-3.9-2.575-3.3-5.533,3.41,1.531,3.41,1.531L5.9,9.705s4.7,1.741,4.8,1.041S5.829,4.935,5.794,4.1,4.4.69,6.455.377C8.542,1.846,8.089,2.5,8.089,2.5s4.976,6.3,5.567,5.254-2.435-5.741-2.435-5.741S10.386-.768,12.752.206c1.809,2.68,4.175,6.159,4.175,6.159s7.515,1.009,9.742,8.35c-.035.209.522.7-1.078,2.018C27.5,18.125,27.5,18.508,27.5,18.508A13.963,13.963,0,0,1,22.885,26.218Z"/><circle class="h" cx="20.858" cy="12.029" r="6.818"/></svg>