<svg xmlns="http://www.w3.org/2000/svg" viewBox="0 0 28.346 28.346"><defs><style>.a{fill:#dedede;}.b{fill:#f18724;}</style></defs><rect class="a" width="28.346" height="28.346"/><path class="b" d="M13.8,25.669a3.056,3.056,0,0,1-3.129-3.234A8.009,8.009,0,0,1,10.8,21.2l1.494-10.511H10.781l.1-.6h2.32a16.7,16.7,0,0,0,3.411-.3L14.859,22.259a5.592,5.592,0,0,0-.106,1.108,1.032,1.032,0,0,0,.176.615.51.51,0,0,0,.422.246,1.284,1.284,0,0,0,.958-.571,4.319,4.319,0,0,0,.747-1.591h.615Q16.635,25.669,13.8,25.669ZM12.591,5.015a2.244,2.244,0,0,1,.686-1.661,2.343,2.343,0,0,1,3.99,1.661,2.251,2.251,0,0,1-.686,1.652,2.332,2.332,0,0,1-3.3,0A2.251,2.251,0,0,1,12.591,5.015Z"/></svg>