<svg xmlns="http://www.w3.org/2000/svg" viewBox="0 0 28.346 28.346"><defs><style>.a{fill:#dedede;}.b{fill:#ff780e;}</style></defs><rect class="a" width="28.346" height="28.346"/><path class="b" d="M25.669,14.546a3.056,3.056,0,0,1-2.977,3.133c-.086,0-.171,0-.257,0a8.008,8.008,0,0,1-1.235-.129L10.689,16.052v1.513l-.6-.1v-2.32a16.686,16.686,0,0,0-.3-3.411l12.47,1.753a5.57,5.57,0,0,0,1.108.106,1.034,1.034,0,0,0,.615-.176A.512.512,0,0,0,24.228,13a1.283,1.283,0,0,0-.571-.958,4.324,4.324,0,0,0-1.591-.747v-.615Q25.669,11.712,25.669,14.546ZM5.015,15.755a2.243,2.243,0,0,1-1.661-.686,2.343,2.343,0,0,1,1.661-3.99,2.252,2.252,0,0,1,1.652.686,2.332,2.332,0,0,1,0,3.3l0,0A2.252,2.252,0,0,1,5.015,15.755Z"/></svg>