<svg xmlns="http://www.w3.org/2000/svg" viewBox="0 0 28.346 28.346"><defs><style>.a{fill:#dedede;}.b{fill:#f18724;}</style></defs><rect class="a" x="-0.23" width="28.807" height="28.346"/><path class="b" d="M20.491,16.236a2.514,2.514,0,0,1,1.818,1.772c0,.116-.14.163-.326.163-.863,0-1.865.023-2.937.07-.98,1.422-1.889,2.984-1.889,3.73a.209.209,0,0,0,.234.233c.675,0,2.89-1.586,4.8-3.287a.8.8,0,0,1,.373-.186c.279,0,.4.582.4.7,0,.816-4.1,4.429-5.944,4.429-1.423,0-2.122-2.121-2.122-2.564a6.328,6.328,0,0,1,.793-2.915c-1.213.048-2.471.094-3.661.094-3.776,3.357-7.063,5.618-8.6,5.618a1.26,1.26,0,0,1-.629-.14A5.106,5.106,0,0,1,0,19.406c0-1.911,1.469-3.542,2.984-4.685A13.166,13.166,0,0,1,7.46,12.67c.4,0,.4.349.4.652a.9.9,0,0,1-.4.84,15.145,15.145,0,0,0-5.315,4.849,3.785,3.785,0,0,0-.607,2.074c0,.536.187.956.793.956a3.515,3.515,0,0,0,1.4-.42A39.638,39.638,0,0,0,8.835,18.38c-2.051-.232-2.168-.768-2.168-1.3,0-.187.07-.489.234-.489a9.423,9.423,0,0,0,1.514.233c.909,0,1.748-.024,2.518-.046A123.067,123.067,0,0,0,23.405,4.743c.232-.232.395-.488.653-.488,1.189,0,4.288,1.655,4.288,2.238,0,.465-3.776,3.822-7.086,8.694Zm-3.567-.046c1.166-1.889,2.983-4.5,5.828-8.276a.551.551,0,0,0,.116-.28c0-.069-.023-.117-.116-.117-.117,0-.21.094-.466.4A114.939,114.939,0,0,1,14.2,16.493C15.175,16.376,16.062,16.259,16.924,16.19Z"/></svg>