<svg xmlns="http://www.w3.org/2000/svg" viewBox="0 0 28.346 28.346"><defs><style>.a{fill:#dedede;}.b{fill:#ff780e;}</style></defs><rect class="a" y="-0.23" width="28.346" height="28.807"/><path class="b" d="M16.236,7.856a2.514,2.514,0,0,1,1.772-1.818c.116,0,.163.139.163.326,0,.863.023,1.865.07,2.937,1.422.98,2.984,1.889,3.73,1.889a.211.211,0,0,0,.234-.182.181.181,0,0,0,0-.052c0-.675-1.586-2.89-3.287-4.8a.813.813,0,0,1-.186-.373c0-.279.582-.4.7-.4.816,0,4.429,4.1,4.429,5.944,0,1.423-2.121,2.122-2.564,2.122a6.352,6.352,0,0,1-2.915-.793c.048,1.213.094,2.471.094,3.661,3.357,3.776,5.618,7.063,5.618,8.6a1.251,1.251,0,0,1-.14.629,5.105,5.105,0,0,1-4.547,2.8c-1.91,0-3.542-1.469-4.684-2.984a13.175,13.175,0,0,1-2.052-4.476c0-.4.349-.4.652-.4a.9.9,0,0,1,.841.4A15.143,15.143,0,0,0,19.012,26.2a3.792,3.792,0,0,0,2.074.607c.535,0,.955-.187.955-.793a3.5,3.5,0,0,0-.42-1.4,39.451,39.451,0,0,0-3.241-5.1c-.232,2.051-.768,2.168-1.3,2.168-.187,0-.489-.07-.489-.234a9.343,9.343,0,0,0,.233-1.514c0-.91-.024-1.748-.046-2.518A122.958,122.958,0,0,0,4.743,4.941c-.232-.232-.488-.395-.488-.653C4.255,3.1,5.91,0,6.493,0c.465,0,3.823,3.777,8.694,7.087Zm-.045,3.567C14.3,10.257,11.691,8.44,7.915,5.6a.539.539,0,0,0-.281-.116c-.068,0-.117.023-.117.116,0,.117.094.21.4.466a114.324,114.324,0,0,1,8.576,8.086C16.376,13.172,16.26,12.285,16.191,11.423Z"/></svg>