<svg xmlns="http://www.w3.org/2000/svg" viewBox="0 0 28.346 28.346"><defs><style>.a{fill:#efda4f;}.b{fill:#323330;}</style></defs><path class="a" d="M0,28.346V0H28.346V28.346Zm16.841-4.962a4.53,4.53,0,0,0,1.824,1.951,6.075,6.075,0,0,0,5.033.429A3.373,3.373,0,0,0,25.646,24.2a3.75,3.75,0,0,0,.437-2.078,3.468,3.468,0,0,0-1.321-2.661,8.591,8.591,0,0,0-1.9-1.105c-.543-.245-1.094-.473-1.629-.735a2.755,2.755,0,0,1-.648-.45,1.156,1.156,0,0,1,.49-1.919,1.809,1.809,0,0,1,.971,0,1.738,1.738,0,0,1,1.012.776c.065.095.124.194.191.3L25.31,14.99a3.909,3.909,0,0,0-1.715-1.7,4.857,4.857,0,0,0-3.3-.265,3.361,3.361,0,0,0-2.651,3.316,3.614,3.614,0,0,0,.792,2.455,4.71,4.71,0,0,0,1.609,1.219c.632.308,1.286.572,1.922.873a8.9,8.9,0,0,1,.949.53,1.1,1.1,0,0,1,.449.589,1.217,1.217,0,0,1-.781,1.571,2.823,2.823,0,0,1-3.373-1.135c-.069-.1-.135-.2-.208-.3Zm-9.393.28a.542.542,0,0,0,.023.071A3.993,3.993,0,0,0,9.442,25.7a5.074,5.074,0,0,0,3.243.258,3.194,3.194,0,0,0,2.137-1.486,4.149,4.149,0,0,0,.566-2.175Q15.4,17.7,15.4,13.11c0-.029-.008-.058-.011-.088H12.74V13.2q0,4.378,0,8.756a4.514,4.514,0,0,1-.051.7,1.156,1.156,0,0,1-.547.9,1.711,1.711,0,0,1-1.8-.173,3.066,3.066,0,0,1-.61-.8L9.6,22.36Z"/><path class="b" d="M16.841,23.384,19,22.133c.073.107.139.207.208.3a2.823,2.823,0,0,0,3.373,1.135A1.217,1.217,0,0,0,23.363,22a1.1,1.1,0,0,0-.449-.589,8.9,8.9,0,0,0-.949-.53c-.636-.3-1.29-.565-1.922-.873a4.71,4.71,0,0,1-1.609-1.219,3.614,3.614,0,0,1-.792-2.455,3.361,3.361,0,0,1,2.651-3.316,4.857,4.857,0,0,1,3.3.265A3.909,3.909,0,0,1,25.31,14.99l-2.064,1.326c-.067-.1-.126-.2-.191-.3a1.738,1.738,0,0,0-1.012-.776,1.809,1.809,0,0,0-.971,0,1.156,1.156,0,0,0-.49,1.919,2.755,2.755,0,0,0,.648.45c.535.262,1.086.49,1.629.735a8.591,8.591,0,0,1,1.9,1.105,3.468,3.468,0,0,1,1.321,2.661,3.75,3.75,0,0,1-.437,2.078A3.373,3.373,0,0,1,23.7,25.764a6.075,6.075,0,0,1-5.033-.429A4.53,4.53,0,0,1,16.841,23.384Z"/><path class="b" d="M7.448,23.664,9.6,22.36l.128.219a3.066,3.066,0,0,0,.61.8,1.711,1.711,0,0,0,1.8.173,1.156,1.156,0,0,0,.547-.9,4.514,4.514,0,0,0,.051-.7q0-4.378,0-8.756v-.178h2.644c0,.03.011.059.011.088q0,4.594-.007,9.187a4.149,4.149,0,0,1-.566,2.175,3.194,3.194,0,0,1-2.137,1.486A5.074,5.074,0,0,1,9.442,25.7a3.993,3.993,0,0,1-1.971-1.965A.542.542,0,0,1,7.448,23.664Z"/></svg>