<svg xmlns="http://www.w3.org/2000/svg" viewBox="0 0 133.123 293.225"><defs><style>.a{fill:#10aa50;}.b{fill:#b8c4c2;}.c{fill:#12924f;}</style></defs><path class="a" d="M129.6,116.791c-15.31-67.54-47.22-85.52-55.36-98.23a144.649,144.649,0,0,1-8.9-17.42c-.43,6-1.22,9.78-6.32,14.33C48.78,24.6,5.29,60.041,1.63,136.781c-3.41,71.55,52.6,115.67,60,120.23,5.69,2.8,12.62.06,16-2.51,27-18.53,63.89-67.93,52-137.71"/><path class="b" d="M67.66,218.911c-1.41,17.71-2.42,28-6,38.12,0,0,2.35,16.86,4,34.72H71.5a324.732,324.732,0,0,1,6.37-37.39C70.31,250.641,67.95,234.451,67.66,218.911Z"/><path class="c" d="M77.86,254.371h0c-7.64-3.53-9.85-20.06-10.19-35.46a725.441,725.441,0,0,0,1.65-76.35c-.4-13.36.19-123.74-3.29-139.9a134.466,134.466,0,0,0,8.21,15.89c8.14,12.72,40.06,30.7,55.36,98.24C141.52,186.451,104.83,235.721,77.86,254.371Z"/></svg>