<svg xmlns="http://www.w3.org/2000/svg" viewBox="0 0 1200 1043"><defs><style>.a{fill:#61d9fa;}</style></defs><path class="a" d="M495.385,521.425A104.645,104.645,0,0,1,600.667,417.011c57.382.268,104.641,47.942,103.883,104.8-.778,58.338-47.183,104.374-105.019,104.184C542.121,625.8,495.187,578.679,495.385,521.425Z"/><path class="a" d="M343.964,0h45a7.844,7.844,0,0,0,1.805.771c22.411,3.457,43.52,10.977,63.888,20.688,43.223,20.609,81.128,48.986,116.841,80.5,9.585,8.459,18.895,17.229,28.539,26.046,1.345-1.2,2.6-2.254,3.77-3.384,24.874-23.939,51.064-46.314,79.29-66.228C712.054,37.963,742.43,20.08,776.318,9.038c11.333-3.693,23.1-6.063,34.666-9.038h45c.4.271.778.705,1.219.791,43.463,8.534,71.156,35.531,87.753,75.28,12.659,30.316,16.433,62.338,16.805,94.82.444,38.782-4.524,77.056-12.266,114.99-2.622,12.849-5.606,25.624-8.516,38.852,2.485.8,4.8,1.592,7.153,2.29,48.026,14.274,94.739,31.724,137.941,57.528,29.556,17.654,56.442,38.433,76.673,66.824,29.907,41.969,31.457,90.459,4.1,133.973-15.255,24.266-36.081,43.069-59.383,59.264-41.991,29.186-88.59,48.665-136.933,64.379-9.767,3.175-19.611,6.117-29.719,9.259,1.32,5.621,2.568,10.767,3.736,15.931,12.649,55.929,21.107,112.252,15.384,169.831C957.468,928.851,952.1,953,941.1,975.6c-16,32.854-40.566,55.7-76.582,65.031-2.857.739-5.687,1.579-8.529,2.373h-45a7.679,7.679,0,0,0-1.8-.78c-23.082-3.578-44.768-11.464-65.684-21.568-41.578-20.084-78.233-47.385-112.82-77.633-10.374-9.073-20.38-18.566-30.787-28.08-1.48,1.35-2.832,2.534-4.13,3.776-26.873,25.714-55.11,49.776-85.9,70.726-29.175,19.851-59.767,36.938-93.833,46.976-8.9,2.621-18.037,4.411-27.065,6.583h-45a6.91,6.91,0,0,0-1.7-.891c-42.154-8.451-69.577-34.426-86.323-72.874-12.644-29.029-16.809-59.833-17.678-91.13-1.085-39.128,3.667-77.77,11.207-116.089,2.853-14.5,6.206-28.9,9.339-43.381a5.314,5.314,0,0,0-1.262-.9c-6.194-1.937-12.407-3.817-18.6-5.747-48.351-15.059-95.111-33.726-137.756-61.517C74.009,632.759,49.651,612,32.282,584.089c-15.346-24.661-21.814-51.333-17.243-80.249,3.659-23.149,14.205-43.185,28.8-61.22,22.18-27.411,50.381-47.341,80.85-64.307,40.218-22.4,83.105-38.263,127.131-51.264,2.352-.694,4.666-1.512,7.291-2.367-1.307-5.559-2.558-10.7-3.725-15.866-12.633-55.93-21.134-112.245-15.39-169.83C242.473,114.143,247.84,90,258.83,67.4c15.984-32.872,40.623-55.648,76.592-65.039C338.28,1.615,341.118.789,343.964,0ZM599.742,711.05l.046-2.206c20.991,0,41.988.3,62.971-.109,13.306-.262,26.6-1.436,39.872-2.586a9.574,9.574,0,0,0,6.269-3.675A1392.912,1392.912,0,0,0,811.277,525.2a9.49,9.49,0,0,0,.064-7.271A1391.476,1391.476,0,0,0,708.985,340.642a9.409,9.409,0,0,0-6.205-3.773q-30.414-1.885-60.868-3.107A1223.509,1223.509,0,0,0,497.1,336.921a8.943,8.943,0,0,0-5.915,3.388A1396.785,1396.785,0,0,0,388.54,518.015a8.922,8.922,0,0,0-.059,6.837A1395.834,1395.834,0,0,0,491.107,702.564a8.762,8.762,0,0,0,5.841,3.492C531.205,707.87,565.475,709.432,599.742,711.05Zm-35.7-546.18c-.7-.833-1.079-1.385-1.553-1.842-30.174-29.1-62.115-56-97.867-78.1-23.2-14.34-47.416-26.481-74.292-32.384-16.322-3.586-32.685-4.567-48.768,1.232-19.242,6.938-30.759,21.584-38.579,39.632-10.734,24.779-13.562,51.1-13.787,77.684-.394,46.587,7.416,92.143,18.483,137.237.909,3.7,2.529,3.756,5.663,3.14,21.714-4.266,43.368-8.977,65.228-12.325,27.463-4.207,55.113-7.181,82.651-10.921a10.763,10.763,0,0,0,6.343-3.736c21.99-28.051,43.6-56.4,65.76-84.315C542.937,188.07,553.6,176.809,564.046,164.87Zm.3,713.545c-1.125-1.392-1.79-2.316-2.555-3.148a1173.208,1173.208,0,0,1-92.174-114.315c-3.386-4.762-7.121-6.432-12.63-6.993-18.706-1.9-37.463-3.677-56.008-6.689-29.555-4.8-58.962-10.519-88.412-15.956-2.953-.545-4.11.2-4.82,3.161C294.619,789.264,285.145,844.424,291,901.1c1.943,18.818,6,37.161,14.672,54.173,16.055,31.517,41.132,41.01,73.16,37.162,20.594-2.475,39.694-9.832,58.124-18.986,37-18.38,69.586-43.122,100.427-70.307C546.468,895.13,555.253,886.774,564.351,878.415ZM927.024,669.3c15.124-4.887,29.777-9.3,44.207-14.347,38.651-13.526,75.921-29.964,109.469-53.867,16.384-11.674,31.311-24.926,42.4-41.942,16.365-25.1,16.384-50.339-.072-75.4-12.194-18.573-28.764-32.718-46.935-45.068-39.676-26.965-83.72-44.391-129.166-58.69-6.592-2.075-13.239-3.974-19.974-5.989-.658,1.761-1.111,2.822-1.455,3.918a1185.425,1185.425,0,0,1-54.19,139.62c-1.546,3.36-.722,5.89.507,8.929,14.676,36.262,29.385,72.511,43.746,108.9C919.83,646.16,923.037,657.382,927.024,669.3ZM635.66,164.64c1.077,1.329,1.746,2.252,2.512,3.086,33.959,37,65.105,76.257,94.407,117.016a9.615,9.615,0,0,0,5.958,3.46c19.808,2.546,39.761,4.133,59.462,7.3,29.891,4.807,59.621,10.614,89.4,16.123,3,.556,4.085-.2,4.8-3.138,12.492-51.658,21.342-103.736,17.676-157.182-1.362-19.845-4.938-39.292-12.815-57.749C882.8,60.153,855.814,45.257,820.1,50.637c-21.366,3.218-41.2,10.709-60.252,20.471C721.433,90.784,687.752,117.1,655.82,145.815,649.041,151.91,642.486,158.254,635.66,164.64Zm.206,713.512c.863.964,1.376,1.619,1.971,2.19,29.023,27.866,59.593,53.833,93.71,75.34,25.917,16.336,52.942,30.341,83.49,35.81,19.112,3.422,37.932,2.959,55-8.015,15.319-9.85,24.036-24.683,29.827-41.374,10.21-29.431,11.785-59.877,10.421-90.715-1.744-39.432-8.66-78.013-17.919-116.27-.891-3.684-2.206-4.282-5.81-3.562-21.537,4.3-43.034,8.962-64.733,12.266-26.969,4.106-54.114,7.066-81.2,10.381a12.565,12.565,0,0,0-9.323,5.4c-21.258,27.773-42.6,55.486-64.375,82.854C657.2,854.678,646.436,866.067,635.866,878.152ZM273.128,374.3a19.336,19.336,0,0,0-2.246.338c-42.673,12.309-84.243,27.4-123.117,49.2C124.824,436.693,103.4,451.592,86,471.613c-26.519,30.513-28.412,61.814-5.558,92.712,13.272,17.943,30.405,31.667,48.968,43.7,36.353,23.563,76.124,39.624,117.116,52.94,8.663,2.815,17.432,5.3,26.323,7.992.62-1.506,1.131-2.528,1.47-3.605,15.118-48.04,33.657-94.751,54.332-140.649.907-2.013.549-5.229-.4-7.355-16.894-37.711-32.542-75.912-45.785-115.072C279.327,393.009,276.268,383.717,273.128,374.3ZM772.815,700.343l105.563-18.189C865.686,647.768,853.6,615.008,841.3,581.708Zm105.02-338.126c-16.726-5.859-98.3-19.269-103.883-17.585,22.193,38.436,44.453,76.987,67.366,116.671C853.627,427.9,865.727,395.07,877.835,362.217ZM427.106,342.706,321.591,360.847c12.633,34.267,24.732,67.086,37.035,100.46Zm-105.025,338c16.719,5.9,98.263,19.312,103.89,17.623-22.184-38.427-44.438-76.974-67.337-116.637C346.361,614.939,334.291,647.635,322.081,680.708Zm277.3,161.406c24.538-26.843,46.89-53.468,68.068-81.806H531.318Zm67.065-559.426,1.152-1.315L599.949,200.2l-68.625,82.485Z"/></svg>