<svg xmlns="http://www.w3.org/2000/svg" viewBox="0 0 1672.441 1672.441"><defs><style>.a{fill:#f0f0f0;}</style></defs><path class="a" d="M836.22,0C374.389,0,0,374.389,0,836.22s374.389,836.221,836.22,836.221,836.221-374.389,836.221-836.221S1298.052,0,836.22,0Zm340.358,254.109c133.07,0,240.944,107.875,240.944,240.945S1309.648,736,1176.578,736A239.815,239.815,0,0,1,1047.1,698.286a105.292,105.292,0,0,0-73.316-73.066,239.814,239.814,0,0,1-38.155-130.166C935.633,361.984,1043.507,254.109,1176.578,254.109ZM805.741,726.4a79.37,79.37,0,1,1-79.369-79.37A79.459,79.459,0,0,1,805.741,726.4ZM495.054,254.918C628.125,254.918,736,362.793,736,495.863a239.815,239.815,0,0,1-37.713,129.474,105.292,105.292,0,0,0-73.066,73.316,239.814,239.814,0,0,1-130.166,38.155c-133.07,0-240.945-107.874-240.945-240.945S361.984,254.918,495.054,254.918ZM149.211,857.9a21.26,21.26,0,0,1,0-42.52h396.85a21.26,21.26,0,0,1,0,42.52Zm346.652,560.43c-133.07,0-240.945-107.874-240.945-240.945S362.793,936.442,495.863,936.442a239.806,239.806,0,0,1,129.474,37.713,105.289,105.289,0,0,0,73.316,73.065,239.819,239.819,0,0,1,38.155,130.166C736.808,1310.457,628.934,1418.331,495.863,1418.331ZM726.4,1025.439a79.37,79.37,0,1,1,79.369-79.37A79.46,79.46,0,0,1,726.4,1025.439ZM814.54,149.211a21.26,21.26,0,1,1,42.519,0v396.85a21.26,21.26,0,1,1-42.519,0ZM857.9,1523.23a21.26,21.26,0,0,1-42.52,0V1126.38a21.26,21.26,0,1,1,42.52,0ZM946.046,647a79.37,79.37,0,1,1-79.369,79.371A79.46,79.46,0,0,1,946.046,647ZM866.7,946.046a79.37,79.37,0,1,1,79.369,79.37A79.459,79.459,0,0,1,866.7,946.046Zm310.686,471.476c-133.07,0-240.944-107.874-240.944-240.944A239.806,239.806,0,0,1,974.155,1047.1a105.289,105.289,0,0,0,73.065-73.316,239.819,239.819,0,0,1,130.166-38.155c133.071,0,240.945,107.874,240.945,240.945S1310.457,1417.522,1177.386,1417.522ZM1523.23,857.059H1126.38a21.26,21.26,0,1,1,0-42.519h396.85a21.26,21.26,0,1,1,0,42.519Z"/></svg>