<svg xmlns="http://www.w3.org/2000/svg" viewBox="0 0 28.346 28.346"><defs><style>.a{fill:#444;}.b{fill:#dedede;}</style></defs><circle class="a" cx="14.173" cy="14.173" r="14.173"/><path class="b" d="M11.1,10.5H6.542A7.843,7.843,0,0,1,8.667,4.975a7.176,7.176,0,0,1,5.413-2.14,8.122,8.122,0,0,1,6.049,2.109,5.259,5.259,0,0,1,1.676,3.878A6.441,6.441,0,0,1,21,12.2a6.854,6.854,0,0,1-1.8,1.862q-1.674,1.24-1.923,1.488a3.93,3.93,0,0,0-1.117,2.141v1.179H11.971v-1.4a5.18,5.18,0,0,1,.9-3.071,7.947,7.947,0,0,1,1.784-1.784,10.8,10.8,0,0,0,1.6-1.412,3,3,0,0,0,.683-1.954q0-2.792-2.637-2.792A2.705,2.705,0,0,0,11.924,7.6,5.116,5.116,0,0,0,11.1,10.5Zm.434,15.015V20.735h4.87v4.777Z"/></svg>